<svg width="100" height="80" viewBox="0 0 100 80" fill="none" xmlns="http://www.w3.org/2000/svg">
<g clip-path="url(#clip0_4137_7596)">
<path d="M36.75 7C37.4925 7 38.235 7 39 7C37.5547 17.3872 37.5547 17.3872 36 22.2381C36.7425 22.2381 37.485 22.2381 38.25 22.2381C38.2954 21.6488 38.3409 21.0595 38.3877 20.4524C38.7442 15.9505 39.1569 11.4761 39.75 7C40.4925 7 41.235 7 42 7C41.7525 12.28 41.505 17.56 41.25 23C38.5275 23 35.805 23 33 23C33.4819 20.6185 33.9666 18.2377 34.4531 15.8571C34.5899 15.1795 34.7267 14.5018 34.8677 13.8036C35.0006 13.1554 35.1335 12.5071 35.2705 11.8393C35.3923 11.2408 35.514 10.6423 35.6395 10.0257C36 8.52381 36 8.52381 36.75 7Z" fill="#317882"/>
<path d="M25.75 7C26.4925 7 27.235 7 28 7C27.1391 12.4086 25.6641 17.2222 23.5 22.2381C23.995 22.4895 24.49 22.741 25 23C22.03 23 19.06 23 16 23C16.2475 22.4971 16.495 21.9943 16.75 21.4762C18.235 21.7276 19.72 21.979 21.25 22.2381C21.3119 21.6567 21.3737 21.0752 21.4375 20.4762C22.2164 16.5856 23.6249 12.9934 25 9.28571C25.2475 8.53143 25.495 7.77714 25.75 7Z" fill="#317882"/>
<path d="M47.6667 7C48.4917 7 49.3167 7 50.1667 7C50.4417 12.28 50.7167 17.56 51 23C49.35 23 47.7 23 46 23C46.825 15.08 46.825 15.08 47.6667 7Z" fill="#317882"/>
<path d="M33 7C33.66 7 34.32 7 35 7C34.7023 10.1756 34.3502 13.1997 33.625 16.2857C33.1061 18.6975 32.8659 20.5477 33 23C31.68 23 30.36 23 29 23C29.5393 20.6183 30.0818 18.2377 30.625 15.8571C30.7784 15.1795 30.9318 14.5018 31.0898 13.8036C31.2381 13.1554 31.3863 12.5071 31.5391 11.8393C31.6752 11.2408 31.8114 10.6423 31.9517 10.0257C32.3333 8.52381 32.3333 8.52381 33 7Z" fill="#317882"/>
<path d="M44 7C44.66 7 45.32 7 46 7C46 12.28 46 17.56 46 23C44.68 23 43.36 23 42 23C42.66 17.72 43.32 12.44 44 7Z" fill="#317882"/>
<path d="M66 7C66.7364 7 67.4727 7 68.2314 7C68.8579 8.95038 69.4765 10.9028 70.0909 12.8571C70.357 13.6814 70.357 13.6814 70.6284 14.5223C71.5369 17.4336 72.189 19.9024 71.9504 23C70.9686 22.7486 69.9868 22.4971 68.9752 22.2381C68.475 20.2709 67.9799 18.3026 67.4876 16.3333C67.2748 15.4995 67.2748 15.4995 67.0576 14.6488C66.3978 11.9937 66 9.75715 66 7Z" fill="#317882"/>
<path d="M29.6667 7C30.4367 7 31.2067 7 32 7C31.0247 12.3462 29.9966 17.6785 28.8889 23C27.6056 23 26.3222 23 25 23C26.3224 17.5703 27.7838 12.2698 29.6667 7Z" fill="#317882"/>
<path d="M58 7C58.7425 7 59.485 7 60.25 7C60.6284 8.96764 61.0028 10.9359 61.375 12.9048C61.4823 13.4607 61.5896 14.0165 61.7002 14.5893C62.1917 17.2045 62.5 19.5651 62.5 22.2381C62.995 22.4895 63.49 22.741 64 23C62.2675 23 60.535 23 58.75 23C59.245 22.7486 59.74 22.4971 60.25 22.2381C60.1504 21.7765 60.0508 21.3149 59.9482 20.8393C58.9932 16.2364 58.3731 11.6877 58 7Z" fill="#317882"/>
<path d="M62.0423 7C62.8076 7 63.573 7 64.3615 7C64.8801 9.1104 65.3949 11.2216 65.9077 13.3333C66.0552 13.9319 66.2026 14.5306 66.3546 15.1473C66.4941 15.7243 66.6336 16.3013 66.7774 16.8958C66.9069 17.4265 67.0365 17.9572 67.17 18.5039C67.4538 19.9524 67.4538 19.9524 67.4538 22.2381C67.9641 22.4895 68.4743 22.741 69 23C67.4693 23 65.9386 23 64.3615 23C64.2658 22.1043 64.1702 21.2086 64.0716 20.2857C63.8026 18.1071 63.4004 16.2727 62.767 14.1429C62.0572 11.6245 61.9137 9.59648 62.0423 7Z" fill="#317882"/>
<path d="M51.6 7C52.194 7 52.788 7 53.4 7C53.598 12.28 53.796 17.56 54 23C53.01 23 52.02 23 51 23C51.198 17.72 51.396 12.44 51.6 7Z" fill="#317882"/>
<path d="M61.7526 27C69.0534 27 76.3542 27 83.8763 27C83.8763 30.4817 83.8763 33.9635 83.8763 37.5507C91.1771 37.5507 98.4779 37.5507 106 37.5507C105.748 44.2655 105.496 50.9803 105.237 57.8986C91.8942 57.8986 78.5513 57.8986 64.8041 57.8986C66.3146 60.8829 67.8252 63.8672 69.3814 66.942C70.1468 68.702 70.8872 70.4734 71.5747 72.2645C71.8875 73.066 72.2002 73.8674 72.5224 74.6932C73.1959 76.7391 73.1959 76.7391 73.1959 79C71.4317 78.9529 71.4317 78.9529 69.3814 78.2464C68.6262 76.5055 67.8709 74.7646 67.0928 72.971C55.5122 72.7223 43.9315 72.4736 32 72.2174C32 71.9687 32 71.72 32 71.4638C43.3289 71.4638 54.6577 71.4638 66.3299 71.4638C65.9523 69.9716 65.9523 69.9716 65.567 68.4493C58.2662 68.2006 50.9654 67.9519 43.4433 67.6957C43.4433 67.447 43.4433 67.1983 43.4433 66.942C50.4924 66.942 57.5414 66.942 64.8041 66.942C64.5524 66.1959 64.3006 65.4499 64.0412 64.6812C54.4746 64.4325 44.908 64.1838 35.0515 63.9275C35.0515 63.6788 35.0515 63.4301 35.0515 63.1739C44.3664 63.1739 53.6812 63.1739 63.2783 63.1739C62.7682 60.8276 62.7682 60.8276 60.942 60.0181C60.4542 59.8161 59.9665 59.614 59.4639 59.4058C60.4709 59.4058 61.4779 59.4058 62.5155 59.4058C62.2637 48.7119 62.012 38.018 61.7526 27ZM66.3299 33.7826C66.3299 38.0104 66.3299 42.2383 66.3299 46.5942C70.3579 46.5942 74.386 46.5942 78.5361 46.5942C78.5361 42.3664 78.5361 38.1386 78.5361 33.7826C74.508 33.7826 70.48 33.7826 66.3299 33.7826Z" fill="#FCFCFB"/>
<path d="M75.44 1C76.694 1.25034 77.948 1.50069 79.24 1.75862C79.2911 3.59622 79.322 5.23453 78.86 7.02155C78.3602 9.07939 78.432 11.0294 78.48 13.1379C77.9784 13.1379 77.4768 13.1379 76.96 13.1379C76.2076 10.5093 76.2076 10.5093 75.44 7.82759C74.6876 7.82759 73.9352 7.82759 73.16 7.82759C73.5264 8.65979 73.8928 9.49199 74.2703 10.3494C74.7552 11.4528 75.2401 12.5561 75.725 13.6595C75.966 14.2066 76.207 14.7538 76.4553 15.3175C76.6904 15.8529 76.9256 16.3883 77.1678 16.9399C77.3827 17.4286 77.5976 17.9172 77.8191 18.4207C78.5751 20.1879 79.285 21.2158 80 23C77.2412 23 74.4824 23 71.64 23C71.0044 20.6299 70.3714 19.0178 69.74 16.6466C69.5588 15.9718 69.3775 15.297 69.1908 14.6018C68.9336 13.6337 68.9336 13.6337 68.6712 12.646C68.5121 12.0501 68.3529 11.4542 68.1888 10.8402C67.84 9.34483 67.84 9.34483 67.84 7.82759C67.0876 7.82759 66.3352 7.82759 65.56 7.82759C65.7706 8.66859 65.9813 9.50959 66.1983 10.3761C67.2522 14.5841 68.3061 18.792 69.36 23C68.6076 23 67.8552 23 67.08 23C66.5674 21.184 66.0618 19.3664 65.56 17.5474C65.415 17.0365 65.27 16.5255 65.1206 15.9991C64.3572 13.2096 63.8598 10.7217 64.04 7.82759C63.2876 7.82759 62.5352 7.82759 61.76 7.82759C61.9794 8.73215 62.1989 9.63672 62.425 10.5687C62.7101 11.757 62.9951 12.9453 63.28 14.1336C63.425 14.7297 63.57 15.3257 63.7194 15.9398C63.8565 16.5143 63.9937 17.0888 64.135 17.6808C64.2624 18.2091 64.3897 18.7375 64.5209 19.2819C64.8 20.7241 64.8 20.7241 64.8 23C64.0476 23 63.2952 23 62.52 23C62.1354 21.1833 61.7562 19.3658 61.38 17.5474C61.2713 17.0365 61.1625 16.5255 61.0505 15.9991C60.4827 13.2327 60.1081 10.6523 60.24 7.82759C59.4876 7.82759 58.7352 7.82759 57.96 7.82759C58.1246 8.79572 58.2892 9.76385 58.4587 10.7613C58.6726 12.0276 58.8863 13.294 59.1 14.5603C59.2087 15.1989 59.3175 15.8375 59.4295 16.4954C59.5838 17.4122 59.5838 17.4122 59.7412 18.3475C59.8368 18.9117 59.9323 19.4758 60.0307 20.057C60.24 21.4828 60.24 21.4828 60.24 23C59.4876 23 58.7352 23 57.96 23C57.2076 15.8652 57.2076 15.8652 56.44 8.58621C55.9384 8.58621 55.4368 8.58621 54.92 8.58621C54.92 13.3428 54.92 18.0993 54.92 23C54.4184 23 53.9168 23 53.4 23C53.4 17.9931 53.4 12.9862 53.4 7.82759C52.6476 7.82759 51.8952 7.82759 51.12 7.82759C51.12 12.8345 51.12 17.8414 51.12 23C50.6184 23 50.1168 23 49.6 23C49.6 17.9931 49.6 12.9862 49.6 7.82759C48.8476 7.82759 48.0952 7.82759 47.32 7.82759C47.3357 8.78203 47.3514 9.73647 47.3675 10.7198C47.3741 14.8411 46.9895 18.9042 46.56 23C46.0584 23 45.5568 23 45.04 23C44.9535 17.8672 45.131 12.9192 45.8 7.82759C45.0476 7.82759 44.2952 7.82759 43.52 7.82759C43.4509 8.8984 43.4509 8.8984 43.3805 9.99084C43.3168 10.9355 43.2531 11.8802 43.1875 12.8534C43.1258 13.7864 43.0641 14.7193 43.0005 15.6805C42.7854 18.1565 42.4481 20.5568 42 23C41.4984 23 40.9968 23 40.48 23C40.5881 21.3245 40.6996 19.6493 40.8125 17.9741C40.8742 17.0412 40.9359 16.1083 40.9995 15.1471C41.2146 12.6711 41.5519 10.2708 42 7.82759C41.2476 7.82759 40.4952 7.82759 39.72 7.82759C39.7513 8.64121 39.7827 9.45483 39.815 10.2931C39.8305 14.6029 38.9898 18.7767 38.2 23C37.4476 23 36.6952 23 35.92 23C36.9232 17.9931 37.9264 12.9862 38.96 7.82759C38.2076 7.82759 37.4552 7.82759 36.68 7.82759C35.6768 12.8345 34.6736 17.8414 33.64 23C33.1384 23 32.6368 23 32.12 23C32.6213 17.7956 33.8196 12.8766 35.16 7.82759C34.4076 7.82759 33.6552 7.82759 32.88 7.82759C32.733 8.60502 32.5861 9.38246 32.4347 10.1835C32.235 11.2157 32.0351 12.248 31.835 13.2802C31.739 13.7911 31.643 14.3021 31.5441 14.8285C30.9827 17.7004 30.2761 20.3267 29.08 23C28.5784 23 28.0768 23 27.56 23C28.0495 20.8977 28.5406 18.7957 29.0325 16.694C29.1711 16.0979 29.3098 15.5019 29.4526 14.8878C29.5873 14.3133 29.722 13.7388 29.8608 13.1468C29.9842 12.6184 30.1075 12.0901 30.2347 11.5457C30.5526 10.2905 30.9498 9.05584 31.36 7.82759C30.6076 7.82759 29.8552 7.82759 29.08 7.82759C28.8762 8.78203 28.6725 9.73647 28.4625 10.7198C27.5459 14.8533 26.4247 18.9245 25.28 23C24.5276 23 23.7752 23 23 23C23.8281 19.4411 25.0293 15.996 26.1617 12.5245C26.8904 10.1801 26.8904 10.1801 26.797 7.99057C26.8 6.31034 26.8 6.31034 28.32 4.7931C30.2916 4.61065 30.2916 4.61065 32.818 4.62086C33.7613 4.62097 34.7046 4.62109 35.6764 4.62121C36.7096 4.62895 37.7428 4.63687 38.7759 4.64494C39.8302 4.64776 40.8845 4.64992 41.9387 4.65144C44.715 4.65724 47.4912 4.67214 50.2674 4.68892C53.0998 4.70444 55.9321 4.71137 58.7645 4.71902C64.3231 4.7353 69.8815 4.7612 75.44 4.7931C75.44 3.54138 75.44 2.28966 75.44 1Z" fill="#1B606A"/>
<path d="M14 28C21.26 28 28.52 28 36 28C36 37.9 36 47.8 36 58C28.74 58 21.48 58 14 58C14 48.1 14 38.2 14 28ZM19.3103 34C19.3103 38.2075 19.3103 42.415 19.3103 46.75C23.3159 46.75 27.3214 46.75 31.4483 46.75C31.4483 42.5425 31.4483 38.335 31.4483 34C27.4428 34 23.4372 34 19.3103 34Z" fill="#FDFCFB"/>
<path d="M66 59C78.87 59 91.74 59 105 59C105 62.63 105 66.26 105 70C93.615 70 82.23 70 70.5 70C66 60.5714 66 60.5714 66 59Z" fill="#A3A5A0"/>
<path d="M-7 59C5.87 59 18.74 59 32 59C30.5 63.7143 30.5 63.7143 27.5 70C16.115 70 4.73 70 -7 70C-7 66.37 -7 62.74 -7 59Z" fill="#A3A49F"/>
<path d="M-7 39.0859C-3.65815 39.0656 -0.316427 39.0505 3.02546 39.0386C3.97992 39.0323 4.93438 39.0259 5.91776 39.0194C6.82428 39.017 7.73079 39.0145 8.66477 39.012C9.92481 39.0061 9.92481 39.0061 11.2103 39C13.1478 39.0859 13.1478 39.0859 13.9227 39.8425C13.9903 41.1897 14.0056 42.5395 13.9984 43.8883C13.9964 44.6237 13.9945 45.3591 13.9925 46.1168C13.9854 47.0579 13.9784 47.9989 13.9711 48.9685C13.9551 51.9489 13.9392 54.9293 13.9227 58C7.0182 58 0.113715 58 -7 58C-7 51.7583 -7 45.5167 -7 39.0859Z" fill="#FEFEFE"/>
<path d="M33.1525 60C33.2469 60.4859 33.3413 60.9718 33.4386 61.4725C33.5959 61.9898 33.7532 62.507 33.9153 63.04C34.4186 63.2908 34.922 63.5416 35.4407 63.8C34.6856 63.8 33.9305 63.8 33.1525 63.8C33.1525 64.8032 33.1525 65.8064 33.1525 66.84C33.7873 66.8356 34.4221 66.8312 35.0761 66.8266C41.9125 66.8002 48.7253 66.9635 55.5572 67.22C56.5741 67.2568 57.5911 67.2934 58.6081 67.3298C61.0552 67.4182 63.5022 67.5083 65.9492 67.6C66.3267 69.481 66.3267 69.481 66.7119 71.4C54.6305 71.6508 42.5492 71.9016 30.1017 72.16C30.1017 73.1632 30.1017 74.1664 30.1017 75.2C42.6864 75.2 55.2712 75.2 68.2373 75.2C68.6148 75.9524 68.6148 75.9524 69 76.72C55.4085 76.72 41.817 76.72 27.8136 76.72C27.8136 77.4724 27.8136 78.2248 27.8136 79C26.5551 79 25.2966 79 24 79C24.3452 77.9061 24.6958 76.8139 25.0487 75.7225C25.2434 75.1141 25.4381 74.5057 25.6386 73.8789C26.2881 72.16 26.2881 72.16 27.8136 69.88C28.1889 68.7641 28.5368 67.6388 28.8623 66.5075C29.7747 63.6449 30.7365 61.9093 33.1525 60Z" fill="#D5D6D4"/>
<path d="M91.6302 25.0152C92.3535 25.0223 93.0768 25.0294 93.822 25.0367C94.5683 25.0552 95.3145 25.0737 96.0833 25.0928C97.2242 25.1077 97.2242 25.1077 98.388 25.1229C100.259 25.1489 102.129 25.1851 104 25.2307C104 25.9589 104 26.6871 104 27.4374C103.267 27.8015 103.267 27.8015 102.519 28.173C103.007 31.0859 103.496 33.9988 104 37C97.4 37 90.8 37 84 37C84 33.8444 84 30.6887 84 27.4374C88.1667 24.9548 88.1667 24.9548 91.6302 25.0152Z" fill="#266A75"/>
<path d="M40 27.0856C42.8223 27.07 45.6446 27.0545 48.5525 27.0385C49.4435 27.0316 50.3346 27.0247 51.2527 27.0177C52.2974 27.0148 52.2974 27.0148 53.3632 27.012C54.0798 27.008 54.7964 27.0041 55.5347 27C57.1984 27.0856 57.1984 27.0856 57.9461 27.8396C57.9998 28.9852 58.0089 30.1331 57.9929 31.2798C57.9861 31.9028 57.9794 32.5258 57.9724 33.1677C57.9637 33.6489 57.9551 34.13 57.9461 34.6257C57.6994 34.6257 57.4526 34.6257 57.1984 34.6257C56.9516 42.3392 56.7049 50.0527 56.4506 58C56.2039 58 55.9571 58 55.7029 58C55.7029 50.5353 55.7029 43.0706 55.7029 35.3797C51.2612 35.3797 46.8195 35.3797 42.2433 35.3797C42.7368 34.8821 43.2303 34.3844 43.7388 33.8717C42.7517 33.6229 41.7647 33.374 40.7478 33.1177C40.9945 33.6153 41.2413 34.113 41.4955 34.6257C41.5597 36.3781 41.5756 38.1325 41.5685 39.8861C41.5669 40.6611 41.5669 40.6611 41.5653 41.4518C41.5611 43.1036 41.5518 44.7553 41.5422 46.4071C41.5385 47.5263 41.5351 48.6456 41.532 49.7648C41.5238 52.5099 41.5109 55.2549 41.4955 58C41.002 58 40.5085 58 40 58C40 47.7982 40 37.5965 40 27.0856Z" fill="#3E2D1C"/>
<path d="M19.0333 1C20.3178 1.21725 21.597 1.46923 22.8667 1.7595C22.8667 2.76203 22.8667 3.76457 22.8667 4.79749C24.8907 4.79749 26.9147 4.79749 29 4.79749C28.747 5.80003 28.494 6.80256 28.2333 7.83548C27.4743 7.83548 26.7153 7.83548 25.9333 7.83548C25.8582 8.29563 25.7831 8.75578 25.7057 9.22987C24.8245 14.1215 23.3446 18.4795 21.3333 23.0254C20.5901 23.0098 19.847 22.9941 19.0812 22.978C16.8294 22.7549 16.8294 22.7549 15.9667 23.7849C12.7903 24.1168 9.97521 24.2459 7.10208 22.7881C6 21.5064 6 21.5064 6 19.2279C8.53 19.2279 11.06 19.2279 13.6667 19.2279C18.5116 11.0227 18.5116 11.0227 18.2667 1.7595C18.5197 1.50886 18.7727 1.25823 19.0333 1Z" fill="#25656F"/>
<path d="M41 33C45.62 33 50.24 33 55 33C55 33.25 55 33.5 55 33.7576C48.7995 34.1326 48.7995 34.1326 42.4737 34.5152C42.7168 35.0152 42.96 35.5152 43.2105 36.0303C45.1558 36.2803 47.1011 36.5303 49.1053 36.7879C49.1053 43.7879 49.1053 50.7879 49.1053 58C46.6737 58 44.2421 58 41.7368 58C41.4937 49.75 41.2505 41.5 41 33Z" fill="#6C4A36"/>
<path d="M15.5217 25.2586C17.4668 24.9902 17.4668 24.9902 19.9551 25.0052C20.8842 25.0054 21.8133 25.0055 22.7705 25.0057C23.7881 25.0171 24.8057 25.0288 25.8232 25.0406C26.8616 25.0448 27.9 25.048 28.9385 25.0502C31.6729 25.0587 34.4072 25.0807 37.1416 25.1053C39.9312 25.1282 42.721 25.1384 45.5107 25.1496C50.9855 25.1736 56.4601 25.2117 61.9348 25.2586C61.9348 25.7497 61.9348 26.2409 61.9348 26.7469C69.2163 26.7469 76.4978 26.7469 84 26.7469C84 26.9924 84 27.238 84 27.491C76.4674 27.491 68.9348 27.491 61.1739 27.491C61.1739 37.559 61.1739 47.6269 61.1739 58C60.6717 58 60.1696 58 59.6522 58C59.6522 47.932 59.6522 37.8641 59.6522 27.491C53.1239 27.491 46.5957 27.491 39.8696 27.491C39.8696 28.9644 39.8696 30.4377 39.8696 31.9557C39.4929 30.4824 39.4929 30.4824 39.1087 28.9792C38.6065 28.9792 38.1043 28.9792 37.587 28.9792C37.587 28.4881 37.587 27.997 37.587 27.491C29.8033 27.491 22.0196 27.491 14 27.491C14.5022 26.7543 15.0043 26.0176 15.5217 25.2586Z" fill="#765C4D"/>
<path d="M42 35C46.62 35 51.24 35 56 35C56 42.59 56 50.18 56 58C53.69 58 51.38 58 49 58C49 50.916 49 43.832 49 36.5333C46.9467 36.5333 44.8933 36.5333 42.7778 36.5333C42.5211 36.0273 42.2644 35.5213 42 35Z" fill="#2D1F13"/>
<path d="M62.4762 30C62.7276 30 62.979 30 63.2381 30C63.2341 30.9201 63.2301 31.8403 63.226 32.7883C63.2122 36.2042 63.2035 39.6201 63.1962 43.036C63.1924 44.514 63.1872 45.9921 63.1806 47.4701C63.1714 49.5954 63.1671 51.7206 63.1637 53.8459C63.1598 54.506 63.1558 55.1662 63.1518 55.8463C63.1517 56.4649 63.1517 57.0835 63.1516 57.7208C63.1499 58.2631 63.1482 58.8053 63.1465 59.364C63.2078 61.1889 63.2078 61.1889 64 64C54.1943 64 44.3886 64 34.2857 64C33.9086 62.8525 33.9086 62.8525 33.5238 61.6818C32.7695 62.0643 32.7695 62.0643 32 62.4545C32.2514 61.1795 32.5029 59.9045 32.7619 58.5909C35.0248 58.2084 35.0248 58.2084 37.3333 57.8182C37.3333 58.3282 37.3333 58.8382 37.3333 59.3636C45.6305 59.3636 53.9276 59.3636 62.4762 59.3636C62.4762 49.6736 62.4762 39.9836 62.4762 30Z" fill="#D3D1CE"/>
<path d="M-6 25C0.313215 25 6.62643 25 13.131 25C14.28 27.2524 13.9672 29.343 13.944 31.8438C13.9371 32.8047 13.9302 33.7657 13.9231 34.7559C13.9142 35.4964 13.9053 36.237 13.8962 37C11.876 37 9.85573 37 7.77429 37C9.03693 33.7825 10.2996 30.565 11.6005 27.25C10.8429 27.4975 10.0853 27.745 9.30476 28C8.34573 30.0889 8.34573 30.0889 7.6308 32.5469C7.36743 33.3754 7.10405 34.204 6.83269 35.0576C6.54119 36.0191 6.54119 36.0191 6.24381 37C4.22358 37 2.20335 37 0.121905 37C0.626963 36.7525 1.13202 36.505 1.65238 36.25C1.92664 34.5028 2.17924 32.7523 2.41762 31C3.23069 28.7969 3.23069 28.7969 3.9481 27.25C3.19051 27.25 2.43292 27.25 1.65238 27.25C1.53401 28.2245 1.53401 28.2245 1.41324 29.2188C0.861138 31.8751 -0.0856522 33.8823 -1.40857 36.25C-2.26853 33.7717 -2.09388 32.462 -1.07378 30.0625C-0.853803 29.5327 -0.633827 29.0029 -0.407185 28.457C-0.145285 27.8596 -0.145285 27.8596 0.121905 27.25C-0.63568 27.25 -1.39327 27.25 -2.17381 27.25C-2.29218 28.2709 -2.29218 28.2709 -2.41295 29.3125C-2.94222 31.7647 -3.56758 32.9029 -5.23476 34.75C-4.84669 31.9608 -4.38069 29.6991 -2.93905 27.25C-3.69663 27.6213 -3.69663 27.6213 -4.46952 28C-4.97118 29.8955 -4.97118 29.8955 -5.23476 31.75C-5.48729 31.75 -5.73982 31.75 -6 31.75C-6 29.5225 -6 27.295 -6 25Z" fill="#22646F"/>
<path d="M10 23C35.4876 23 60.9753 23 87.2353 23C87.6138 24.1787 87.6138 24.1787 88 25.3812C84.845 26.9633 82.4325 27.1092 78.952 26.9501C77.9638 26.9092 76.9755 26.8682 75.9574 26.8261C74.9213 26.7746 73.8853 26.7229 72.8493 26.671C71.7983 26.6248 70.7474 26.5793 69.6963 26.5346C67.1305 26.4225 64.5652 26.3023 62 26.1749C62 25.6511 62 25.1272 62 24.5875C55.9575 24.6544 49.9151 24.7297 43.8728 24.8157C41.0672 24.8554 38.2615 24.8921 35.4558 24.9223C32.7485 24.9516 30.0413 24.9884 27.3341 25.0304C25.7978 25.0523 24.2614 25.0664 22.7249 25.0803C21.7912 25.0961 20.8575 25.1119 19.8954 25.1281C19.0719 25.1387 18.2483 25.1493 17.3997 25.1602C15.1812 25.2331 15.1812 25.2331 13.0588 26.9687C12.8065 26.1829 12.5541 25.3971 12.2941 24.5875C11.5371 24.5875 10.78 24.5875 10 24.5875C10 24.0636 10 23.5397 10 23Z" fill="#56544D"/>
<path d="M67 34C70.96 34 74.92 34 79 34C79 38.29 79 42.58 79 47C75.04 47 71.08 47 67 47C67 42.71 67 38.42 67 34Z" fill="#7D6352"/>
<path d="M20 34C23.96 34 27.92 34 32 34C32 38.29 32 42.58 32 47C28.04 47 24.08 47 20 47C20 42.71 20 38.42 20 34Z" fill="#7C6352"/>
<path d="M73 7C73.7543 7 74.5086 7 75.2857 7C76.3986 9.05173 76.8095 10.0182 76.8095 12.425C77.3124 12.425 77.8152 12.425 78.3333 12.425C78.3333 11.1462 78.3333 9.8675 78.3333 8.55C79.968 11.0441 81.3419 13.6177 82.7381 16.2546C83.6348 17.9459 83.6348 17.9459 85.1905 19.4C86.7091 19.4184 86.7091 19.4184 88.3333 19.1094C89.3076 18.9495 90.2819 18.7897 91.2857 18.625C90.8488 20.8471 90.6294 21.6176 89 23.275C94.28 23.5307 99.56 23.7865 105 24.05C105 28.6535 105 33.257 105 38C97.96 38 90.92 38 83.6667 38C83.6667 37.7442 83.6667 37.4885 83.6667 37.225C90.2038 36.9692 96.741 36.7135 103.476 36.45C102.973 33.381 102.47 30.312 101.952 27.15C102.707 27.15 103.461 27.15 104.238 27.15C104.238 26.3827 104.238 25.6155 104.238 24.825C98.4552 24.825 92.6724 24.825 86.7143 24.825C86.7143 24.3135 86.7143 23.802 86.7143 23.275C84.4514 23.275 82.1886 23.275 79.8571 23.275C74.0153 12.8522 74.0153 12.8522 73 7Z" fill="#3C777F"/>
<path d="M37 27C37.25 27.5029 37.5 28.0057 37.7576 28.5238C38.2576 28.5238 38.7576 28.5238 39.2727 28.5238C40.2602 31.5342 40.1259 34.572 40.1043 37.7024C40.1032 38.29 40.1021 38.8775 40.101 39.4829C40.0968 41.3537 40.0873 43.2245 40.0777 45.0952C40.0739 46.3661 40.0704 47.6369 40.0673 48.9077C40.0596 52.0179 40.0448 55.1279 40.0303 58.2381C47.0303 58.2381 54.0303 58.2381 61.2424 58.2381C61.2424 47.9295 61.2424 37.621 61.2424 27C61.4924 27 61.7424 27 62 27C62 37.56 62 48.12 62 59C53.75 59 45.5 59 37 59C37 48.44 37 37.88 37 27Z" fill="#846759"/>
<path d="M9.2963 23C9.54074 23.5211 9.78518 24.0421 10.037 24.5789C4.65926 24.5789 -0.718519 24.5789 -6.25926 24.5789C-6.01481 25.6211 -5.77037 26.6632 -5.51852 27.7368C-4.78519 27.4763 -4.05185 27.2158 -3.2963 26.9474C-3.78519 29.0316 -4.27407 31.1158 -4.77778 33.2632C-4.04444 31.1789 -3.31111 29.0947 -2.55556 26.9474C-1.82222 26.9474 -1.08889 26.9474 -0.333334 26.9474C-0.455556 27.5498 -0.577778 28.1523 -0.703704 28.773C-1.14182 30.9231 -1.14182 30.9231 -1.07407 33.2632C-0.340741 31.1789 0.392592 29.0947 1.14815 26.9474C1.88148 26.9474 2.61481 26.9474 3.37037 26.9474C2.82037 30.1714 2.01538 33.2785 1.14815 36.4211C2.61481 36.6816 4.08148 36.9421 5.59259 37.2105C6.32593 34.0842 7.05926 30.9579 7.81481 27.7368C8.79259 27.4763 9.77037 27.2158 10.7778 26.9474C10.2852 30.4123 9.15735 33.2483 7.81481 36.4211C9.52593 36.6816 11.237 36.9421 13 37.2105C13 37.4711 13 37.7316 13 38C6.4 38 -0.2 38 -7 38C-7 33.3105 -7 28.6211 -7 23.7895C-1.62222 23.5289 3.75556 23.2684 9.2963 23Z" fill="#45828A"/>
<path d="M30 73C42.2892 73 54.5784 73 67.24 73C67.6162 74.485 67.6162 74.485 68 76C55.46 76 42.92 76 30 76C30 75.01 30 74.02 30 73Z" fill="#A7A7A6"/>
<path d="M33 64C43.3086 64 53.6171 64 64.2381 64C64.6152 65.485 64.6152 65.485 65 67C54.44 67 43.88 67 33 67C33 66.01 33 65.02 33 64Z" fill="#A7A8A6"/>
<path d="M29 77C42.53 77 56.06 77 70 77C70 77.66 70 78.32 70 79C56.47 79 42.94 79 29 79C29 78.34 29 77.68 29 77Z" fill="#9CA29E"/>
<path d="M13.4828 27C21.2434 27 29.0041 27 37 27C37 37.0571 37 47.1143 37 57.4762C36.7497 57.4762 36.4993 57.4762 36.2414 57.4762C36.2414 47.6705 36.2414 37.8648 36.2414 27.7619C28.9814 27.7619 21.7214 27.7619 14.2414 27.7619C14.2414 37.819 14.2414 47.8762 14.2414 58.2381C20.2497 58.2381 26.2579 58.2381 32.4483 58.2381C32.4483 58.4895 32.4483 58.741 32.4483 59C19.4303 59 6.41241 59 -7 59C-7 58.7486 -7 58.4971 -7 58.2381C-0.24069 58.2381 6.51862 58.2381 13.4828 58.2381C13.4828 47.9295 13.4828 37.621 13.4828 27Z" fill="#D3D1CE"/>
<path d="M57.75 27C58.4925 27 59.235 27 60 27C60 37.23 60 47.46 60 58C59.01 58 58.02 58 57 58C57 50.0156 57 42.0312 57 33.8049C57.2475 33.8049 57.495 33.8049 57.75 33.8049C57.75 31.5593 57.75 29.3137 57.75 27Z" fill="#704B39"/>
<path d="M54.8333 8C55.3833 8 55.9333 8 56.5 8C57.325 12.95 58.15 17.9 59 23C57.35 23 55.7 23 54 23C54.275 18.05 54.55 13.1 54.8333 8Z" fill="#317882"/>
</g>
<defs>
<clipPath id="clip0_4137_7596">
<rect width="100" height="80" fill="white"/>
</clipPath>
</defs>
</svg>
