<svg width="100" height="80" viewBox="0 0 100 80" fill="none" xmlns="http://www.w3.org/2000/svg">
<path d="M47.0467 4.1905C50.0184 6.01704 50.8942 8.61515 52.3037 11.7072C53.94 15.213 55.1173 16.5204 58.6463 17.8915C59.8318 18.4595 59.8318 18.4595 61.0935 20.3281C61.7944 22.3728 62.3616 24.4078 62.8362 26.5177C63.2216 28.0746 63.72 29.5588 64.2477 31.0723C64.9032 32.9891 65.2778 34.5556 65.5514 36.593C65.776 38.8801 65.776 38.8801 66.8972 40.8822C68.029 43.1679 68.2379 45.1644 68.5794 47.677C69.0236 47.9012 69.4677 48.1254 69.9252 48.3565C70.3879 49.6729 70.3879 49.6729 70.5981 51.0744C70.3761 51.5228 70.154 51.9713 69.9252 52.4333C70.3693 52.6575 70.8135 52.8818 71.271 53.1128C71.7021 54.2833 71.7021 54.2833 72.1122 55.8732C73.1579 59.6454 74.5107 63.2592 75.9347 66.8989C76.9485 69.545 77.645 72.0406 78 74.856C75.5574 74.856 73.1148 74.856 70.5981 74.856C70.3709 74.299 70.1436 73.7419 69.9095 73.168C69.4593 72.0696 69.4593 72.0696 69 70.9491C68.555 69.8612 68.555 69.8612 68.1011 68.7514C67.4133 67.1266 66.6939 65.5514 65.8879 63.9844C65.6658 64.4329 65.4437 64.8813 65.215 65.3434C63.1445 60.9947 63.1445 60.9947 63.4065 58.9308C63.5592 58.5805 63.7119 58.2301 63.8692 57.8691C62.8699 57.5328 62.8699 57.5328 61.8505 57.1897C61.301 55.5945 60.8883 54.0718 60.5047 52.4333C59.0518 46.7009 57.2794 41.0972 55.4159 35.4889C55.1474 34.6704 54.879 33.8518 54.6024 33.0085C54.2127 31.8307 54.2127 31.8307 53.8151 30.629C53.5813 29.9222 53.3475 29.2155 53.1066 28.4873C52.0392 25.197 52.0392 25.197 49.5701 23.046C46.7673 22.2741 44.6701 22.1801 41.9159 23.1734C37.5202 27.028 36.0702 34.8379 34.1776 40.2027C33.8801 41.0313 33.5825 41.8599 33.276 42.7136C31.735 47.0667 30.4523 51.3002 29.5514 55.8307C29.2519 56.8711 28.9353 57.907 28.5841 58.9308C28.4141 59.4283 28.2441 59.9258 28.0689 60.4384C27.2422 62.7629 26.3865 65.0744 25.514 67.3818C25.0699 67.3818 24.6258 67.3818 24.1682 67.3818C23.9817 67.8644 23.7952 68.347 23.6031 68.8443C23.3594 69.4688 23.1156 70.0933 22.8645 70.7367C22.6225 71.3595 22.3805 71.9822 22.1311 72.6239C21.4766 74.1766 21.4766 74.1766 20.8037 74.856C19.7037 74.9152 18.6013 74.9288 17.4997 74.9224C16.834 74.9202 16.1682 74.918 15.4823 74.9158C14.7819 74.9101 14.0815 74.9044 13.3598 74.8985C12.6568 74.8954 11.9537 74.8924 11.2294 74.8892C9.48624 74.8812 7.74314 74.87 6 74.856C6.35608 71.0848 7.0698 67.7789 8.43925 64.2392C8.6142 63.7771 8.78914 63.3151 8.96939 62.839C13.6179 50.8562 13.6179 50.8562 16.0935 48.3565C18.1122 48.2601 20.1292 48.3277 22.1495 48.3565C22.2223 47.9439 22.2952 47.5313 22.3702 47.1062C23.1527 42.897 24.2411 38.9025 25.5929 34.8466C25.7937 34.2356 25.9945 33.6247 26.2014 32.9953C26.6236 31.7145 27.0478 30.4344 27.4739 29.155C28.1208 27.21 28.7589 25.2622 29.3963 23.314C29.8102 22.062 30.2246 20.8101 30.6396 19.5583C30.9215 18.6961 30.9215 18.6961 31.2091 17.8163C34.0983 9.19859 36.7613 2.48361 47.0467 4.1905Z" fill="#549091"/>
<path d="M48.3924 24.4406C50.7072 26.9197 51.8908 29.3934 53.0918 32.5428C53.4449 33.4562 53.7983 34.3695 54.1518 35.2827C54.3295 35.7475 54.5071 36.2123 54.6902 36.6913C55.5416 38.9008 56.4336 41.0938 57.3212 43.289C59.1727 47.9069 60.9722 52.5428 62.7468 57.1908C63.198 56.9656 63.6491 56.7404 64.1139 56.5085C64.8829 59.0671 64.8829 59.0671 64.1139 60.6022C64.5754 62.3794 64.5754 62.3794 65.481 64.0137C66.4961 64.3514 66.4961 64.3514 67.5316 64.696C68.306 66.1592 68.306 66.1592 68.9842 67.9796C69.3252 68.8727 69.3252 68.8727 69.6731 69.7839C70.2658 71.519 70.2658 71.519 70.5595 73.0195C70.8943 74.5199 70.8943 74.5199 73 75.6127C71.1049 75.7048 69.2143 75.7724 67.318 75.8259C66.781 75.8545 66.2439 75.8831 65.6906 75.9126C64.1858 75.9445 62.8523 75.9267 61.3797 75.6127C59.5517 73.5484 58.9183 71.1909 58.1329 68.5766C56.8594 64.6113 55.2733 60.8594 53.5726 57.0643C52.1618 53.9161 50.8517 50.7467 49.6393 47.516C49.104 46.1417 49.104 46.1417 47.7089 44.9094C45.7472 44.3398 45.7472 44.3398 43.6076 44.9094C40.8666 48.1359 39.296 52.2006 37.8402 56.1247C37.6409 56.648 37.4417 57.1713 37.2364 57.7105C35.4457 62.4487 33.7595 67.2242 32.0995 72.0094C31.3038 74.2481 31.3038 74.2481 30.6203 75.6127C26.7856 75.6127 22.9509 75.6127 19 75.6127C19.9023 74.2618 20.8046 72.9108 21.7342 71.519C22.4552 69.9765 22.4552 69.9765 22.9304 68.5339C23.2123 67.7177 23.4943 66.9015 23.7848 66.0606C24.2359 66.0606 24.6871 66.0606 25.1519 66.0606C25.3996 65.3872 25.6473 64.7138 25.9025 64.02C26.8402 61.4733 27.7812 58.9277 28.7232 56.3825C29.127 55.2899 29.53 54.197 29.932 53.1037C32.477 46.1849 35.1687 39.3763 38.1392 32.6281C38.8371 30.9855 39.5289 29.3406 40.2192 27.6948C42.0838 24.2537 44.6474 23.1642 48.3924 24.4406Z" fill="#72A49D"/>
<path d="M45.625 43.9238C47.6667 44.2572 47.6667 44.2572 49.125 45.5905C50.2656 47.4783 50.9907 49.318 51.7459 51.3809C53.051 54.8091 54.5815 58.15 56.0638 61.5046C57.9958 65.9458 59.4528 70.2821 61 74.9238C51.1 74.9238 41.2 74.9238 31 74.9238C33.2507 66.6714 36.0983 58.8903 39.4583 51.0488C39.6485 50.5984 39.8386 50.1479 40.0345 49.6838C42.3062 44.4887 42.3062 44.4887 45.625 43.9238Z" fill="#9DBFAE"/>
<path d="M74.9301 30.235C81.0144 34.0681 82.4659 41.6366 84.5319 48.2146C85.0448 49.836 85.5593 51.4569 86.0758 53.0771C86.2998 53.7891 86.5237 54.5011 86.7545 55.2346C87.3106 56.8486 87.9579 58.2904 88.7173 59.809C89.0728 61.1319 89.3992 62.4632 89.7021 63.7998C90.1637 65.8314 90.6219 67.7145 91.405 69.6416C92 71.2353 92 71.2353 92 73.9238C89.8334 73.9238 87.6669 73.9238 85.4347 73.9238C85.0013 72.8148 84.568 71.7058 84.1216 70.5631C83.6883 70.5631 83.255 70.5631 82.8085 70.5631C82.5603 69.8477 82.312 69.1324 82.0563 68.3953C81.1311 65.7321 80.2014 63.0707 79.2702 60.4097C78.8684 59.2595 78.4679 58.1089 78.0687 56.9578C77.4934 55.2998 76.9136 53.6435 76.3329 51.9875C76.1564 51.4756 75.9799 50.9636 75.798 50.4362C74.4227 46.5282 74.4227 46.5282 72.304 43.0055C71.5592 42.9362 70.8144 42.8669 70.0471 42.7955C67.7082 42.3334 67.7082 42.3334 66.8029 41.2464C65.6238 39.0172 65.0957 37.319 65 34.7719C66.7159 30.4777 70.7697 29.2724 74.9301 30.235Z" fill="#46878B"/>
<path d="M69.6086 41.9238C71.7895 42.2219 71.7895 42.2219 73.1652 43.9427C74.7009 46.4198 75.6537 49.0295 76.5896 51.7759C76.768 52.2843 76.9464 52.7926 77.1301 53.3164C77.6931 54.9248 78.248 56.5358 78.8026 58.1471C79.1852 59.2446 79.5683 60.3419 79.9519 61.4391C80.8863 64.1151 81.8135 66.7936 82.7368 69.4735C83.4142 69.1363 83.4142 69.1363 84.1053 68.7922C84.1053 69.4667 84.1053 70.1412 84.1053 70.8361C84.5568 71.0609 85.0084 71.2857 85.4737 71.5174C85.4737 72.4167 85.4737 73.316 85.4737 74.2425C87.7316 74.2425 89.9895 74.2425 92.3158 74.2425C92.6545 73.5681 92.6545 73.5681 93 72.88C93 73.5544 93 74.2289 93 74.9238C88.0326 74.9238 83.0653 74.9238 77.9474 74.9238C77.27 72.9004 76.5926 70.877 75.8947 68.7922C75.4552 67.6014 75.0071 66.4137 74.545 65.2314C74.3109 64.6272 74.0767 64.023 73.8354 63.4004C73.3531 62.1636 72.8702 60.927 72.3868 59.6906C69.853 53.1469 69.853 53.1469 69.0526 49.7161C69.2784 49.2664 69.5042 48.8168 69.7368 48.3535C69.0595 48.1287 68.3821 47.9039 67.6842 47.6722C67.4238 46.0875 67.1966 44.497 67 42.9032C67.6842 42.2219 67.6842 42.2219 69.6086 41.9238Z" fill="#649B99"/>
<path d="M47.6651 22.1012C50.9644 23.4416 52.2065 25.7931 53.7307 28.8657C54.4501 30.6063 55.0538 32.3739 55.6393 34.1637C55.8017 34.6493 55.964 35.1349 56.1313 35.6352C56.4695 36.6513 56.8052 37.6683 57.1385 38.686C57.6513 40.2486 58.175 41.8073 58.6998 43.3659C59.0282 44.357 59.356 45.3483 59.6831 46.3399C59.8403 46.8063 59.9975 47.2728 60.1594 47.7534C61.2217 51.0331 61.2217 51.0331 60.4702 52.5416C58.8278 48.9275 57.2946 45.2842 55.8368 41.5915C55.3134 40.2753 54.7889 38.9596 54.2638 37.6441C53.9069 36.7487 53.5515 35.8527 53.1976 34.9561C52.6813 33.6553 52.1543 32.3595 51.6246 31.0642C51.1632 29.9184 51.1632 29.9184 50.6926 28.7495C49.6532 26.7723 48.9312 25.8733 46.9911 24.807C44.9038 24.8925 43.5213 25.006 41.8884 26.3646C40.8332 27.6229 40.3068 28.7119 39.7145 30.2424C39.5017 30.7844 39.289 31.3263 39.0698 31.8847C38.8482 32.465 38.6265 33.0453 38.3981 33.6432C38.1652 34.2401 37.9323 34.8369 37.6923 35.4519C36.9673 37.3131 36.2498 39.1771 35.5338 41.0419C34.8691 42.7654 34.2037 44.4886 33.5376 46.2116C33.136 47.2525 32.7362 48.2941 32.3385 49.3365C31.4752 51.5872 30.6051 53.7967 29.4682 55.9238C28.5488 54.0781 29.1634 53.0517 29.7791 51.1703C29.9362 50.7081 30.0934 50.2459 30.2554 49.7697C30.4145 49.2906 30.5736 48.8114 30.7375 48.3178C31.0769 47.2997 31.4187 46.2824 31.7627 45.2659C32.2821 43.73 32.793 42.1914 33.3027 40.6521C39.6978 21.474 39.6978 21.474 47.6651 22.1012Z" fill="#397B7F"/>
</svg>
