<svg width="100" height="80" viewBox="0 0 100 80" fill="none" xmlns="http://www.w3.org/2000/svg">
<path d="M32.2941 7C36.1177 8.27451 36.1177 8.27451 37.3922 10.8235C45.8039 11.2441 54.2157 11.6647 62.8824 12.098C63.303 10.4157 63.7235 8.73333 64.1569 7C65.4186 7 66.6804 7 67.9804 7C67.8753 8.55092 67.7701 10.1018 67.6618 11.6998C67.6834 15.7606 68.0221 17.2762 69.9718 21.0196C74.1057 24.4115 76.797 24.0689 82 23.5686C81.3551 26.3327 80.7257 28.6663 79.451 31.2157C71.1717 31.3125 62.8925 31.3796 54.6127 31.4257C51.7952 31.445 48.9777 31.4711 46.1603 31.5041C42.114 31.5504 38.0682 31.5722 34.0217 31.5891C32.759 31.6088 31.4963 31.6286 30.1954 31.6489C29.0219 31.6492 27.8485 31.6495 26.6394 31.6498C25.6064 31.6583 24.5734 31.6667 23.5091 31.6755C20.2092 31.1105 19.0903 29.9365 17 27.3922C17.4206 26.1304 17.8412 24.8686 18.2745 23.5686C19.4048 23.7264 20.5352 23.8841 21.6998 24.0466C26.2058 23.9478 26.2058 23.9478 29.5858 20.3027C32.8143 15.9808 32.8284 12.343 32.2941 7Z" fill="#56524B"/>
<path d="M33.5694 32.4912C36.0929 32.4912 38.6164 32.4912 41.2164 32.4912C41.2164 34.5942 41.2164 36.6971 41.2164 38.8638C44.5811 38.8638 47.9459 38.8638 51.4125 38.8638C51.4125 39.2844 51.4125 39.7049 51.4125 40.1383C48.889 40.5589 46.3655 40.9794 43.7655 41.4128C43.3449 48.9834 42.9243 56.554 42.4909 64.354C47.1174 64.354 51.7439 64.354 56.5106 64.354C56.5106 63.5128 56.5106 62.6716 56.5106 61.8049C59.4547 61.3844 62.3988 60.9638 65.4321 60.5304C64.8013 62.4231 64.8013 62.4231 64.1576 64.354C60.2576 64.354 67.9429 64.354 64.1576 64.354C64.1576 65.2206 64.1576 63.5128 64.1576 64.354C65.891 64.7873 62.4753 63.9334 64.1576 64.354C61.991 64.354 66.2606 64.354 64.1576 64.354C64.1576 62.6206 64.1576 66.0363 64.1576 64.354C63.291 63.9206 64.9988 64.7746 64.1576 64.354C43.9694 64.354 54.3693 64.354 33.5693 64.354C33.5693 53.8393 33.5694 43.3245 33.5694 32.4912Z" fill="#B4A797"/>
<path d="M18 64C38.6088 64 59.2177 64 80.451 64C80.451 65.6824 80.451 67.3647 80.451 69.098C59.8422 69.098 39.2333 69.098 18 69.098C18 67.4157 18 65.7333 18 64Z" fill="#84796B"/>
<path d="M43.7646 41.4111C47.1294 41.4111 50.4941 41.4111 53.9607 41.4111C55.2352 42.6856 55.2352 42.6856 55.3597 47.2709C55.3512 49.1678 55.336 51.0646 55.3149 52.9614C55.3091 53.9282 55.3034 54.8951 55.2975 55.8913C55.2824 58.2868 55.2595 60.6823 55.2352 63.0778C51.4499 63.0778 47.6646 63.0778 43.7646 63.0778C43.7646 55.9278 43.7646 48.7778 43.7646 41.4111Z" fill="#281C16"/>
<path d="M41.2158 31.2158C49.207 31.2158 57.1982 31.2158 65.4315 31.2158C65.4315 31.6364 65.4315 32.057 65.4315 32.4903C63.3286 32.4903 61.2256 32.4903 59.059 32.4903C59.059 35.0139 59.059 37.5374 59.059 40.1374C57.7972 40.7683 57.7972 40.7683 56.5099 41.4119C56.5099 48.9825 56.5099 56.5531 56.5099 64.3531C51.8835 64.3531 47.257 64.3531 42.4903 64.3531C42.4561 60.556 42.4307 56.7593 42.4107 52.9622C42.4 51.8786 42.3893 50.7951 42.3783 49.6788C42.3742 48.6479 42.3701 47.6169 42.3659 46.5548C42.3559 45.1231 42.3559 45.1231 42.3456 43.6625C42.4903 41.4119 42.4903 41.4119 43.7648 40.1374C42.9237 39.7168 42.0825 39.2962 41.2158 38.8629C41.2158 36.3394 41.2158 33.8158 41.2158 31.2158ZM43.7648 41.4119C43.7648 48.5619 43.7648 55.7119 43.7648 63.0786C47.5501 63.0786 51.3354 63.0786 55.2354 63.0786C55.2696 59.7063 55.295 56.3345 55.3151 52.9622C55.3258 52.0002 55.3364 51.0383 55.3475 50.0472C55.3585 47.5933 55.302 45.1394 55.2354 42.6864C54.8148 42.2658 54.3943 41.8452 53.9609 41.4119C50.5962 41.4119 47.2315 41.4119 43.7648 41.4119Z" fill="#7D7367"/>
<path d="M59.0589 32.4912C61.1618 32.4912 63.2648 32.4912 65.4314 32.4912C65.4314 41.7442 65.4314 50.9971 65.4314 60.5304C62.4873 60.951 59.5432 61.3716 56.5099 61.8049C56.0893 54.6549 55.6687 47.5049 55.2354 40.1383C56.4971 40.1383 57.7589 40.1383 59.0589 40.1383C59.0589 37.6147 59.0589 35.0912 59.0589 32.4912Z" fill="#BFB09F"/>
<path d="M65.4317 31.2158C67.1141 31.2158 68.7964 31.2158 70.5298 31.2158C70.5298 41.3099 70.5298 53.9531 70.5298 64.3531C68.7964 64.3531 72.2121 64.3531 70.5298 64.3531C70.5298 63.4864 70.5298 65.1943 70.5298 64.3531C66.7445 64.3531 68.0572 64.3531 64.1572 64.3531C64.5778 53.4178 64.9984 42.4825 65.4317 31.2158Z" fill="#7D7367"/>
<path d="M29.7455 31.2158C33.5308 31.2158 37.3161 31.2158 41.2161 31.2158C41.2161 31.6364 41.2161 32.057 41.2161 32.4903C38.6926 32.4903 36.169 32.4903 33.569 32.4903C33.569 43.005 33.569 53.5198 33.569 64.3531C30.2043 64.3531 33.2122 64.3531 29.7455 64.3531C29.7455 65.6531 29.7455 63.0913 29.7455 64.3531C27.5789 64.3531 31.8485 64.3531 29.7455 64.3531C29.7455 54.6796 29.7455 41.1825 29.7455 31.2158Z" fill="#7D7367"/>
</svg>
