<svg width="180" height="120" viewBox="0 0 180 120" fill="none" xmlns="http://www.w3.org/2000/svg">
<path d="M65.25 21.75C65.6213 21.75 65.9925 21.75 66.375 21.75C66.375 32.145 66.375 42.54 66.375 53.25C67.4888 53.25 68.6025 53.25 69.75 53.25C69.75 48.0525 69.75 42.855 69.75 37.5C71.235 37.5 72.72 37.5 74.25 37.5C74.25 38.2425 74.25 38.985 74.25 39.75C74.9925 40.4925 75.735 41.235 76.5 42C74.6438 42 72.7875 42 70.875 42C71.0359 49.6946 72.1056 55.4876 75.8188 62.228C78.2391 66.78 80.3168 71.4608 82.4062 76.1719C83.0024 77.4979 83.0024 77.4979 83.6106 78.8506C83.9847 79.6924 84.3587 80.5341 84.7441 81.4014C85.0795 82.1546 85.4149 82.9078 85.7604 83.6838C86.625 85.875 86.625 85.875 87.1644 88.3343C87.4543 89.3444 87.4543 89.3444 87.75 90.375C88.4925 90.7463 89.235 91.1175 90 91.5C90.3141 90.5192 90.6283 89.5384 90.952 88.5279C93.0141 82.526 95.6791 76.8155 98.2969 71.0391C98.8392 69.81 99.3816 68.581 99.9404 67.3147C100.474 66.1379 101.008 64.961 101.558 63.7485C102.038 62.678 102.519 61.6075 103.014 60.5045C105.293 56.6087 107.607 54.7973 111.938 53.5928C116.275 51.3289 117.352 47.6249 119.25 43.2656C123.763 33.0115 123.763 33.0115 129.375 29.625C132.867 28.7579 135.98 28.9121 139.5 29.625C149.79 36.641 152.91 52.3195 156.516 63.5859C157.242 65.8377 157.972 68.0886 158.705 70.3382C159.367 72.3692 160.02 74.4027 160.673 76.4364C162.066 80.4391 163.668 84.2475 165.375 88.125C168.879 96.6408 170.914 104.871 172.125 114C169.155 114 166.185 114 163.125 114C162.382 112.144 161.64 110.288 160.875 108.375C159.761 108.932 159.761 108.932 158.625 109.5C157.303 105.156 156.208 100.889 155.391 96.4219C154.009 89.3537 151.879 82.5837 149.625 75.75C149.363 74.9542 149.101 74.1584 148.832 73.3385C147.985 70.7859 147.12 68.2399 146.25 65.6953C145.984 64.8969 145.717 64.0985 145.443 63.2758C143.705 58.2939 141.718 54.0367 138.375 49.875C136.233 48.7264 136.233 48.7264 133.945 48.6797C133.216 48.597 132.486 48.5144 131.735 48.4292C128.296 48.8967 126.515 50.0022 123.75 52.125C121.788 54.8284 120.118 57.3952 118.477 60.2812C118.003 61.0993 117.53 61.9173 117.043 62.76C112.946 70.0498 109.461 77.5896 106.102 85.2422C105.6 86.3817 105.097 87.5212 104.58 88.6952C104.127 89.7585 103.673 90.8219 103.206 91.9175C102.597 93.3432 102.597 93.3432 101.976 94.7978C100.943 97.1618 100.943 97.1618 102.375 99.375C101.413 101.977 101.413 101.977 99.9141 105C99.434 105.998 98.954 106.995 98.4595 108.023C96.1736 111.502 94.064 112.237 90.2637 113.574C86.5272 114.207 82.8075 114.117 79.0312 114.07C78.2467 114.065 77.4621 114.06 76.6538 114.055C74.7275 114.042 72.8012 114.022 70.875 114C67.0015 107.208 63.5454 100.494 60.7588 93.1875C57.7189 85.0384 57.7189 85.0384 52.875 78C49.5948 77.5309 49.5948 77.5309 46.125 78C43.1015 81.2536 41.6137 84.8747 39.999 88.9731C39.5074 90.2123 39.0158 91.4515 38.5093 92.7283C38.0061 94.0168 37.5028 95.3053 36.9844 96.6328C36.4725 97.9257 35.9605 99.2185 35.4331 100.551C32.7818 107.23 32.7818 107.23 30.375 114C26.836 114.032 23.297 114.053 19.7578 114.07C18.7478 114.08 17.7377 114.089 16.697 114.099C15.2559 114.104 15.2559 114.104 13.7856 114.11C12.896 114.116 12.0064 114.122 11.0899 114.128C9 114 9 114 7.875 112.875C8.30168 104.834 10.9081 97.8695 13.7109 90.375C14.1673 89.1328 14.6237 87.8906 15.0938 86.6108C16.428 82.9869 17.775 79.368 19.125 75.75C19.7963 73.9352 20.4673 72.1203 21.1377 70.3052C22.6927 66.1107 24.2757 61.9278 25.875 57.75C26.2883 56.6696 26.7016 55.5892 27.1274 54.4761C34.2056 36.357 34.2056 36.357 40.5 33C45.5206 32.1221 49.1237 32.0314 53.4858 34.8457C58.2939 39.4626 60.9087 45.198 64.125 51C64.4963 41.3475 64.8675 31.695 65.25 21.75ZM36 57.75C34.2896 60.9887 32.9735 64.2996 31.7109 67.7344C31.3752 68.5798 31.0395 69.4253 30.6936 70.2964C28.4256 76.266 27.4872 81.7598 27 88.125C29.5866 84.9412 31.1663 82.0282 32.5547 78.1758C32.9346 77.1447 33.3146 76.1136 33.7061 75.0513C34.0918 73.9825 34.4776 72.9137 34.875 71.8125C35.6415 69.6889 36.4147 67.5677 37.1953 65.4492C37.5332 64.5117 37.8711 63.5741 38.2192 62.6082C39.4427 59.8473 40.746 57.7577 42.75 55.5C46.6071 54.2422 48.5689 53.9404 52.2773 55.6714C55.5919 58.0908 57.1283 60.4132 59.2031 63.9375C61.3416 67.537 63.2459 70.6933 66.375 73.5C65.6117 63.9585 60.4567 57.6965 54 51C45.3474 46.6737 40.7086 50.8393 36 57.75Z" fill="#599393"/>
<path d="M134.297 51.6332C140.384 54.9664 142.468 61.3607 144.562 67.6645C146.066 72.0559 147.555 76.3423 149.555 80.5316C153.364 88.7293 155.846 97.5391 158.625 106.125C159.368 105.754 160.11 105.383 160.875 105C161.618 107.97 162.36 110.94 163.125 114C158.67 114 154.215 114 149.625 114C149.135 112.64 148.645 111.28 148.14 109.878C144.089 98.7161 139.832 87.7244 135 76.8754C131.353 75.9328 131.353 75.9328 127.125 76.8754C124.156 80.2286 122.331 84.1197 120.375 88.1254C119.818 89.2323 119.262 90.3391 118.689 91.4795C117.006 94.8901 115.378 98.3218 113.766 101.766C113.206 102.949 112.646 104.133 112.069 105.352C110.708 108.232 109.353 111.116 108 114C102.431 114 96.8625 114 91.125 114C91.8675 112.144 92.61 110.288 93.375 108.375C93.7463 109.118 94.1175 109.86 94.5 110.625C95.2425 110.625 95.985 110.625 96.75 110.625C97.2163 109.15 97.2163 109.15 97.6921 107.645C98.9093 104.137 100.313 100.897 101.927 97.5561C102.478 96.4104 103.029 95.2648 103.597 94.0844C104.168 92.9068 104.739 91.7293 105.328 90.516C106.198 88.7105 106.198 88.7105 107.086 86.8686C108.512 83.9107 109.942 80.9548 111.375 78.0004C112.118 78.0004 112.86 78.0004 113.625 78.0004C113.973 76.3646 113.973 76.3646 114.328 74.6957C116.783 66.1396 123.189 58.3863 129.375 52.1254C131.625 51.0004 131.625 51.0004 134.297 51.6332Z" fill="#699F9A"/>
<path d="M77.625 37.5C85.4213 37.5 93.2175 37.5 101.25 37.5C101.25 38.6138 101.25 39.7275 101.25 40.875C103.849 41.2463 106.448 41.6175 109.125 42C109.247 44.1548 109.334 46.3117 109.406 48.4688C109.458 49.6695 109.511 50.8703 109.564 52.1074C109.125 55.5 109.125 55.5 107.057 57.5396C104.217 60.4126 102.928 63.0816 101.272 66.7588C100.682 68.0538 100.093 69.3488 99.4856 70.6831C98.584 72.704 98.584 72.704 97.6641 74.7656C97.0447 76.1357 96.4243 77.5053 95.803 78.8745C94.6708 81.3745 93.5429 83.8765 92.4206 86.3809C91.6438 88.1012 90.8441 89.8118 90 91.5C88.3294 90.9431 88.3294 90.9431 86.625 90.375C85.3814 87.7778 85.3814 87.7778 84.1641 84.2578C81.7582 77.6435 79.0863 71.209 76.2188 64.7812C75.6223 63.4338 75.6223 63.4338 75.0139 62.0591C73.3968 57.9288 73.3968 57.9288 70.875 54.375C70.7937 52.2905 70.7807 50.2031 70.8047 48.1172C70.8149 46.9788 70.825 45.8404 70.8355 44.6675C70.8485 43.7872 70.8616 42.9069 70.875 42C72.7313 41.6287 74.5875 41.2575 76.5 40.875C76.8713 39.7612 77.2425 38.6475 77.625 37.5Z" fill="#D4E8DE"/>
<path d="M131.133 75.0469C135 75.75 135 75.75 136.898 77.8594C137.386 79.0195 137.873 80.1797 138.375 81.375C138.691 82.116 139.007 82.8571 139.333 83.6206C140.57 86.6023 141.724 89.609 142.875 92.625C143.159 93.3577 143.443 94.0904 143.736 94.8453C144.674 97.2668 145.604 99.6915 146.531 102.117C146.836 102.903 147.14 103.689 147.453 104.498C148.713 107.827 149.625 110.41 149.625 114C157.05 114 164.475 114 172.125 114C171.568 110.659 171.568 110.659 171 107.25C173.25 109.5 173.25 109.5 173.25 115.125C142.065 115.125 110.88 115.125 78.75 115.125C79.1213 114.382 79.4925 113.64 79.875 112.875C89.1562 113.246 98.4375 113.617 108 114C109.114 110.659 110.228 107.317 111.375 103.875C112.203 101.949 113.073 100.039 114.007 98.1621C114.484 97.205 114.96 96.2479 115.451 95.2617C116.183 93.8173 116.183 93.8173 116.93 92.3438C117.655 90.8733 117.655 90.8733 118.395 89.373C125.056 76.1131 125.056 76.1131 131.133 75.0469Z" fill="#9CBFAF"/>
<path d="M49.4297 76.3125C52.875 76.875 52.875 76.875 55.3359 79.1953C57.5507 82.7847 59.1317 86.4972 60.75 90.375C61.8739 93.0239 62.9989 95.6723 64.125 98.3203C64.6819 99.6327 65.2388 100.945 65.8125 102.297C66.3694 103.56 66.9263 104.824 67.5 106.125C68.0409 107.379 68.5818 108.634 69.1392 109.926C69.9984 111.386 69.9984 111.386 70.875 112.875C74.9181 113.976 74.9181 113.976 78.75 114C78.75 114.371 78.75 114.742 78.75 115.125C54.99 115.125 31.23 115.125 6.75 115.125C7.12125 113.64 7.4925 112.155 7.875 110.625C8.24625 111.368 8.6175 112.11 9 112.875C9.78891 112.862 10.5778 112.849 11.3906 112.835C17.8438 112.774 23.9938 113.037 30.375 114C30.7774 111.873 30.7774 111.873 31.188 109.702C32.6017 103.353 35.0188 97.5847 37.6172 91.6406C38.0617 90.5878 38.5062 89.5349 38.9641 88.4502C43.7901 77.2724 43.7901 77.2724 49.4297 76.3125Z" fill="#9CBFAF"/>
<path d="M88.5103 12.6408C89.5511 12.6424 90.5919 12.644 91.6642 12.6456C94.9767 12.6519 98.2891 12.666 101.602 12.6803C103.852 12.686 106.103 12.6911 108.354 12.6957C113.861 12.7081 119.368 12.7275 124.875 12.7506C124.226 15.9115 123.771 17.2262 121.624 19.7698C116.436 22.7064 111.858 22.1921 106.009 21.944C104.844 21.9127 103.678 21.8813 102.477 21.849C98.7623 21.7442 95.0496 21.6072 91.3359 21.4694C88.8143 21.3926 86.2925 21.3178 83.7708 21.2453C77.5962 21.063 71.423 20.8544 65.25 20.6256C66.1549 19.9295 67.0598 19.2334 67.9922 18.5163C70.9186 16.4163 70.9186 16.4163 72 13.8756C77.314 12.1958 82.9968 12.6089 88.5103 12.6408Z" fill="#367278"/>
<path d="M67.5 4.875C68.6138 4.875 69.7275 4.875 70.875 4.875C71.2463 5.98875 71.6175 7.1025 72 8.25C89.82 8.80688 89.82 8.80688 108 9.375C108 7.89 108 6.405 108 4.875C109.114 4.875 110.228 4.875 111.375 4.875C111.932 8.77312 111.932 8.77312 112.5 12.75C99.135 13.1213 85.77 13.4925 72 13.875C71.2575 15.36 70.515 16.845 69.75 18.375C69.3787 18.7463 69.0075 19.1175 68.625 19.5C84.2175 19.8713 99.81 20.2425 115.875 20.625C115.132 20.9963 114.39 21.3675 113.625 21.75C113.625 32.5162 113.625 43.2825 113.625 54.375C112.14 54.0037 110.655 53.6325 109.125 53.25C110.239 53.25 111.353 53.25 112.5 53.25C112.5 42.855 112.5 32.46 112.5 21.75C107.014 21.8479 107.014 21.8479 101.417 21.9478C97.865 21.9917 94.313 22.0258 90.7608 22.059C88.2968 22.0872 85.8329 22.1256 83.3692 22.1743C79.8224 22.2428 76.2768 22.2745 72.7295 22.2993C71.6324 22.3283 70.5352 22.3574 69.4049 22.3873C64.3435 22.3894 60.7156 22.2984 56.6263 19.1141C54 16.125 54 16.125 54 12.75C55.3922 12.9588 56.7844 13.1677 58.2188 13.3828C61.6081 13.8155 64.2376 13.9734 67.5 12.75C67.5 10.1513 67.5 7.5525 67.5 4.875Z" fill="#5A6862"/>
<path d="M136.187 47.7481C141.647 50.2482 143.864 55.6877 145.977 61.029C147.846 66.101 149.479 71.2386 151.05 76.4098C151.878 79.1358 152.732 81.8528 153.589 84.5699C154.121 86.2935 154.651 88.0176 155.18 89.7423C155.431 90.5471 155.683 91.352 155.942 92.1813C157.631 97.8584 157.631 97.8584 156.375 101.625C155.924 100.369 155.473 99.1134 155.008 97.8194C152.883 91.9462 150.704 86.0941 148.5 80.2501C147.868 78.5735 147.868 78.5735 147.224 76.863C145.937 73.4829 144.622 70.1155 143.297 66.7501C142.892 65.6826 142.488 64.615 142.071 63.5152C139.729 57.5508 139.729 57.5508 135.255 53.1095C134.428 52.7846 133.602 52.4598 132.75 52.1251C123.29 56.2988 117.906 69.082 113.625 78.0001C112.882 78.0001 112.14 78.0001 111.375 78.0001C111.197 78.6135 111.018 79.227 110.834 79.859C108.778 86.5065 105.942 92.2861 102.375 98.2501C101.632 97.8789 100.89 97.5076 100.125 97.1251C105.291 84.5952 110.489 72.1026 117.281 60.3517C117.717 59.5788 118.152 58.8059 118.601 58.0097C122.641 51.2591 127.876 46.0419 136.187 47.7481Z" fill="#387A7E"/>
<path d="M66.375 22.875C67.86 23.2463 69.345 23.6175 70.875 24C70.875 27.3413 70.875 30.6825 70.875 34.125C83.4975 34.125 96.12 34.125 109.125 34.125C109.125 36.7237 109.125 39.3225 109.125 42C106.526 41.6287 103.928 41.2575 101.25 40.875C101.25 39.7612 101.25 38.6475 101.25 37.5C93.4538 37.5 85.6575 37.5 77.625 37.5C77.625 38.6138 77.625 39.7275 77.625 40.875C75.7688 40.875 73.9125 40.875 72 40.875C72.7425 40.5037 73.485 40.1325 74.25 39.75C74.25 39.0075 74.25 38.265 74.25 37.5C72.765 37.5 71.28 37.5 69.75 37.5C69.75 42.6975 69.75 47.895 69.75 53.25C68.6362 53.25 67.5225 53.25 66.375 53.25C66.375 43.2263 66.375 33.2025 66.375 22.875Z" fill="#755242"/>
<path d="M49.522 49.3434C56.3683 50.9774 60.3308 57.4671 63.9097 63.0456C65.7714 66.6287 66.2043 69.4893 66.375 73.5002C62.3451 69.8855 59.9994 65.2902 57.2783 60.6681C54.9385 57.4975 53.0458 56.0441 49.5 54.3752C46.0092 54.0975 46.0092 54.0975 42.75 55.5002C38.2036 61.1532 36.0449 67.5745 33.6094 74.3439C32.8386 76.4729 32.0625 78.6 31.2803 80.7248C30.7753 82.1273 30.7753 82.1273 30.2602 83.5581C29.25 85.8752 29.25 85.8752 27 88.1252C27.5442 80.219 29.3482 73.7817 32.3438 66.4689C32.7208 65.4886 33.0979 64.5083 33.4863 63.4982C36.6243 55.7008 39.9048 48.6397 49.522 49.3434Z" fill="#30737A"/>
<path d="M66.375 21.75C81.5962 21.75 96.8175 21.75 112.5 21.75C112.5 32.145 112.5 42.54 112.5 53.25C111.386 53.25 110.272 53.25 109.125 53.25C109.125 43.5975 109.125 33.945 109.125 24C106.228 24.0261 103.33 24.0522 100.345 24.0791C97.5449 24.0966 94.745 24.1103 91.9451 24.1236C89.9961 24.1349 88.0471 24.1503 86.0982 24.1697C83.3001 24.197 80.5023 24.2098 77.7041 24.2197C76.8298 24.2313 75.9556 24.243 75.0548 24.2549C72.9098 24.2554 70.7655 24.1376 68.625 24C67.8825 23.2575 67.14 22.515 66.375 21.75Z" fill="#533C35"/>
<path d="M70.875 24C83.4975 24 96.12 24 109.125 24C109.125 27.3413 109.125 30.6825 109.125 34.125C96.5025 34.125 83.88 34.125 70.875 34.125C70.875 30.7837 70.875 27.4425 70.875 24ZM73.125 26.25C73.125 28.1062 73.125 29.9625 73.125 31.875C74.0275 31.8691 74.9299 31.8632 75.8598 31.8571C79.9404 31.8338 84.0209 31.8191 88.1016 31.8047C89.522 31.7953 90.9425 31.7858 92.406 31.7761C94.4453 31.7707 94.4453 31.7707 96.5259 31.7651C97.7808 31.7592 99.0356 31.7534 100.329 31.7473C103.5 31.875 103.5 31.875 106.875 33C106.875 30.7725 106.875 28.545 106.875 26.25C95.7375 26.25 84.6 26.25 73.125 26.25Z" fill="#DCC3AC"/>
<path d="M73.125 26.25C84.2625 26.25 95.4 26.25 106.875 26.25C106.875 28.4775 106.875 30.705 106.875 33C105.761 32.6287 104.647 32.2575 103.5 31.875C101.177 31.7814 98.8508 31.7542 96.5259 31.7651C94.4865 31.7706 94.4865 31.7706 92.406 31.7761C90.9855 31.7855 89.5651 31.795 88.1016 31.8047C86.668 31.8098 85.2345 31.8148 83.7576 31.8201C80.2133 31.8333 76.6692 31.8519 73.125 31.875C73.125 30.0188 73.125 28.1625 73.125 26.25Z" fill="#AF7B55"/>
</svg>
