<svg width="100" height="80" viewBox="0 0 100 80" fill="none" xmlns="http://www.w3.org/2000/svg">
<rect x="1" y="42" width="98" height="38" rx="19" fill="#E0E8DE"/>
<path d="M64.8094 12.8301C65.5323 12.8301 66.2551 12.8301 66.9999 12.8301C66.6385 15.7215 66.277 18.613 65.9046 21.592C68.9537 20.0675 69.1674 18.1357 70.2856 15.0206C71.0085 15.0206 71.7313 15.0206 72.4761 15.0206C71.6428 19.6082 70.419 24.0288 69.1219 28.5058C68.7252 29.8795 68.3285 31.2532 67.9197 32.6685C67.6162 33.7119 67.3126 34.7552 66.9999 35.8302C67.6776 35.9431 68.3552 36.0561 69.0535 36.1725C71.3809 36.9254 71.3809 36.9254 73.5713 40.2112C74.2942 38.7654 75.0171 37.3197 75.7618 35.8302C76.4847 35.8302 77.2076 35.8302 77.9523 35.8302C78.2261 38.3629 78.2261 38.3629 77.9523 41.3064C77.252 41.7243 76.5518 42.1422 75.8303 42.5728C72.4258 45.6162 72.5642 49.2424 72.2023 53.5594C72.0752 54.7909 72.0752 54.7909 71.9456 56.0473C71.7396 58.0685 71.5579 60.0921 71.3809 62.116C69.5737 62.116 67.7666 62.116 65.9046 62.116C65.3625 60.4896 65.3625 60.4896 64.8094 58.8303C64.448 59.5532 64.0865 60.276 63.7142 61.0208C62.6299 61.0208 61.5456 61.0208 60.4284 61.0208C61.4622 56.347 63.3055 52.0371 65.0918 47.6083C65.998 44.2458 65.8813 42.405 64.8094 39.1159C64.0865 38.3931 63.3637 37.6702 62.6189 36.9254C60.1226 31.184 60.1226 31.184 61.3868 27.7528C61.7934 27.1654 62.2 26.5781 62.6189 25.973C62.9803 27.0573 63.3418 28.1416 63.7142 29.2587C64.437 29.2587 65.1599 29.2587 65.9046 29.2587C65.5432 27.4516 65.1818 25.6444 64.8094 23.7825C63.0474 23.4098 63.0474 23.4098 61.2499 23.0295C56.7351 21.4494 55.342 20.0378 52.7617 16.1158C56.1701 17.7569 59.3917 19.6199 62.6189 21.592C62.6189 19.4234 62.6189 17.2549 62.6189 15.0206C63.3418 15.0206 64.0646 15.0206 64.8094 15.0206C64.8094 14.2977 64.8094 13.5748 64.8094 12.8301Z" fill="#655848"/>
<path d="M82.3334 24.8773C85.2263 26.3412 87.8367 27.9213 90.0001 30.3535C90.0001 31.7993 90.0001 33.245 90.0001 34.7345C87.4701 35.0959 84.9401 35.4574 82.3334 35.8298C82.2204 36.53 82.1075 37.2303 81.9911 37.9518C81.7426 38.6972 81.4942 39.4427 81.2381 40.2107C80.1539 40.5722 79.0696 40.9336 77.9524 41.306C77.9524 39.4988 77.9524 37.6917 77.9524 35.8298C77.2296 35.8298 76.5067 35.8298 75.7619 35.8298C75.4005 36.9141 75.0391 37.9983 74.6667 39.1155C72.5522 36.1551 71.3418 34.4606 71.5179 30.7643C73.6159 25.0697 76.341 23.9554 82.3334 24.8773Z" fill="#839A8B"/>
<path d="M59.3334 7.35391C59.6271 8.21231 59.9207 9.0707 60.2233 9.95511C61.3576 13.1381 61.3576 13.1381 64.8096 15.0206C64.0868 15.0206 63.3639 15.0206 62.6191 15.0206C62.6191 17.1892 62.6191 19.3578 62.6191 21.5921C57.4167 19.5385 57.4167 19.5385 54.9524 18.3063C54.3199 18.5096 53.6874 18.713 53.0358 18.9224C49.5831 19.5938 47.2239 18.4567 44 17.2111C44.3663 13.8233 44.6128 12.1852 47.1488 9.81821C51.3026 7.37478 54.607 7.24888 59.3334 7.35391Z" fill="#94A99A"/>
<path d="M68.7116 4C69.954 4.02259 71.1964 4.04518 72.4765 4.06845C72.8379 5.15274 73.1994 6.23703 73.5718 7.35418C74.8594 7.55749 74.8594 7.55749 76.173 7.7649C79.048 8.44943 79.048 8.44943 81.2385 10.6399C80.8277 13.5149 80.8277 13.5149 80.1432 16.1161C72.7503 16.253 72.7503 16.253 70.286 15.0209C69.5632 17.1895 68.8403 19.3581 68.0955 21.5923C67.3727 21.5923 66.6498 21.5923 65.9051 21.5923C65.9764 19.3819 66.0477 17.1714 66.119 14.961C66.1058 12.569 66.1058 12.569 63.7146 10.6399C63.5092 7.83335 63.5092 7.83335 63.7146 5.1637C64.8098 4.06845 64.8098 4.06845 68.7116 4Z" fill="#90A597"/>
<path d="M62 52.37C63.6162 53.8018 64.9872 55.3636 66.418 56.9794C68.9326 59.1898 71.7647 59.0589 75 59.37C77 62.37 77 62.37 77 65.37C66.11 65.37 55.22 65.37 44 65.37C45.1349 59.6955 45.1349 59.6955 48.3125 56.62C48.9068 56.027 49.501 55.4341 50.1133 54.8231C53.6291 52.1153 57.6761 51.7646 62 52.37Z" fill="#72675B"/>
</svg>
