<svg width="160" height="160" viewBox="0 0 160 160" fill="none" xmlns="http://www.w3.org/2000/svg">
<rect x="2" y="2" width="156" height="156" rx="10" fill="white"/>
<rect x="2" y="2" width="156" height="156" rx="10" fill="#FF8D28" fill-opacity="0.1"/>
<rect x="2" y="2" width="156" height="156" rx="10" stroke="#FF8D28" stroke-width="4"/>
<path d="M35 125L98 62M98 62H107C111.774 62 116.352 60.1036 119.728 56.7279C123.104 53.3523 125 48.7739 125 44V35H116C111.226 35 106.648 36.8964 103.272 40.2721C99.8964 43.6477 98 48.2261 98 53V62ZM41.615 82.385L48.5 75.5L55.385 82.385C58.3253 85.3369 59.9762 89.3336 59.9762 93.5C59.9762 97.6664 58.3253 101.663 55.385 104.615L48.5 111.5L41.615 104.615C38.6747 101.663 37.0238 97.6664 37.0238 93.5C37.0238 89.3336 38.6747 85.3369 41.615 82.385ZM59.615 64.385L66.5 57.5L73.385 64.385C76.3253 67.3369 77.9762 71.3336 77.9762 75.5C77.9762 79.6664 76.3253 83.6631 73.385 86.615L66.5 93.5L59.615 86.615C56.6747 83.6631 55.0238 79.6664 55.0238 75.5C55.0238 71.3336 56.6747 67.3369 59.615 64.385ZM77.615 46.385L84.5 39.5L91.385 46.385C94.3253 49.3369 95.9762 53.3336 95.9762 57.5C95.9762 61.6664 94.3253 65.6631 91.385 68.615L84.5 75.5L77.615 68.615C74.6747 65.6631 73.0238 61.6664 73.0238 57.5C73.0238 53.3336 74.6747 49.3369 77.615 46.385Z" stroke="#FF8D28" stroke-width="6" stroke-linecap="round" stroke-linejoin="round"/>
<path d="M84.5 111.5L77.615 104.615C74.6631 101.674 70.6664 100.023 66.5 100.023C62.3336 100.023 58.3369 101.674 55.385 104.615L48.5 111.5L55.385 118.385C58.3369 121.325 62.3336 122.976 66.5 122.976C70.6664 122.976 74.6631 121.325 77.615 118.385L84.5 111.5Z" stroke="#FF8D28" stroke-width="6" stroke-linecap="round" stroke-linejoin="round"/>
<path d="M102.5 93.4996L95.615 86.6146C92.6631 83.6743 88.6664 82.0234 84.5 82.0234C80.3336 82.0234 76.3369 83.6743 73.385 86.6146L66.5 93.4996L73.385 100.385C76.3369 103.325 80.3336 104.976 84.5 104.976C88.6664 104.976 92.6631 103.325 95.615 100.385L102.5 93.4996Z" stroke="#FF8D28" stroke-width="6" stroke-linecap="round" stroke-linejoin="round"/>
<path d="M120.5 75.4996L113.615 68.6146C110.663 65.6743 106.666 64.0234 102.5 64.0234C98.3336 64.0234 94.3369 65.6743 91.385 68.6146L84.5 75.4996L91.385 82.3846C94.3369 85.3249 98.3336 86.9758 102.5 86.9758C106.666 86.9758 110.663 85.3249 113.615 82.3846L120.5 75.4996Z" stroke="#FF8D28" stroke-width="6" stroke-linecap="round" stroke-linejoin="round"/>
</svg>
