<svg width="180" height="120" viewBox="0 0 180 120" fill="none" xmlns="http://www.w3.org/2000/svg">
<path d="M6.75 58.875C10.0913 58.875 13.4325 58.875 16.875 58.875C16.875 60.7312 16.875 62.5875 16.875 64.5C18.36 64.5 19.845 64.5 21.375 64.5C21.375 62.6438 21.375 60.7875 21.375 58.875C24.7163 58.875 28.0575 58.875 31.5 58.875C31.5 60.7312 31.5 62.5875 31.5 64.5C32.985 64.5 34.47 64.5 36 64.5C36 62.6438 36 60.7875 36 58.875C38.97 58.875 41.94 58.875 45 58.875C45 61.1025 45 63.33 45 65.625C46.8562 65.625 48.7125 65.625 50.625 65.625C50.625 63.3975 50.625 61.17 50.625 58.875C52.4812 58.875 54.3375 58.875 56.25 58.875C55.7371 76.6835 54.0337 94.0758 51.75 111.75C36.9 111.75 22.05 111.75 6.75 111.75C6.75 94.3012 6.75 76.8525 6.75 58.875Z" fill="#81766E"/>
<path d="M56.25 72.375C64.7888 72.375 73.3275 72.375 82.125 72.375C82.125 73.4888 82.125 74.6025 82.125 75.75C88.065 75.75 94.005 75.75 100.125 75.75C100.125 74.6362 100.125 73.5225 100.125 72.375C109.035 72.375 117.945 72.375 127.125 72.375C127.695 77.0383 128.256 81.7023 128.812 86.3672C128.973 87.6774 129.134 88.9877 129.3 90.3376C129.453 91.6247 129.605 92.9117 129.762 94.2378C129.974 95.9964 129.974 95.9964 130.19 97.7905C130.565 102.43 130.5 107.096 130.5 111.75C144.607 111.75 158.715 111.75 173.25 111.75C173.25 112.121 173.25 112.492 173.25 112.875C150.604 112.875 127.957 112.875 104.625 112.875C104.254 105.821 103.883 98.7675 103.5 91.5C98.2897 84.8094 98.2897 84.8094 90.7031 83.1328C85.2915 83.7859 83.6843 85.4407 79.875 89.25C76.3373 96.3255 78.0408 104.975 77.625 112.875C54.2362 112.875 30.8475 112.875 6.75 112.875C6.75 112.504 6.75 112.133 6.75 111.75C21.6 111.75 36.45 111.75 51.75 111.75C51.75 108.409 51.75 105.067 51.75 101.625C51.935 99.3486 52.1628 97.075 52.4487 94.8091C52.5959 93.6337 52.7431 92.4583 52.8948 91.2473C53.1286 89.4581 53.1286 89.4581 53.3672 87.6328C53.5187 86.4096 53.6703 85.1863 53.8264 83.926C54.9745 74.9259 54.9745 74.9259 56.25 72.375Z" fill="#B2A99E"/>
<path d="M128.25 72.375C142.729 72.375 157.208 72.375 172.125 72.375C172.125 74.2312 172.125 76.0875 172.125 78C171.383 78.3713 170.64 78.7425 169.875 79.125C170.618 79.125 171.36 79.125 172.125 79.125C172.125 90 172.125 100.875 172.125 111.75C158.389 111.75 144.653 111.75 130.5 111.75C129.064 100.26 127.993 90.4633 128.25 79.125C137.532 79.125 146.813 79.125 156.375 79.125C147.094 78.7537 137.813 78.3825 128.25 78C128.25 76.1438 128.25 74.2875 128.25 72.375Z" fill="#81756D"/>
<path d="M61.875 48.75C62.2463 48.75 62.6175 48.75 63 48.75C63 52.4625 63 56.175 63 60C64.1138 60 65.2275 60 66.375 60C66.375 59.2575 66.375 58.515 66.375 57.75C69.345 57.75 72.315 57.75 75.375 57.75C75.375 58.8638 75.375 59.9775 75.375 61.125C77.6025 61.125 79.83 61.125 82.125 61.125C82.125 60.3825 82.125 59.64 82.125 58.875C91.035 58.3181 91.035 58.3181 100.125 57.75C100.125 58.8638 100.125 59.9775 100.125 61.125C101.981 61.125 103.837 61.125 105.75 61.125C105.75 60.0112 105.75 58.8975 105.75 57.75C108.72 57.75 111.69 57.75 114.75 57.75C115.307 58.8638 115.307 58.8638 115.875 60C116.618 60 117.36 60 118.125 60C118.868 59.2575 119.61 58.515 120.375 57.75C123.328 58.1719 123.328 58.1719 126 58.875C126 62.5875 126 66.3 126 70.125C102.983 70.125 79.965 70.125 56.25 70.125C56.25 66.4125 56.25 62.7 56.25 58.875C54.3938 58.875 52.5375 58.875 50.625 58.875C50.625 61.1025 50.625 63.33 50.625 65.625C48.7688 65.625 46.9125 65.625 45 65.625C46.485 65.2537 47.97 64.8825 49.5 64.5C49.5 62.2725 49.5 60.045 49.5 57.75C53.5838 57.75 57.6675 57.75 61.875 57.75C61.875 54.78 61.875 51.81 61.875 48.75Z" fill="#B0A69B"/>
<path d="M69.75 7.125C71.235 7.125 72.72 7.125 74.25 7.125C74.25 8.61 74.25 10.095 74.25 11.625C85.7587 11.625 97.2675 11.625 109.125 11.625C109.125 10.14 109.125 8.655 109.125 7.125C110.61 7.125 112.095 7.125 113.625 7.125C113.573 7.81674 113.521 8.50849 113.467 9.22119C113.053 14.842 113.053 14.842 115.523 19.6406C118.802 20.8813 120.421 20.4986 123.75 19.5C125.038 19.1868 125.038 19.1868 126.352 18.8672C126.978 18.7048 127.605 18.5423 128.25 18.375C127.2 21.1423 126.15 22.7449 123.902 24.6908C118.507 27.0758 113.306 26.7087 107.473 26.6587C105.594 26.6595 105.594 26.6595 103.678 26.6604C101.034 26.6578 98.3903 26.6468 95.7464 26.6282C91.7023 26.6017 87.659 26.6051 83.6147 26.6125C81.0439 26.6063 78.4731 26.5983 75.9023 26.5884C74.694 26.5894 73.4857 26.5904 72.2407 26.5915C71.1106 26.5808 69.9805 26.57 68.8162 26.559C67.8264 26.5538 66.8366 26.5486 65.8168 26.5433C62.6069 26.2091 60.2504 25.4619 57.375 24C56.6325 22.8862 55.89 21.7725 55.125 20.625C55.4963 19.5112 55.8675 18.3975 56.25 17.25C57.9206 18.3638 57.9206 18.3638 59.625 19.5C63.0472 19.8751 63.0472 19.8751 66.375 19.5C68.8348 17.5243 68.8348 17.5243 68.8052 15.1011C68.7689 14.302 68.7327 13.503 68.6953 12.6797C68.6721 11.2179 68.6489 9.75609 68.625 8.25C68.9963 7.87875 69.3675 7.5075 69.75 7.125Z" fill="#286972"/>
<path d="M63 48.75C81.9337 48.75 100.867 48.75 120.375 48.75C120.375 57.75 120.375 57.75 118.125 61.125C117.011 60.7537 115.897 60.3825 114.75 60C114.75 59.2575 114.75 58.515 114.75 57.75C111.78 57.75 108.81 57.75 105.75 57.75C105.75 58.8638 105.75 59.9775 105.75 61.125C103.894 61.125 102.038 61.125 100.125 61.125C100.125 60.0112 100.125 58.8975 100.125 57.75C99.0345 57.9356 97.9439 58.1212 96.8203 58.3125C91.9183 59.0257 87.0679 58.9759 82.125 58.875C82.125 59.6175 82.125 60.36 82.125 61.125C79.8975 61.125 77.67 61.125 75.375 61.125C75.375 60.0112 75.375 58.8975 75.375 57.75C72.405 57.75 69.435 57.75 66.375 57.75C66.375 58.4925 66.375 59.235 66.375 60C65.2612 60 64.1475 60 63 60C63 56.2875 63 52.575 63 48.75Z" fill="#503F34"/>
<path d="M126 58.875C126.371 58.875 126.742 58.875 127.125 58.875C127.125 62.5875 127.125 66.3 127.125 70.125C141.975 70.125 156.825 70.125 172.125 70.125C172.125 66.4125 172.125 62.7 172.125 58.875C172.496 58.875 172.867 58.875 173.25 58.875C173.25 76.3238 173.25 93.7725 173.25 111.75C172.879 111.75 172.508 111.75 172.125 111.75C172.125 103.954 172.125 96.1575 172.125 88.125C171.382 87.7537 170.64 87.3825 169.875 87C170.432 86.4431 170.432 86.4431 171 85.875C171 84.0188 171 82.1625 171 80.25C166.916 79.8787 162.833 79.5075 158.625 79.125C158.625 78.7537 158.625 78.3825 158.625 78C163.08 78 167.535 78 172.125 78C172.125 76.1438 172.125 74.2875 172.125 72.375C157.646 72.375 143.168 72.375 128.25 72.375C128.25 74.2312 128.25 76.0875 128.25 78C137.902 78 147.555 78 157.5 78C157.129 78.7425 156.758 79.485 156.375 80.25C155.569 80.2382 154.763 80.2264 153.932 80.2143C150.293 80.1676 146.655 80.1383 143.016 80.1094C141.747 80.0905 140.478 80.0717 139.17 80.0522C137.959 80.045 136.749 80.0377 135.501 80.0303C134.382 80.0185 133.262 80.0067 132.109 79.9946C129.171 79.9757 129.171 79.9757 127.125 82.5C127.125 79.1587 127.125 75.8175 127.125 72.375C118.215 72.375 109.305 72.375 100.125 72.375C100.125 73.4888 100.125 74.6025 100.125 75.75C94.185 75.75 88.245 75.75 82.125 75.75C82.125 74.6362 82.125 73.5225 82.125 72.375C73.5862 72.375 65.0475 72.375 56.25 72.375C55.8787 73.1175 55.5075 73.86 55.125 74.625C55.125 72.0263 55.125 69.4275 55.125 66.75C55.4963 67.8638 55.8675 68.9775 56.25 70.125C56.9337 70.0909 57.6174 70.0568 58.3217 70.0217C81.0248 68.9098 103.301 68.9469 126 70.125C126 66.4125 126 62.7 126 58.875Z" fill="#897E75"/>
<path d="M65.25 25.125C81.9563 25.125 98.6625 25.125 115.875 25.125C117.056 29.8488 116.694 32.7683 115.875 37.5C115.504 37.5 115.133 37.5 114.75 37.5C114.75 34.1587 114.75 30.8175 114.75 27.375C113.636 27.7463 112.522 28.1175 111.375 28.5C108.481 28.5791 105.619 28.6054 102.727 28.5703C101.937 28.5652 101.147 28.5602 100.334 28.5549C98.3891 28.5417 96.4445 28.5215 94.5 28.5C94.8713 31.47 95.2425 34.44 95.625 37.5C85.9725 37.5 76.32 37.5 66.375 37.5C65.25 33 65.25 33 65.25 25.125Z" fill="#4F443A"/>
<path d="M127.125 58.875C128.239 58.875 129.353 58.875 130.5 58.875C130.5 60.7312 130.5 62.5875 130.5 64.5C132.356 64.5 134.212 64.5 136.125 64.5C136.125 62.6438 136.125 60.7875 136.125 58.875C139.095 58.875 142.065 58.875 145.125 58.875C145.125 60.7312 145.125 62.5875 145.125 64.5C146.981 64.5 148.837 64.5 150.75 64.5C150.75 62.6438 150.75 60.7875 150.75 58.875C153.72 58.875 156.69 58.875 159.75 58.875C159.75 60.7312 159.75 62.5875 159.75 64.5C161.606 64.5 163.462 64.5 165.375 64.5C165.375 62.6438 165.375 60.7875 165.375 58.875C167.603 58.875 169.83 58.875 172.125 58.875C172.125 62.5875 172.125 66.3 172.125 70.125C157.275 70.125 142.425 70.125 127.125 70.125C127.125 66.4125 127.125 62.7 127.125 58.875Z" fill="#7E756E"/>
<path d="M94.4999 82.5002C98.8632 84.8497 102.252 87.1286 104.625 91.5002C105.038 95.1654 104.942 98.7867 104.836 102.469C104.813 103.968 104.813 103.968 104.79 105.497C104.75 107.957 104.695 110.416 104.625 112.875C103.14 112.875 101.655 112.875 100.125 112.875C100.109 112.245 100.092 111.616 100.075 110.967C99.9914 108.11 99.8827 105.255 99.7734 102.399C99.748 101.407 99.7226 100.416 99.6965 99.395C99.6367 97.9647 99.6367 97.9647 99.5756 96.5056C99.5462 95.6278 99.5167 94.7499 99.4864 93.8455C98.8872 90.9568 97.9212 89.9269 95.6249 88.1252C93.4373 87.5949 93.4373 87.5949 91.1249 87.7033C90.3592 87.6946 89.5935 87.6859 88.8046 87.677C85.9469 88.2646 85.0681 89.2409 83.2499 91.5002C82.6868 93.8809 82.6868 93.8809 82.6743 96.5056C82.6344 97.4591 82.5945 98.4126 82.5534 99.395C82.528 100.386 82.5027 101.377 82.4765 102.399C82.4381 103.403 82.3996 104.407 82.3601 105.442C82.2673 107.92 82.1895 110.397 82.1249 112.875C80.6399 112.875 79.1549 112.875 77.6249 112.875C77.4724 109.452 77.3613 106.035 77.2734 102.61C77.2262 101.647 77.1791 100.684 77.1306 99.6916C77.0368 94.816 77.1007 91.4546 80.2485 87.5715C85.1673 82.948 87.7597 81.8148 94.4999 82.5002Z" fill="#51483F"/>
<path d="M50.625 39.75C51.7736 40.3417 51.7736 40.3417 52.9453 40.9453C57.0732 42.2627 59.9254 41.7634 64.125 40.875C64.4963 40.5038 64.8675 40.1325 65.25 39.75C67.1469 39.6689 69.0469 39.6557 70.9453 39.6797C71.9793 39.6898 73.0133 39.7 74.0786 39.7105C74.8777 39.7235 75.6767 39.7366 76.5 39.75C76.5 42.3488 76.5 44.9475 76.5 47.625C85.41 47.625 94.32 47.625 103.5 47.625C102.757 45.0263 102.015 42.4275 101.25 39.75C102.364 40.1213 103.478 40.4925 104.625 40.875C105.182 43.6594 105.182 43.6594 105.75 46.5C106.864 46.8713 107.978 47.2425 109.125 47.625C108.731 46.9521 108.336 46.2792 107.93 45.5859C106.875 43.125 106.875 43.125 108 39.75C109.044 41.3858 109.044 41.3858 110.109 43.0547C112.114 46.5319 112.114 46.5319 114.75 47.625C114.193 46.9521 113.636 46.2792 113.062 45.5859C111.375 43.125 111.375 43.125 111.375 39.75C112.118 39.75 112.86 39.75 113.625 39.75C115.169 41.9699 116.667 44.2224 118.125 46.5C118.868 47.2425 119.61 47.985 120.375 48.75C112.111 48.8805 103.848 48.9804 95.5839 49.0415C91.746 49.0708 87.9089 49.1105 84.0715 49.1744C79.6566 49.2473 75.2421 49.2745 70.8267 49.2993C69.453 49.3284 68.0794 49.3574 66.6642 49.3873C56.0446 49.3908 56.0446 49.3908 52.5265 46.1141C50.625 43.125 50.625 43.125 50.625 39.75Z" fill="#29656B"/>
<path d="M115.875 29.625C116.246 29.625 116.617 29.625 117 29.625C117.174 31.7481 117.174 31.7481 117.352 33.9141C117.723 36.7459 118.025 38.4506 119.461 40.9453C122.609 42.5737 124.899 41.7126 128.25 40.875C129.364 40.5037 130.478 40.1325 131.625 39.75C130.993 43.4144 130.173 45.4176 127.125 47.625C123.891 48.75 123.891 48.75 120.375 48.75C116.84 45.9217 115.061 44.0591 113.625 39.75C112.882 39.75 112.14 39.75 111.375 39.75C111.932 40.6317 112.489 41.5134 113.062 42.4219C114.75 45.375 114.75 45.375 114.75 47.625C111.8 46.4452 110.482 45.7695 108.844 42.9844C108.565 42.2883 108.287 41.5922 108 40.875C108.557 44.2163 108.557 44.2163 109.125 47.625C107.64 47.2537 106.155 46.8825 104.625 46.5C104.068 43.7156 104.068 43.7156 103.5 40.875C102.359 40.875 101.218 40.875 100.042 40.875C87.3199 40.875 74.5974 40.875 61.875 40.875C62.6175 40.1325 63.36 39.39 64.125 38.625C64.8536 35.7331 64.8536 35.7331 65.25 33C65.6213 34.485 65.9925 35.97 66.375 37.5C82.71 37.5 99.045 37.5 115.875 37.5C115.875 34.9013 115.875 32.3025 115.875 29.625Z" fill="#497272"/>
<path d="M76.5 39.75C84.6675 39.75 92.835 39.75 101.25 39.75C103.5 44.25 103.5 44.25 103.5 47.625C94.59 47.625 85.68 47.625 76.5 47.625C76.5 45.0263 76.5 42.4275 76.5 39.75Z" fill="#286F78"/>
<path d="M114.75 27.375C114.75 30.7163 114.75 34.0575 114.75 37.5C111.586 37.5302 108.422 37.5526 105.258 37.5703C104.355 37.5797 103.452 37.5892 102.522 37.5989C100.223 37.6086 97.9236 37.5588 95.625 37.5C94.5 36.375 94.5 36.375 94.4297 32.3672C94.4529 31.091 94.4761 29.8148 94.5 28.5C97.2421 28.3111 99.9843 28.1238 102.727 27.9375C103.503 27.8838 104.28 27.8302 105.08 27.7749C108.311 27.5564 111.51 27.375 114.75 27.375Z" fill="#4B372D"/>
</svg>
