<svg width="100" height="80" viewBox="0 0 100 80" fill="none" xmlns="http://www.w3.org/2000/svg">
<path d="M38.8658 37.3662C39.4358 37.3662 40.0059 37.3662 40.5932 37.3662C40.3082 39.3613 40.0231 41.3564 39.7295 43.412C42.5797 43.127 45.4298 42.842 48.3664 42.5483C48.9364 40.8382 49.5064 39.1281 50.0937 37.3662C50.9574 39.9573 50.9574 39.9573 50.0937 43.412C52.9439 43.412 55.7941 43.412 58.7306 43.412C58.7306 41.4169 58.7306 39.4218 58.7306 37.3662C59.3007 37.3662 59.8707 37.3662 60.458 37.3662C60.173 39.3613 59.888 41.3564 59.5943 43.412C62.4445 43.412 65.2947 43.412 68.2312 43.412C68.1101 45.8415 67.9834 48.2704 67.8533 50.6994C67.8194 51.3925 67.7854 52.0855 67.7504 52.7996C67.4653 57.9969 67.4653 57.9969 66.5038 58.9584C64.9035 59.0208 63.301 59.0308 61.6996 59.0124C60.8256 59.0046 59.9516 58.9968 59.0511 58.9888C58.3753 58.9788 57.6995 58.9687 57.0033 58.9584C57.2883 56.9633 57.5733 54.9682 57.8669 52.9126C51.5966 52.9126 45.3262 52.9126 38.8658 52.9126C38.8658 54.9077 38.8658 56.9028 38.8658 58.9584C35.7306 58.9584 32.5954 58.9584 29.3652 58.9584C30.1974 47.1835 30.1974 47.1835 31.0926 41.6847C33.3727 41.6847 35.6529 41.6847 38.0021 41.6847C38.2871 40.2596 38.5721 38.8345 38.8658 37.3662Z" fill="#916A4B"/>
<path d="M7.77246 61.5488C8.50507 61.6644 8.50507 61.6644 9.25248 61.7824C21.7335 63.7024 33.9197 64.5304 46.5425 64.4302C49.2855 64.4098 52.0278 64.4125 54.7709 64.4182C66.5398 64.4009 78.1243 63.6803 89.8228 62.4125C84.3652 67.9714 80.4204 70.8034 72.5364 71.1707C71.1619 71.1795 71.1619 71.1795 69.7596 71.1886C68.1897 71.201 68.1897 71.201 66.5881 71.2137C65.4679 71.2174 64.3477 71.2211 63.1936 71.2248C62.6172 71.2273 62.0409 71.2297 61.4471 71.2322C58.3973 71.2451 55.3476 71.2531 52.2977 71.2569C49.1674 71.2616 46.0373 71.2824 42.907 71.307C40.4817 71.3231 38.0565 71.3275 35.6312 71.3289C33.9219 71.3327 32.2127 71.3488 30.5036 71.3651C23.6839 71.3484 17.374 71.0978 11.7367 66.9131C11.2657 66.3899 10.7948 65.8666 10.3095 65.3275C9.81856 64.7997 9.32757 64.272 8.82171 63.7283C7.77246 62.4125 7.77246 62.4125 7.77246 61.5488Z" fill="#8F6C53"/>
<path d="M31.0928 34.7754C31.9478 34.7754 32.8029 34.7754 33.6838 34.7754C33.3988 37.0555 33.1138 39.3357 32.8201 41.6849C32.2501 41.6849 31.6801 41.6849 31.0928 41.6849C31.0143 42.7955 31.0143 42.7955 30.9342 43.9285C30.8618 44.916 30.7895 45.9035 30.7149 46.921C30.6448 47.893 30.5746 48.8649 30.5024 49.8663C30.2286 52.9186 29.8093 55.927 29.3654 58.9587C34.6388 58.8568 39.9121 58.7495 45.1853 58.6371C46.9806 58.5996 48.7761 58.5636 50.5715 58.5291C53.1463 58.4794 55.7209 58.4244 58.2956 58.3682C59.1035 58.3538 59.9114 58.3394 60.7438 58.3245C61.4872 58.3073 62.2307 58.2901 62.9967 58.2723C63.9835 58.2522 63.9835 58.2522 64.9902 58.2316C66.5276 58.2558 66.5276 58.2558 67.3677 57.2313C69.9616 57.1087 72.543 57.1947 75.1409 57.2313C75.1409 54.6661 75.1409 52.101 75.1409 49.4581C75.4259 49.4581 75.7109 49.4581 76.0045 49.4581C76.0045 51.7382 76.0045 54.0184 76.0045 56.3676C85.3136 55.2448 85.3136 55.2448 94.2567 52.5552C95.8694 52.0492 95.8694 52.0492 99.3241 52.0492C98.3294 54.1807 97.5554 55.5452 95.8694 57.2313C93.7901 57.7308 93.7901 57.7308 91.1832 58.1253C90.2263 58.2717 89.2693 58.4181 88.2834 58.569C87.2775 58.7154 86.2716 58.8618 85.2352 59.0126C84.266 59.1624 83.2969 59.3121 82.2983 59.4664C70.1843 61.2825 58.1864 61.754 45.9562 61.8047C44.2959 61.8146 42.6357 61.8322 40.9756 61.8578C29.6869 62.0306 19.5359 61.0746 8.63688 58.095C7.76374 57.871 6.89059 57.647 5.99099 57.4162C3.83262 56.7994 3.83262 56.7994 0.863688 55.5039C0.246286 53.6956 0.246286 53.6956 0 52.0492C6.21179 52.9952 12.0536 54.467 18.016 56.4519C20.9267 57.2882 23.7713 57.729 26.7743 58.095C26.8066 57.26 26.8389 56.4249 26.8722 55.5646C27.2398 48.2833 27.7717 41.4175 31.0928 34.7754Z" fill="#5A4332"/>
<path d="M3.45508 56.3672C6.92313 56.8841 10.2656 57.6423 13.6586 58.5193C22.6981 60.7742 31.3581 61.1653 40.6438 61.0411C43.0689 61.0096 45.4929 61.0057 47.9181 61.0061C61.0607 60.9549 74.1469 60.1599 87.0506 57.5548C89.7449 57.0978 92.2808 57.1098 95.006 57.2309C94.0113 59.3625 93.2373 60.7269 91.5513 62.413C88.5635 63.1436 85.4898 63.4273 82.4387 63.7963C81.5134 63.9091 80.5881 64.0219 79.6348 64.1382C70.3546 65.1856 61.1364 65.3981 51.805 65.3419C49.0599 65.3279 46.316 65.3419 43.571 65.3583C34.8038 65.3679 26.193 65.0445 17.5001 63.8502C16.7538 63.7499 16.0075 63.6495 15.2386 63.546C11.3713 62.9488 8.36535 62.2573 5.18245 59.8219C4.04886 57.9326 4.04886 57.9326 3.45508 56.3672Z" fill="#876146"/>
<path d="M69.9591 37.3662C71.6325 37.4202 71.6325 37.4202 73.4139 38.2299C75.2683 42.4233 75.3546 46.1623 75.2492 50.6454C75.2414 51.2811 75.2336 51.9169 75.2256 52.5718C75.2054 54.125 75.1745 55.6781 75.1413 57.231C72.5761 57.231 70.0109 57.231 67.3681 57.231C67.1838 50.609 67.2831 44.6265 69.0954 38.2299C69.3805 37.9449 69.6655 37.6599 69.9591 37.3662Z" fill="#36271A"/>
<path d="M22.4559 8C23.3109 8 24.166 8 25.047 8C25.047 24.531 25.047 41.062 25.047 58.0939C23.6219 58.0939 22.1968 58.0939 20.7285 58.0939C21.5836 57.6664 21.5836 57.6664 22.4559 57.2302C22.4559 40.9842 22.4559 24.7383 22.4559 8Z" fill="#655D50"/>
<path d="M38.8652 52.9121C45.1356 52.9121 51.406 52.9121 57.8664 52.9121C57.8664 54.6222 57.8664 56.3323 57.8664 58.0942C57.0027 58.9579 57.0027 58.9579 55.2397 59.056C54.4843 59.0515 53.729 59.0469 52.9508 59.0423C52.1352 59.0395 51.3197 59.0367 50.4795 59.0338C49.6216 59.0266 48.7638 59.0194 47.88 59.0119C47.0188 59.008 46.1576 59.0041 45.2704 59.0001C43.1353 58.9899 41.0003 58.9756 38.8652 58.9579C38.8652 56.9628 38.8652 54.9677 38.8652 52.9121Z" fill="#9B7253"/>
<path d="M33.6834 36.502C39.3838 36.502 45.0841 36.502 50.9572 36.502C50.1021 38.7821 49.2471 41.0622 48.3661 43.4115C45.516 43.4115 42.6658 43.4115 39.7292 43.4115C40.0143 41.4163 40.2993 39.4212 40.5929 37.3656C40.0229 37.3656 39.4529 37.3656 38.8656 37.3656C38.8834 38.0604 38.9012 38.7551 38.9195 39.4709C38.8656 41.6841 38.8656 41.6841 38.0019 42.5478C35.9869 42.5831 33.971 42.5844 31.9561 42.5478C32.5261 40.5527 33.0961 38.5575 33.6834 36.502Z" fill="#A07859"/>
<path d="M60.4584 36.502C64.4487 36.502 68.4389 36.502 72.55 36.502C71.41 37.642 70.2699 38.7821 69.0953 39.9567C68.8103 41.0968 68.5253 42.2368 68.2316 43.4115C65.3814 43.4115 62.5313 43.4115 59.5947 43.4115C59.8797 41.1313 60.1648 38.8512 60.4584 36.502Z" fill="#A07859"/>
<path d="M50.9574 36.502C54.0926 36.502 57.2278 36.502 60.458 36.502C59.603 36.9295 59.603 36.9295 58.7306 37.3656C58.7306 39.3608 58.7306 41.3559 58.7306 43.4115C55.8805 43.4115 53.0303 43.4115 50.0938 43.4115C50.3788 41.1313 50.6638 38.8512 50.9574 36.502Z" fill="#A07859"/>
</svg>
