<svg xmlns="http://www.w3.org/2000/svg" viewBox="0 0 1614.000000 1680.000000" width="269" height="280">
<g transform="translate(0.000000,1680.000000) scale(0.100000,-0.100000)" fill="#084e81" stroke="none">
<path d="M7800 16350 c-31 -30 -31 -30 -330 -30 -299 0 -299 0 -330 -30 -31
-30 -31 -30 -150 -30 -119 0 -119 0 -150 -30 -31 -30 -31 -30 -150 -30 -119 0
-119 0 -150 -30 -31 -30 -31 -30 -150 -30 -119 0 -119 0 -150 -30 -27 -27 -38
-30 -90 -30 -52 0 -63 -3 -90 -30 -27 -27 -38 -30 -90 -30 -52 0 -63 -3 -90
-30 -27 -27 -38 -30 -90 -30 -52 0 -63 -3 -90 -30 -20 -20 -41 -30 -60 -30
-19 0 -40 -10 -60 -30 -27 -27 -38 -30 -90 -30 -52 0 -63 -3 -90 -30 -20 -20
-41 -30 -60 -30 -19 0 -40 -10 -60 -30 -20 -20 -41 -30 -60 -30 -19 0 -40 -10
-60 -30 -27 -27 -38 -30 -90 -30 -59 0 -59 0 -120 -60 -46 -46 -68 -60 -90
-60 -19 0 -40 -10 -60 -30 -20 -20 -41 -30 -60 -30 -19 0 -40 -10 -60 -30 -20
-20 -41 -30 -60 -30 -19 0 -40 -10 -60 -30 -20 -20 -41 -30 -60 -30 -19 0 -40
-10 -60 -30 -20 -20 -41 -30 -60 -30 -22 0 -44 -14 -90 -60 -46 -46 -68 -60
-90 -60 -24 0 -47 -18 -120 -90 -73 -72 -96 -90 -120 -90 -22 0 -44 -14 -90
-60 -46 -46 -68 -60 -90 -60 -24 0 -47 -18 -120 -90 -73 -73 -96 -90 -120 -90
-45 0 -1140 -1095 -1140 -1140 0 -24 -17 -47 -90 -120 -72 -73 -90 -96 -90
-120 0 -24 -18 -47 -90 -120 -72 -73 -90 -96 -90 -120 0 -24 -18 -47 -90 -120
-72 -73 -90 -96 -90 -120 0 -22 -14 -44 -60 -90 -46 -46 -60 -68 -60 -90 0
-19 -10 -40 -30 -60 -20 -20 -30 -41 -30 -60 0 -19 -10 -40 -30 -60 -20 -20
-30 -41 -30 -60 0 -19 -10 -40 -30 -60 -20 -20 -30 -41 -30 -60 0 -19 -10 -40
-30 -60 -20 -20 -30 -41 -30 -60 0 -19 -10 -40 -30 -60 -20 -20 -30 -41 -30
-60 0 -19 -10 -40 -30 -60 -20 -20 -30 -41 -30 -60 0 -22 -14 -44 -60 -90 -60
-61 -60 -61 -60 -120 0 -52 -3 -63 -30 -90 -20 -20 -30 -41 -30 -60 0 -19 -10
-40 -30 -60 -27 -27 -30 -38 -30 -90 0 -52 -3 -63 -30 -90 -20 -20 -30 -41
-30 -60 0 -19 -10 -40 -30 -60 -27 -27 -30 -38 -30 -90 0 -52 -3 -63 -30 -90
-27 -27 -30 -38 -30 -90 0 -52 -3 -63 -30 -90 -27 -27 -30 -38 -30 -90 0 -52
-3 -63 -30 -90 -27 -27 -30 -38 -30 -90 0 -52 -3 -63 -30 -90 -30 -31 -30 -31
-30 -150 0 -119 0 -119 -30 -150 -29 -29 -30 -34 -30 -120 0 -86 -1 -91 -30
-120 -30 -31 -30 -31 -30 -150 0 -119 0 -119 -30 -150 -30 -31 -30 -31 -30
-240 0 -209 0 -209 -30 -240 -30 -31 -30 -31 -30 -420 0 -389 0 -389 -30 -420
-27 -27 -30 -38 -30 -90 0 -52 3 -63 30 -90 30 -31 30 -31 30 -420 0 -389 0
-389 30 -420 30 -31 30 -31 30 -240 0 -209 0 -209 30 -240 30 -31 30 -31 30
-150 0 -119 0 -119 30 -150 29 -29 30 -34 30 -120 0 -86 1 -91 30 -120 29 -29
30 -34 30 -120 0 -86 1 -91 30 -120 27 -27 30 -38 30 -90 0 -52 3 -63 30 -90
29 -29 30 -34 30 -120 0 -86 1 -91 30 -120 27 -27 30 -38 30 -90 0 -52 3 -63
30 -90 20 -20 30 -41 30 -60 0 -19 10 -40 30 -60 27 -27 30 -38 30 -90 0 -52
3 -63 30 -90 20 -20 30 -41 30 -60 0 -19 10 -40 30 -60 27 -27 30 -38 30 -90
0 -52 3 -63 30 -90 20 -20 30 -41 30 -60 0 -19 10 -40 30 -60 20 -20 30 -41
30 -60 0 -19 10 -40 30 -60 20 -20 30 -41 30 -60 0 -19 10 -40 30 -60 20 -20
30 -41 30 -60 0 -19 10 -40 30 -60 20 -20 30 -41 30 -60 0 -19 10 -40 30 -60
20 -20 30 -41 30 -60 0 -22 14 -44 60 -90 46 -46 60 -68 60 -90 0 -19 10 -40
30 -60 20 -20 30 -41 30 -60 0 -22 14 -44 60 -90 46 -46 60 -68 60 -90 0 -19
10 -40 30 -60 20 -20 30 -41 30 -60 0 -24 18 -47 90 -120 72 -73 90 -96 90
-120 0 -24 21 -51 120 -150 99 -99 120 -126 120 -150 0 -24 21 -51 120 -150
98 -99 120 -126 120 -150 0 -36 23 -60 60 -60 37 0 60 -24 60 -60 0 -41 79
-120 120 -120 37 0 60 -23 60 -61 0 -44 376 -419 420 -419 24 0 50 -21 150
-120 99 -99 126 -120 150 -120 24 0 51 -21 150 -120 99 -99 126 -120 150 -120
22 0 43 -14 90 -60 46 -46 68 -60 90 -60 22 0 44 -14 90 -60 46 -46 68 -60 90
-60 19 0 40 -10 60 -30 20 -20 41 -30 60 -30 22 0 44 -14 90 -60 46 -46 68
-60 90 -60 19 0 40 -10 60 -30 20 -20 41 -30 60 -30 19 0 40 -10 60 -30 20
-20 41 -30 60 -30 22 0 44 -14 90 -60 46 -46 68 -60 90 -60 19 0 40 -10 60
-30 20 -20 41 -30 60 -30 19 0 40 -10 60 -30 20 -20 41 -30 60 -30 19 0 40
-10 60 -30 27 -27 38 -30 90 -30 52 0 63 -3 90 -30 20 -20 41 -30 60 -30 19 0
40 -10 60 -30 29 -29 34 -30 120 -30 86 0 91 -1 120 -30 20 -20 41 -30 60 -30
19 0 40 -10 60 -30 27 -27 38 -30 90 -30 52 0 63 -3 90 -30 29 -29 34 -30 120
-30 86 0 91 -1 120 -30 29 -29 34 -30 120 -30 86 0 91 -1 120 -30 31 -30 31
-30 150 -30 119 0 119 0 150 -30 31 -30 31 -30 240 -30 209 0 209 0 240 -30
31 -30 31 -30 750 -30 719 0 719 0 750 30 31 30 31 30 210 30 179 0 179 0 210
30 31 30 31 30 150 30 119 0 119 0 150 30 29 29 34 30 120 30 86 0 91 1 120
30 29 29 34 30 120 30 86 0 91 1 120 30 27 27 38 30 90 30 52 0 63 3 90 30 27
27 38 30 90 30 52 0 63 3 90 30 27 27 38 30 90 30 52 0 63 3 90 30 20 20 41
30 60 30 19 0 40 10 60 30 27 27 38 30 90 30 52 0 63 3 90 30 20 20 41 30 60
30 19 0 40 10 60 30 20 20 41 30 60 30 19 0 40 10 60 30 20 20 41 30 60 30 19
0 40 10 60 30 20 20 41 30 60 30 19 0 40 10 60 30 20 20 41 30 60 30 19 0 40
10 60 30 20 20 41 30 60 30 22 0 44 14 90 60 46 46 68 60 90 60 19 0 40 10 60
30 20 20 41 30 60 30 22 0 44 14 90 60 46 46 68 60 90 60 22 0 44 14 90 60 46
46 68 60 90 60 24 0 47 18 120 90 73 72 96 90 120 90 24 0 51 21 150 120 100
99 126 120 150 120 45 0 1080 1035 1080 1080 0 24 17 47 90 120 72 73 90 96
90 120 0 24 18 47 90 120 72 73 90 96 90 120 0 22 14 44 60 90 46 46 60 68 60
90 0 19 10 40 30 60 20 20 30 41 30 60 0 22 14 44 60 90 46 46 60 68 60 90 0
22 14 44 60 90 46 46 60 68 60 90 0 19 10 40 30 60 20 20 30 41 30 60 0 19 10
40 30 60 20 20 30 41 30 60 0 19 10 40 30 60 20 20 30 41 30 60 0 19 10 40 30
60 20 20 30 41 30 60 0 19 10 40 30 60 20 20 30 41 30 60 0 19 10 40 30 60 20
20 30 41 30 60 0 19 10 40 30 60 27 27 30 38 30 90 0 52 3 63 30 90 20 20 30
41 30 60 0 19 10 40 30 60 29 29 30 34 30 120 0 86 1 91 30 120 20 20 30 41
30 60 0 19 10 40 30 60 27 27 30 38 30 90 0 52 3 63 30 90 27 27 30 38 30 90
0 52 3 63 30 90 27 27 30 38 30 90 0 52 3 63 30 90 30 31 30 31 30 150 0 119
0 119 30 150 30 31 30 31 30 180 0 149 0 149 30 180 29 29 30 34 30 120 0 86
1 91 30 120 30 31 30 31 30 330 0 299 0 299 30 330 30 31 30 31 30 570 0 539
0 539 -30 570 -30 31 -30 31 -30 300 0 269 0 269 -30 300 -30 31 -30 31 -30
180 0 149 0 149 -30 180 -30 31 -30 31 -30 150 0 119 0 119 -30 150 -30 31
-30 31 -30 150 0 119 0 119 -30 150 -29 29 -30 34 -30 120 0 86 -1 91 -30 120
-27 27 -30 38 -30 90 0 52 -3 63 -30 90 -27 27 -30 38 -30 90 0 52 -3 63 -30
90 -20 20 -30 41 -30 60 0 19 -10 40 -30 60 -29 29 -30 34 -30 120 0 86 -1 91
-30 120 -20 20 -30 41 -30 60 0 19 -10 40 -30 60 -20 20 -30 41 -30 60 0 19
-10 40 -30 60 -27 27 -30 38 -30 90 0 59 0 59 -60 120 -60 61 -60 61 -60 120
0 52 -3 63 -30 90 -20 20 -30 41 -30 60 0 19 -10 40 -30 60 -20 20 -30 41 -30
60 0 19 -10 40 -30 60 -20 20 -30 41 -30 60 0 22 -14 44 -60 90 -46 46 -60 68
-60 90 0 19 -10 40 -30 60 -20 20 -30 41 -30 60 0 22 -14 44 -60 90 -46 46
-60 68 -60 90 0 19 -10 40 -30 60 -20 20 -30 41 -30 60 0 24 -18 47 -90 120
-72 73 -90 96 -90 120 0 22 -14 44 -60 90 -46 47 -60 68 -60 90 0 25 -25 54
-150 180 -126 126 -150 155 -150 180 0 45 -855 900 -900 900 -24 0 -50 21
-150 120 -99 99 -126 120 -150 120 -41 0 -120 79 -120 120 0 37 -23 60 -60 60
-19 0 -40 11 -60 30 -20 20 -41 30 -60 30 -22 0 -44 14 -90 60 -46 46 -68 60
-90 60 -19 0 -40 10 -60 30 -20 20 -41 30 -60 30 -22 0 -44 14 -90 60 -46 46
-68 60 -90 60 -19 0 -40 10 -60 30 -20 20 -41 30 -60 30 -19 0 -40 10 -60 30
-20 20 -41 30 -60 30 -19 0 -40 10 -60 30 -20 20 -41 30 -60 30 -19 0 -40 10
-60 30 -20 20 -41 30 -60 30 -19 0 -40 10 -60 30 -20 20 -41 30 -60 30 -19 0
-40 10 -60 30 -20 20 -41 30 -60 30 -19 0 -40 10 -60 30 -20 20 -41 30 -60 30
-19 0 -40 10 -60 30 -27 27 -38 30 -90 30 -52 0 -63 3 -90 30 -20 20 -41 30
-60 30 -19 0 -40 10 -60 30 -27 27 -38 30 -90 30 -52 0 -63 3 -90 30 -29 29
-34 30 -120 30 -86 0 -91 1 -120 30 -27 27 -38 30 -90 30 -52 0 -63 3 -90 30
-31 30 -31 30 -150 30 -119 0 -119 0 -150 30 -29 29 -34 30 -120 30 -86 0 -91
1 -120 30 -31 30 -31 30 -180 30 -149 0 -149 0 -180 30 -31 30 -31 30 -270 30
-239 0 -239 0 -270 30 -31 30 -31 30 -360 30 -329 0 -329 0 -360 -30z m480
-900 c31 -30 31 -30 330 -30 299 0 299 0 330 -30 31 -30 31 -30 210 -30 179 0
179 0 210 -30 29 -29 34 -30 120 -30 86 0 91 -1 120 -30 29 -29 34 -30 120
-30 86 0 91 -1 120 -30 29 -29 34 -30 120 -30 86 0 91 -1 120 -30 20 -20 41
-30 60 -30 19 0 40 -10 60 -30 27 -27 38 -30 90 -30 52 0 63 -3 90 -30 27 -27
38 -30 90 -30 59 0 59 0 120 -60 60 -60 61 -60 120 -60 59 0 60 0 120 -60 46
-46 68 -60 90 -60 19 0 40 -10 60 -30 27 -27 38 -30 90 -30 59 0 59 0 120 -60
46 -46 68 -60 90 -60 19 0 40 -10 60 -30 20 -20 41 -30 60 -30 22 0 44 -14 90
-60 46 -46 68 -60 90 -60 22 0 44 -14 90 -60 46 -46 68 -60 90 -60 24 0 47
-18 120 -90 73 -73 96 -90 120 -90 25 0 58 -28 210 -180 153 -153 185 -180
210 -180 45 0 420 -375 420 -420 0 -25 31 -60 210 -240 178 -179 210 -215 210
-240 0 -22 14 -43 60 -90 46 -46 60 -68 60 -90 0 -22 14 -44 60 -90 46 -46 60
-68 60 -90 0 -22 14 -44 60 -90 46 -46 60 -68 60 -90 0 -22 14 -44 60 -90 46
-46 60 -68 60 -90 0 -19 10 -40 30 -60 20 -20 30 -41 30 -60 0 -19 10 -40 30
-60 20 -20 30 -41 30 -60 0 -19 10 -40 30 -60 20 -20 30 -41 30 -60 0 -22 14
-44 60 -90 60 -61 60 -61 60 -120 0 -52 3 -63 30 -90 20 -20 30 -41 30 -60 0
-19 10 -40 30 -60 20 -20 30 -41 30 -60 0 -19 10 -40 30 -60 27 -27 30 -38 30
-90 0 -52 3 -63 30 -90 20 -20 30 -41 30 -60 0 -19 10 -40 30 -60 20 -20 30
-41 30 -60 0 -19 10 -40 30 -60 29 -29 30 -34 30 -120 0 -86 1 -91 30 -120 27
-27 30 -38 30 -90 0 -52 3 -63 30 -90 29 -29 30 -34 30 -120 0 -86 1 -91 30
-120 29 -29 30 -34 30 -120 0 -86 1 -91 30 -120 29 -29 30 -34 30 -120 0 -86
1 -91 30 -120 30 -31 30 -31 30 -210 0 -179 0 -179 30 -210 30 -31 30 -31 30
-300 0 -269 0 -269 30 -300 30 -31 30 -31 30 -390 0 -359 0 -359 -30 -390 -30
-31 -30 -31 -30 -300 0 -269 0 -269 -30 -300 -30 -31 -30 -31 -30 -210 0 -179
0 -179 -30 -210 -29 -29 -30 -34 -30 -120 0 -86 -1 -91 -30 -120 -29 -29 -30
-34 -30 -120 0 -86 -1 -91 -30 -120 -29 -29 -30 -34 -30 -120 0 -86 -1 -91
-30 -120 -27 -27 -30 -38 -30 -90 0 -52 -3 -63 -30 -90 -27 -27 -30 -38 -30
-90 0 -52 -3 -63 -30 -90 -27 -27 -30 -38 -30 -90 0 -52 -3 -63 -30 -90 -20
-20 -30 -41 -30 -60 0 -19 -10 -40 -30 -60 -27 -27 -30 -38 -30 -90 0 -52 -3
-63 -30 -90 -20 -20 -30 -41 -30 -60 0 -19 -10 -40 -30 -60 -20 -20 -30 -41
-30 -60 0 -19 -10 -40 -30 -60 -20 -20 -30 -41 -30 -60 0 -19 -10 -40 -30 -60
-20 -20 -30 -41 -30 -60 0 -22 -14 -44 -60 -90 -60 -61 -60 -61 -60 -120 0
-52 -3 -63 -30 -90 -20 -20 -30 -41 -30 -60 0 -19 -10 -40 -30 -60 -20 -20
-30 -41 -30 -60 0 -22 -14 -44 -60 -90 -46 -46 -60 -68 -60 -90 0 -22 -14 -44
-60 -90 -46 -46 -60 -68 -60 -90 0 -24 -18 -47 -90 -120 -73 -73 -90 -96 -90
-120 0 -25 -25 -54 -150 -180 -126 -126 -150 -155 -150 -180 0 -45 -795 -840
-840 -840 -24 0 -50 -21 -150 -120 -99 -99 -126 -120 -150 -120 -22 0 -43 -14
-90 -60 -46 -46 -68 -60 -90 -60 -22 0 -44 -14 -90 -60 -46 -46 -68 -60 -90
-60 -22 0 -44 -14 -90 -60 -46 -46 -68 -60 -90 -60 -22 0 -44 -14 -90 -60 -61
-60 -61 -60 -120 -60 -52 0 -63 -3 -90 -30 -20 -20 -41 -30 -60 -30 -22 0 -44
-14 -90 -60 -46 -46 -68 -60 -90 -60 -19 0 -40 -10 -60 -30 -27 -27 -38 -30
-90 -30 -52 0 -63 -3 -90 -30 -20 -20 -41 -30 -60 -30 -19 0 -40 -10 -60 -30
-27 -27 -38 -30 -90 -30 -52 0 -63 -3 -90 -30 -20 -20 -41 -30 -60 -30 -19 0
-40 -10 -60 -30 -29 -29 -34 -30 -120 -30 -86 0 -91 -1 -120 -30 -20 -20 -41
-30 -60 -30 -19 0 -40 -10 -60 -30 -31 -30 -31 -30 -150 -30 -119 0 -119 0
-150 -30 -31 -30 -31 -30 -150 -30 -119 0 -119 0 -150 -30 -31 -30 -31 -30
-180 -30 -149 0 -149 0 -180 -30 -31 -30 -31 -30 -690 -30 -659 0 -659 0 -690
30 -31 30 -31 30 -210 30 -179 0 -179 0 -210 30 -31 30 -31 30 -150 30 -119 0
-119 0 -150 30 -27 27 -38 30 -90 30 -52 0 -63 3 -90 30 -27 27 -38 30 -90 30
-52 0 -63 3 -90 30 -29 29 -34 30 -120 30 -86 0 -91 1 -120 30 -27 27 -38 30
-90 30 -52 0 -63 3 -90 30 -20 20 -41 30 -60 30 -19 0 -40 10 -60 30 -27 27
-38 30 -90 30 -52 0 -63 3 -90 30 -20 20 -41 30 -60 30 -19 0 -40 10 -60 30
-20 20 -41 30 -60 30 -19 0 -40 10 -60 30 -20 20 -41 30 -60 30 -19 0 -40 10
-60 30 -20 20 -41 30 -60 30 -19 0 -40 10 -60 30 -20 20 -41 30 -60 30 -22 0
-44 14 -90 60 -46 46 -68 60 -90 60 -19 0 -40 10 -60 30 -20 20 -41 30 -60 30
-19 0 -40 10 -60 30 -20 20 -41 30 -60 30 -24 0 -51 21 -150 120 -99 99 -126
120 -150 120 -24 0 -47 18 -120 90 -73 73 -96 90 -120 90 -25 0 -54 25 -180
150 -126 126 -155 150 -180 150 -44 0 -240 196 -240 240 0 25 -34 64 -240 270
-205 205 -240 245 -240 270 0 22 -14 43 -60 90 -46 47 -60 68 -60 90 0 24 -21
51 -120 150 -99 99 -120 126 -120 150 0 22 -14 43 -60 90 -46 46 -60 68 -60
90 0 19 -10 40 -30 60 -20 20 -30 41 -30 60 0 22 -14 44 -60 90 -46 46 -60 68
-60 90 0 19 -10 40 -30 60 -20 20 -30 41 -30 60 0 19 -10 40 -30 60 -20 20
-30 41 -30 60 0 19 -10 40 -30 60 -20 20 -30 41 -30 60 0 19 -10 40 -30 60
-20 20 -30 41 -30 60 0 19 -10 40 -30 60 -27 27 -30 38 -30 90 0 52 -3 63 -30
90 -20 20 -30 41 -30 60 0 19 -10 40 -30 60 -20 20 -30 41 -30 60 0 19 -10 40
-30 60 -29 29 -30 34 -30 120 0 86 -1 91 -30 120 -20 20 -30 41 -30 60 0 19
-10 40 -30 60 -27 27 -30 38 -30 90 0 52 -3 63 -30 90 -27 27 -30 38 -30 90 0
52 -3 63 -30 90 -29 29 -30 34 -30 120 0 86 -1 91 -30 120 -29 29 -30 34 -30
120 0 86 -1 91 -30 120 -30 31 -30 31 -30 180 0 149 0 149 -30 180 -30 31 -30
31 -30 210 0 179 0 179 -30 210 -30 31 -30 31 -30 780 0 749 0 749 30 780 30
31 30 31 30 180 0 149 0 149 30 180 30 31 30 31 30 210 0 179 0 179 30 210 29
29 30 34 30 120 0 86 1 91 30 120 29 29 30 34 30 120 0 86 1 91 30 120 27 27
30 38 30 90 0 52 3 63 30 90 27 27 30 38 30 90 0 52 3 63 30 90 20 20 30 41
30 60 0 19 10 40 30 60 29 29 30 34 30 120 0 86 1 91 30 120 20 20 30 41 30
60 0 19 10 40 30 60 27 27 30 38 30 90 0 59 0 59 60 120 46 46 60 68 60 90 0
19 10 40 30 60 27 27 30 38 30 90 0 52 3 63 30 90 20 20 30 41 30 60 0 19 10
40 30 60 20 20 30 41 30 60 0 22 14 44 60 90 46 46 60 68 60 90 0 19 10 40 30
60 20 20 30 41 30 60 0 22 14 44 60 90 46 46 60 68 60 90 0 22 14 44 60 90 45
46 60 68 60 90 0 36 23 60 60 60 37 0 60 24 60 60 0 19 11 40 30 60 20 20 30
41 30 60 0 24 18 47 90 120 73 73 90 96 90 120 0 45 915 960 960 960 22 0 43
14 90 60 46 45 68 60 90 60 36 0 60 23 60 60 0 37 24 60 60 60 22 0 44 15 90
60 46 46 68 60 90 60 19 0 40 10 60 30 20 20 41 30 60 30 22 0 44 14 90 60 46
46 68 60 90 60 22 0 44 14 90 60 46 46 68 60 90 60 19 0 40 10 60 30 20 20 41
30 60 30 19 0 40 10 60 30 20 20 41 30 60 30 19 0 40 10 60 30 20 20 41 30 60
30 19 0 40 10 60 30 20 20 41 30 60 30 19 0 40 10 60 30 20 20 41 30 60 30 19
0 40 10 60 30 27 27 38 30 90 30 52 0 63 3 90 30 20 20 41 30 60 30 19 0 40
10 60 30 27 27 38 30 90 30 52 0 63 3 90 30 29 29 34 30 120 30 86 0 91 1 120
30 27 27 38 30 90 30 52 0 63 3 90 30 29 29 34 30 120 30 86 0 91 1 120 30 31
30 31 30 180 30 149 0 149 0 180 30 31 30 31 30 330 30 299 0 299 0 330 30 31
30 31 30 210 30 179 0 179 0 210 -30z"/>
<path d="M7802 14850 c-32 -30 -32 -30 -362 -30 -330 0 -330 0 -370 -36 -46
-42 -50 -62 -15 -94 23 -22 25 -31 25 -111 0 -85 1 -90 30 -119 30 -31 30 -31
30 -239 0 -208 0 -208 25 -231 30 -28 31 -40 5 -70 -26 -30 -25 -42 5 -70 23
-22 25 -31 25 -111 0 -129 33 -119 -390 -119 -359 0 -359 0 -390 30 -31 30
-31 30 -180 30 -149 0 -149 0 -180 30 -31 30 -31 30 -150 30 -94 0 -122 -3
-134 -16 -24 -24 -24 -964 0 -988 29 -30 128 -22 164 14 31 30 31 30 270 30
239 0 239 0 270 30 31 30 31 30 330 30 299 0 299 0 345 -45 55 -56 59 -90 15
-135 -19 -19 -30 -41 -30 -59 0 -18 11 -40 30 -59 27 -28 30 -39 30 -92 0 -53
-3 -64 -30 -92 -37 -39 -39 -76 -5 -108 14 -13 25 -31 25 -40 0 -9 -11 -27
-25 -40 -25 -23 -25 -23 -25 -1431 0 -1408 0 -1408 -45 -1454 -46 -45 -46 -45
-345 -45 -435 0 -390 -113 -390 990 0 804 -2 900 -16 914 -23 24 -725 24 -748
0 -24 -24 -24 -4684 0 -4708 13 -14 59 -16 344 -16 329 0 329 0 375 45 45 46
45 46 45 1065 0 913 2 1020 16 1034 24 24 2224 24 2248 0 14 -14 16 -121 16
-1034 0 -1019 0 -1019 45 -1065 46 -45 46 -45 375 -45 285 0 331 2 344 16 24
24 24 4684 0 4708 -13 13 -42 16 -159 16 -138 0 -145 1 -173 25 -17 14 -35 25
-42 25 -7 0 -25 -11 -42 -25 -16 -14 -38 -25 -48 -25 -10 0 -32 11 -48 25 -36
30 -36 30 -72 3 -30 -22 -30 -22 -60 0 -39 29 -42 28 -84 -18 -36 -40 -36 -40
-36 -969 0 -832 -2 -931 -16 -945 -13 -14 -53 -16 -284 -16 -269 0 -269 0
-315 45 -45 46 -45 46 -45 1785 0 1567 2 1740 16 1754 13 14 53 16 284 16 269
0 269 0 300 -30 31 -30 31 -30 270 -30 239 0 239 0 270 -30 31 -30 31 -30 150
-30 94 0 122 3 134 16 24 24 24 964 0 988 -12 13 -40 16 -134 16 -119 0 -119
0 -150 -30 -31 -30 -31 -30 -180 -30 -149 0 -149 0 -180 -30 -31 -30 -31 -30
-390 -30 -313 0 -361 2 -374 16 -14 13 -16 53 -16 284 0 269 0 269 30 300 30
31 30 31 30 150 0 119 0 119 30 150 30 31 30 31 30 150 0 143 -4 150 -90 150
-52 0 -64 4 -93 30 -43 38 -73 38 -115 0z"/>
<path d="M8350 14490 c0 -13 7 -20 20 -20 13 0 20 7 20 20 0 13 -7 20 -20 20
-13 0 -20 -7 -20 -20z"/>
<path d="M11460 11250 c-27 -27 -38 -30 -90 -30 -52 0 -63 -3 -90 -30 -27 -27
-38 -30 -90 -30 -52 0 -63 -3 -90 -30 -20 -20 -41 -30 -60 -30 -19 0 -40 -10
-60 -30 -20 -20 -41 -30 -60 -30 -44 0 -420 -376 -420 -420 0 -22 -14 -43 -60
-90 -60 -61 -60 -61 -60 -150 0 -86 -1 -91 -30 -120 -30 -31 -30 -31 -30 -150
0 -120 0 -120 -30 -152 -18 -19 -30 -42 -30 -58 0 -16 12 -39 30 -58 30 -32
30 -32 30 -182 0 -149 0 -149 30 -180 27 -27 30 -38 30 -90 0 -52 3 -63 30
-90 20 -20 30 -41 30 -60 0 -44 376 -420 420 -420 19 0 40 -10 60 -30 20 -20
41 -30 60 -30 22 0 44 -14 90 -60 61 -60 61 -60 120 -60 52 0 63 -3 90 -30 27
-27 38 -30 90 -30 52 0 63 -3 90 -30 20 -20 41 -30 60 -30 19 0 40 -10 60 -30
29 -29 34 -30 120 -30 86 0 91 -1 120 -30 27 -27 38 -30 90 -30 52 0 63 -3 90
-30 20 -20 41 -30 60 -30 19 0 40 -10 60 -30 20 -20 41 -30 60 -30 22 0 44
-14 90 -60 47 -46 68 -60 90 -60 43 0 180 -137 180 -180 0 -19 10 -40 30 -60
30 -31 30 -31 30 -210 0 -179 0 -179 -30 -210 -20 -20 -30 -41 -30 -60 0 -44
-256 -300 -300 -300 -19 0 -40 -10 -60 -30 -20 -20 -41 -30 -60 -30 -19 0 -40
-10 -60 -30 -31 -30 -31 -30 -360 -30 -329 0 -329 0 -360 30 -20 20 -41 30
-60 30 -19 0 -40 10 -60 30 -20 20 -41 30 -60 30 -22 0 -44 14 -90 60 -46 46
-68 60 -90 60 -41 0 -120 79 -120 120 0 22 -12 42 -45 75 -44 43 -48 45 -105
45 -59 0 -59 0 -150 -90 -73 -73 -96 -90 -120 -90 -24 0 -49 -19 -135 -105
-105 -105 -105 -105 -105 -165 0 -60 0 -60 195 -255 166 -165 200 -195 225
-195 19 0 40 -10 60 -30 20 -20 41 -30 60 -30 19 0 40 -10 60 -30 20 -20 41
-30 60 -30 19 0 40 -10 60 -30 20 -20 41 -30 60 -30 19 0 40 -10 60 -30 31
-30 31 -30 180 -30 149 0 149 0 180 -30 31 -30 31 -30 330 -30 299 0 299 0
330 30 29 29 34 30 120 30 86 0 91 1 120 30 27 27 38 30 90 30 52 0 63 3 90
30 20 20 41 30 60 30 19 0 40 10 60 30 20 20 41 30 60 30 22 0 44 14 90 60 47
46 68 60 90 60 44 0 300 256 300 300 0 22 14 43 60 90 60 61 60 61 60 120 0
52 3 63 30 90 20 20 30 41 30 60 0 19 10 40 30 60 30 31 30 31 30 390 0 359 0
359 -30 390 -27 27 -30 38 -30 90 0 52 -3 63 -30 90 -20 20 -30 41 -30 60 0
44 -376 420 -420 420 -22 0 -43 14 -90 60 -61 60 -61 60 -120 60 -52 0 -63 3
-90 30 -20 20 -41 30 -60 30 -19 0 -40 10 -60 30 -27 27 -38 30 -90 30 -52 0
-63 3 -90 30 -27 27 -38 30 -90 30 -52 0 -63 3 -90 30 -27 27 -38 30 -90 30
-52 0 -63 3 -90 30 -27 27 -38 30 -90 30 -52 0 -63 3 -90 30 -27 27 -38 30
-90 30 -52 0 -63 3 -90 30 -20 20 -41 30 -60 30 -44 0 -300 256 -300 300 0 19
-10 40 -30 60 -30 31 -30 31 -30 240 0 209 0 209 30 240 20 20 30 41 30 60 0
43 137 180 180 180 22 0 43 14 90 60 61 60 61 60 205 60 138 0 144 1 173 25
36 30 36 30 72 3 30 -22 30 -22 60 0 36 27 36 27 72 -3 28 -23 37 -25 143 -25
113 0 115 0 145 -30 20 -20 41 -30 60 -30 19 0 40 -10 60 -30 20 -20 41 -30
61 -30 25 0 48 -18 143 -115 61 -63 118 -115 125 -115 7 0 125 113 262 251
212 213 249 255 249 280 0 43 -256 299 -300 299 -19 0 -40 10 -60 30 -20 20
-41 30 -60 30 -19 0 -40 10 -60 30 -27 27 -38 30 -90 30 -52 0 -63 3 -90 30
-29 29 -34 30 -120 30 -86 0 -91 1 -120 30 -31 30 -31 30 -450 30 -419 0 -419
0 -450 -30z"/>
<path d="M3496 11144 c-24 -24 -24 -4684 0 -4708 13 -14 61 -16 374 -16 413 0
390 -5 390 90 0 52 4 63 30 90 47 48 47 253 0 302 -18 19 -30 42 -30 58 0 16
12 39 30 58 29 31 30 35 30 122 0 87 -1 91 -30 122 -18 19 -30 42 -30 58 0 16
12 39 30 58 30 32 30 32 30 482 0 449 0 449 -30 480 -30 31 -30 31 -30 930 0
899 0 899 30 930 30 31 30 31 30 299 0 268 0 268 -25 291 -14 13 -25 31 -25
40 0 9 11 27 25 40 34 32 32 69 -5 108 -26 28 -30 39 -30 91 0 96 23 91 -390
91 -313 0 -361 -2 -374 -16z"/>
<path d="M7620 6030 c-20 -20 -41 -30 -60 -30 -19 0 -40 -10 -60 -30 -20 -20
-41 -30 -60 -30 -40 0 -120 -79 -120 -119 0 -16 -10 -37 -25 -51 -14 -13 -25
-31 -25 -40 0 -9 11 -27 25 -40 15 -14 25 -35 25 -51 0 -36 24 -59 60 -59 22
0 44 -15 90 -60 60 -60 61 -60 120 -60 93 0 90 8 90 -270 0 -239 0 -239 30
-270 30 -31 30 -31 30 -360 0 -329 0 -329 30 -360 30 -31 30 -31 30 -450 0
-419 0 -419 30 -450 30 -31 30 -31 30 -330 0 -299 0 -299 30 -330 30 -31 30
-31 30 -240 0 -210 0 -210 36 -250 20 -22 44 -40 54 -40 10 0 34 18 54 40 36
40 36 40 36 340 0 299 0 299 30 330 30 31 30 31 30 360 0 329 0 329 30 360 30
31 30 31 30 390 0 359 0 359 30 390 30 31 30 31 30 390 0 359 0 359 30 390 30
31 30 31 30 180 0 164 5 180 60 180 19 0 40 11 60 30 20 20 41 30 60 30 19 0
40 10 60 30 20 19 41 30 60 30 53 0 60 19 60 150 0 119 0 119 -45 165 -33 33
-53 45 -75 45 -19 0 -40 10 -60 30 -20 20 -41 30 -60 30 -19 0 -40 10 -60 30
-31 30 -31 30 -390 30 -359 0 -359 0 -390 -30z"/>
<path d="M5400 5550 c-27 -27 -38 -30 -90 -30 -59 0 -59 0 -120 -60 -46 -46
-68 -60 -90 -60 -22 0 -44 -14 -90 -60 -47 -46 -68 -60 -90 -60 -44 0 -240
-196 -240 -240 0 -19 -10 -40 -30 -60 -27 -27 -30 -38 -30 -90 0 -53 -4 -64
-30 -92 -49 -51 -42 -76 45 -163 75 -75 75 -75 195 -75 118 0 120 0 153 30 58
50 69 45 221 -105 115 -113 136 -139 136 -164 0 -26 26 -57 180 -211 152 -152
180 -185 180 -210 0 -24 21 -50 120 -150 98 -99 120 -126 120 -150 0 -36 23
-60 60 -60 37 0 60 -24 60 -61 0 -24 26 -54 150 -179 126 -126 150 -155 150
-180 0 -25 24 -54 150 -180 126 -126 150 -155 150 -180 0 -25 31 -61 210 -240
181 -181 210 -214 210 -241 0 -36 139 -179 175 -179 65 0 85 66 35 118 -20 21
-30 42 -30 62 0 19 -10 40 -30 60 -20 20 -30 41 -30 60 0 22 -14 44 -60 90
-46 46 -60 68 -60 90 0 19 -10 40 -30 60 -20 20 -30 41 -30 60 0 19 -10 40
-30 60 -20 20 -30 41 -30 60 0 22 -14 44 -60 90 -46 46 -60 68 -60 90 0 19
-10 40 -30 60 -20 20 -30 41 -30 60 0 19 -10 40 -30 60 -20 20 -30 41 -30 60
0 22 -14 44 -60 90 -46 46 -60 68 -60 90 0 22 -14 44 -60 90 -46 46 -60 68
-60 90 0 19 -10 40 -30 60 -20 20 -30 41 -30 60 0 19 -10 40 -30 60 -20 20
-30 41 -30 60 0 22 -14 44 -60 90 -46 46 -60 68 -60 90 0 22 -14 44 -60 90
-46 46 -60 68 -60 90 0 19 -10 40 -30 60 -20 20 -30 41 -30 60 0 22 -14 44
-60 90 -46 46 -60 68 -60 90 0 19 -10 40 -30 60 -20 20 -30 41 -30 60 0 22
-14 44 -60 90 -46 46 -60 68 -60 90 0 19 -10 40 -30 60 -20 20 -30 41 -30 60
0 20 -10 41 -30 62 -47 48 -41 76 30 148 60 61 60 61 60 210 0 149 0 149 -45
195 -46 45 -46 45 -165 45 -119 0 -119 0 -150 -30z"/>
<path d="M10245 5535 c-45 -46 -45 -46 -45 -165 0 -119 0 -119 30 -150 20 -20
30 -41 30 -60 0 -20 10 -41 30 -62 18 -19 30 -42 30 -58 0 -16 -12 -39 -30
-58 -20 -21 -30 -42 -30 -62 0 -19 -10 -40 -30 -60 -20 -20 -30 -41 -30 -60 0
-22 -14 -44 -60 -90 -46 -46 -60 -68 -60 -90 0 -19 -10 -40 -30 -60 -20 -20
-30 -41 -30 -60 0 -19 -10 -40 -30 -60 -20 -20 -30 -41 -30 -60 0 -22 -14 -44
-60 -90 -46 -46 -60 -68 -60 -90 0 -19 -10 -40 -30 -60 -20 -20 -30 -41 -30
-60 0 -22 -14 -44 -60 -90 -46 -46 -60 -68 -60 -90 0 -19 -10 -40 -30 -60 -20
-20 -30 -41 -30 -60 0 -22 -14 -44 -60 -90 -46 -46 -60 -68 -60 -90 0 -19 -10
-40 -30 -60 -20 -20 -30 -41 -30 -60 0 -22 -14 -44 -60 -90 -46 -46 -60 -68
-60 -90 0 -19 -10 -40 -30 -60 -20 -20 -30 -41 -30 -60 0 -22 -14 -44 -60 -90
-46 -46 -60 -68 -60 -90 0 -19 -10 -40 -30 -60 -20 -20 -30 -41 -30 -60 0 -22
-14 -44 -60 -90 -46 -46 -60 -68 -60 -90 0 -19 -10 -40 -30 -60 -20 -20 -30
-41 -30 -60 0 -19 -10 -40 -30 -60 -20 -20 -30 -41 -30 -60 0 -19 -10 -40 -30
-60 -20 -20 -30 -41 -30 -60 0 -19 -11 -40 -30 -60 -38 -39 -43 -161 -6 -168
29 -6 216 192 216 228 0 36 24 60 60 60 37 0 60 24 60 61 0 24 26 54 150 179
126 126 150 155 150 180 0 24 21 51 120 150 99 100 120 126 120 150 0 25 31
61 210 240 179 179 210 215 210 240 0 24 21 50 120 150 99 100 120 126 120
150 0 25 31 61 210 240 179 179 210 215 210 240 0 24 19 49 105 135 105 105
105 105 165 105 52 0 63 -3 90 -30 29 -29 34 -30 120 -30 86 0 91 1 120 30 20
19 41 30 60 30 50 0 60 21 60 120 0 86 -1 91 -30 120 -27 27 -30 38 -30 90 0
60 0 60 -195 255 -166 165 -200 195 -225 195 -19 0 -40 10 -60 30 -20 20 -41
30 -60 30 -19 0 -40 10 -60 30 -20 20 -41 30 -60 30 -19 0 -40 10 -60 30 -31
30 -31 30 -180 30 -149 0 -149 0 -195 -45z"/>
</g>
</svg>
