<svg xmlns="http://www.w3.org/2000/svg" viewBox="0 0 1776.000000 2112.000000" width="296" height="352">
<g transform="translate(0.000000,2112.000000) scale(0.100000,-0.100000)" fill="#0a5084" stroke="none">
<path d="M7576 19904 c-14 -14 -16 -222 -16 -2138 0 -1817 -2 -2125 -14 -2142
-14 -19 -51 -19 -2151 -24 -1884 -4 -2137 -7 -2145 -20 -13 -20 -13 -1560 0
-1580 8 -13 261 -16 2145 -20 2100 -5 2137 -5 2151 -24 23 -32 21 -5382 -2
-5415 -15 -22 -22 -23 -80 -18 -60 4 -65 7 -115 57 -42 42 -63 55 -98 62 -40
7 -55 17 -64 41 -1 4 -22 12 -45 18 -32 7 -57 23 -95 61 -40 40 -61 53 -97 60
-25 4 -47 13 -48 18 -8 24 -36 40 -67 40 -20 0 -40 7 -47 16 -47 60 -98 104
-120 104 -13 0 -42 13 -64 30 -21 16 -51 30 -65 30 -45 0 -179 140 -179 185 0
12 -14 40 -31 61 -26 33 -30 45 -26 78 7 50 -7 86 -33 86 -49 0 -47 -180 3
-239 15 -18 27 -43 27 -55 0 -30 30 -56 64 -56 20 0 47 -21 115 -90 64 -65 95
-90 113 -90 13 0 42 -13 64 -30 24 -18 51 -30 71 -30 30 0 57 -17 65 -41 2 -6
26 -15 53 -20 44 -8 59 -17 68 -42 1 -4 22 -12 45 -18 32 -7 57 -23 95 -61 40
-40 61 -53 96 -60 40 -7 55 -17 64 -41 1 -4 22 -12 46 -18 32 -7 56 -23 95
-63 33 -34 64 -55 84 -59 18 -4 49 -18 70 -32 43 -30 73 -32 95 -7 20 22 26
5572 7 5602 -8 13 -261 16 -2145 20 -2100 5 -2137 5 -2151 24 -21 29 -21 1423
0 1452 14 19 51 19 2151 24 1884 4 2137 7 2145 20 6 9 10 817 10 2136 0 1815
2 2123 14 2140 14 18 33 19 739 19 399 0 729 -4 734 -8 4 -5 10 -971 13 -2147
3 -1176 9 -2142 13 -2147 5 -4 971 -10 2147 -13 1176 -3 2142 -9 2147 -13 16
-17 15 -1440 -1 -1462 -14 -20 -41 -20 -2149 -25 -1175 -3 -2139 -9 -2144 -13
-9 -9 -21 -5276 -13 -5412 6 -89 21 -106 63 -67 12 11 39 25 60 30 20 6 51 22
68 36 17 14 42 26 56 26 23 0 73 43 121 104 7 9 27 16 47 16 31 0 59 16 67 40
1 5 23 14 48 18 36 7 57 20 97 60 37 37 63 54 94 61 37 8 53 19 61 43 2 4 25
12 53 17 27 5 51 14 53 20 12 35 33 41 156 41 122 0 122 0 164 38 23 21 42 46
42 55 0 25 -36 21 -54 -5 -24 -33 -133 -33 -168 0 -13 12 -31 22 -40 22 -15 0
-82 -66 -89 -88 -2 -7 -26 -16 -53 -21 -43 -8 -59 -18 -68 -43 -2 -4 -23 -12
-48 -16 -36 -7 -57 -20 -97 -60 -37 -37 -63 -54 -94 -61 -37 -8 -53 -19 -61
-43 -2 -4 -25 -12 -53 -17 -27 -5 -51 -14 -53 -20 -8 -24 -35 -41 -65 -41 -20
0 -47 -12 -71 -30 -22 -17 -46 -30 -55 -30 -8 0 -32 -12 -53 -26 -74 -52 -68
-299 -68 2630 0 2264 2 2635 14 2651 14 20 47 20 2149 25 1175 3 2139 9 2144
13 10 11 21 1484 10 1515 -4 13 -16 26 -28 29 -11 3 -26 18 -35 34 -14 29 -14
29 -2120 31 -2077 3 -2106 3 -2120 23 -12 16 -14 312 -14 2113 0 2144 1 2122
-36 2122 -7 0 -20 14 -29 30 -16 30 -16 30 -770 30 -672 0 -755 -2 -769 -16z"/>
<path d="M2769 11918 c-16 -30 -28 -38 -64 -38 -22 0 -43 -13 -85 -54 -70 -69
-90 -75 -112 -36 -17 30 -17 30 -195 30 -179 0 -179 0 -251 -66 -71 -66 -91
-104 -54 -104 10 0 40 24 66 53 49 52 49 52 242 55 192 4 192 4 205 -20 32
-61 68 -53 160 35 42 39 79 79 81 87 4 13 32 15 177 15 174 0 180 -1 194 -38
1 -4 21 -12 44 -17 32 -8 59 -27 124 -91 61 -61 92 -84 120 -90 30 -7 62 -34
153 -124 94 -94 120 -115 144 -115 24 0 51 -22 147 -116 91 -90 126 -119 155
-125 29 -7 68 -39 185 -154 153 -150 169 -160 213 -129 31 22 29 64 -7 101
-28 30 -29 33 -29 143 -1 115 4 136 39 171 14 14 19 31 17 57 -4 51 -33 54
-78 7 -35 -36 -35 -36 -40 -161 -8 -189 -39 -200 -180 -63 -61 59 -94 84 -121
90 -29 7 -67 39 -182 154 -121 121 -151 145 -175 145 -24 0 -47 18 -118 86
-65 64 -97 89 -125 95 -27 6 -60 31 -123 94 -55 54 -95 85 -109 85 -41 0 -65
12 -76 36 -16 36 -323 38 -342 2z"/>
<path d="M13569 11918 c-16 -31 -28 -38 -67 -38 -28 0 -49 -16 -153 -120 -100
-99 -126 -120 -150 -120 -25 0 -50 -20 -145 -115 -91 -90 -123 -117 -153 -124
-28 -6 -59 -29 -120 -90 -60 -59 -93 -84 -119 -90 -40 -8 -226 -176 -237 -212
-7 -22 -37 -25 -53 -6 -6 7 -9 66 -8 147 2 149 -4 180 -33 180 -32 0 -35 -16
-32 -200 2 -143 5 -178 18 -192 20 -22 68 -23 85 -3 7 9 19 21 27 28 8 7 55
51 103 100 67 66 98 89 127 96 28 6 59 29 120 90 61 60 93 84 120 90 28 6 60
30 125 95 70 68 94 86 118 86 23 0 50 22 149 120 99 98 126 120 150 120 29 0
111 67 121 100 6 20 349 23 356 2 8 -24 31 -39 71 -46 37 -6 41 -9 47 -44 10
-58 28 -72 92 -72 45 0 62 5 91 28 36 27 38 27 186 27 150 0 150 0 216 -68 50
-50 69 -77 74 -105 4 -22 19 -48 37 -65 44 -41 41 -203 -5 -240 -30 -24 -32
-34 -29 -146 2 -64 2 -64 62 -123 60 -58 60 -58 60 -178 0 -121 0 -121 -29
-148 -17 -16 -32 -42 -36 -64 -6 -31 -32 -62 -154 -183 -146 -147 -146 -147
-120 -168 17 -14 29 -37 34 -62 4 -25 17 -50 36 -67 45 -42 45 -254 0 -296
-17 -16 -32 -42 -36 -64 -10 -52 -193 -238 -234 -238 -34 0 -56 -24 -64 -68
-4 -18 -19 -43 -33 -56 -28 -23 -26 -46 2 -46 9 0 100 85 204 188 164 164 189
193 195 228 5 24 17 47 33 60 40 32 39 256 0 288 -17 14 -28 36 -33 64 -5 32
-13 46 -31 54 -42 20 -27 44 120 190 124 123 145 149 151 183 5 25 17 48 33
61 25 20 25 24 25 143 0 122 0 122 -31 151 -22 20 -32 38 -32 58 0 18 -12 45
-31 68 -42 53 -40 142 6 178 42 34 44 196 3 230 -16 13 -28 36 -33 61 -6 33
-23 56 -112 142 -105 103 -105 103 -277 103 -167 0 -173 -1 -206 -25 -18 -13
-38 -21 -44 -17 -6 4 -28 18 -48 30 -20 13 -40 32 -43 42 -6 20 -16 24 -76 34
-25 5 -39 14 -47 31 -17 37 -324 39 -343 3z"/>
<path d="M4641 11634 c-39 -39 -61 -54 -81 -54 -41 0 -119 -72 -104 -97 27
-45 68 -30 158 61 46 47 89 86 94 86 6 0 135 -125 287 -277 233 -235 277 -284
285 -316 7 -32 52 -82 298 -328 246 -246 291 -295 297 -326 7 -39 73 -113 100
-113 21 0 19 36 -3 52 -11 7 -22 31 -26 53 -7 34 -39 70 -272 304 -224 225
-266 271 -274 304 -7 33 -56 86 -343 373 -184 184 -340 334 -348 333 -8 0 -38
-25 -68 -55z"/>
<path d="M11802 11535 c-133 -133 -155 -159 -163 -196 -11 -48 -22 -59 -60
-59 -31 0 -54 -24 -62 -65 -4 -23 -83 -108 -327 -352 -277 -277 -323 -327
-331 -361 -6 -30 -28 -59 -93 -124 -71 -72 -86 -93 -92 -127 -4 -26 -14 -46
-29 -55 -13 -9 -24 -29 -28 -51 -3 -20 -17 -49 -30 -64 -46 -55 -43 -176 5
-169 17 2 24 13 30 42 5 21 19 52 33 68 21 24 25 40 25 89 0 54 3 63 29 87 18
16 32 42 36 65 6 31 27 58 117 146 88 87 111 117 118 148 8 33 56 86 335 368
180 182 332 336 338 342 7 7 31 30 55 50 30 27 46 50 52 78 9 41 184 235 211
235 7 0 35 -23 62 -51 36 -37 62 -55 90 -61 28 -6 52 -23 85 -58 47 -52 82
-65 82 -31 0 28 -136 148 -176 156 -22 4 -51 23 -83 55 -28 28 -56 50 -63 49
-7 0 -82 -69 -166 -154z"/>
<path d="M2896 11624 c-9 -8 -16 -19 -16 -24 0 -5 -13 -16 -30 -25 -24 -13
-30 -22 -30 -49 0 -43 79 -126 120 -126 20 0 75 -49 239 -210 178 -176 217
-210 242 -210 23 0 47 -18 118 -90 72 -72 96 -90 119 -90 24 0 56 -27 182
-150 124 -122 158 -150 181 -150 20 0 41 -13 71 -42 42 -42 43 -45 43 -108 0
-63 -1 -66 -40 -104 -64 -63 -91 -57 -195 45 -63 61 -94 84 -122 91 -29 6 -57
27 -116 88 -74 77 -102 93 -118 68 -12 -19 194 -210 237 -219 27 -6 60 -32
123 -94 113 -110 117 -110 222 -9 79 76 79 76 79 134 0 57 0 57 -138 193 -112
111 -144 137 -167 137 -23 0 -52 23 -149 120 -99 99 -125 120 -150 120 -24 0
-51 21 -151 120 -95 94 -127 120 -148 120 -34 0 -415 370 -410 398 8 44 68 26
141 -42 38 -35 71 -56 93 -60 23 -5 49 -23 80 -56 46 -49 76 -62 90 -38 11 18
-140 155 -181 162 -21 4 -54 26 -91 61 -61 59 -98 70 -128 39z"/>
<path d="M13665 11595 c-48 -44 -49 -46 -31 -60 18 -14 22 -13 46 10 49 47
134 16 116 -43 -13 -40 -146 -162 -177 -162 -25 0 -55 -25 -181 -150 -124
-123 -156 -150 -180 -150 -23 0 -51 -23 -149 -120 -100 -99 -126 -120 -150
-120 -24 0 -47 -17 -120 -90 -73 -73 -95 -90 -119 -90 -25 0 -49 -18 -135
-104 -105 -105 -105 -105 -105 -167 0 -67 -7 -57 108 -162 10 -9 23 -23 30
-32 22 -25 86 -17 90 13 4 24 -2 27 -60 37 -35 5 -38 9 -44 46 -4 22 -20 56
-36 77 -38 47 -33 75 22 131 30 30 49 41 71 41 24 0 46 17 120 90 73 74 95 90
119 90 26 0 50 20 151 120 100 99 126 120 150 120 25 0 55 25 181 150 125 124
155 150 180 150 23 0 52 23 162 133 146 145 150 152 137 221 -11 59 -20 66
-91 66 -52 0 -59 -3 -105 -45z"/>
<path d="M1918 11545 c-15 -33 3 -75 32 -75 29 0 47 42 32 75 -7 15 -20 25
-32 25 -12 0 -25 -10 -32 -25z"/>
<path d="M2298 11504 c-14 -17 -44 -46 -70 -69 -27 -23 -22 -52 17 -91 23 -23
35 -44 35 -63 0 -34 27 -61 62 -61 19 0 67 -42 206 -180 153 -152 186 -180
211 -180 24 0 50 -21 150 -120 98 -98 126 -120 149 -120 24 0 63 -34 240 -210
180 -179 215 -210 241 -210 24 0 48 -19 133 -102 103 -103 103 -103 103 -170
0 -59 -3 -70 -22 -83 -26 -18 -31 -55 -8 -55 8 0 34 19 57 41 41 39 43 45 43
99 0 57 0 57 -167 224 -139 138 -172 166 -196 166 -24 0 -63 34 -240 210 -180
179 -215 210 -241 210 -24 0 -50 21 -150 120 -98 98 -126 120 -149 120 -25 0
-60 31 -219 190 -204 202 -206 205 -196 250 8 41 92 46 118 6 10 -16 28 -25
54 -29 33 -4 54 -21 147 -116 60 -61 117 -111 126 -111 44 0 25 29 -103 153
-119 116 -138 131 -179 139 -25 4 -47 13 -48 18 -13 39 -80 54 -104 24z"/>
<path d="M14224 11435 c-63 -63 -96 -88 -123 -94 -45 -10 -303 -254 -294 -277
11 -30 42 -10 146 96 85 87 116 112 145 118 28 7 59 30 122 92 85 84 85 84
152 84 78 0 83 -3 82 -52 -1 -50 -172 -227 -233 -241 -30 -6 -64 -33 -156
-125 -96 -95 -123 -116 -147 -116 -24 0 -58 -29 -205 -175 -143 -143 -183
-177 -214 -184 -30 -7 -66 -37 -180 -150 -113 -113 -150 -143 -180 -150 -47
-11 -309 -265 -309 -301 0 -13 29 -50 81 -101 81 -79 81 -79 138 -79 53 0 60
3 105 44 48 43 54 66 16 66 -10 0 -26 -10 -35 -22 -13 -20 -24 -23 -83 -23
-83 1 -146 50 -146 115 1 49 173 225 234 239 31 7 65 35 181 150 113 113 150
143 180 150 29 7 67 38 185 155 121 120 152 146 176 146 24 0 54 25 175 145
117 117 153 147 183 154 47 11 310 265 310 300 0 22 -32 61 -50 61 -5 0 -16
14 -25 30 -15 29 -19 30 -80 30 -64 0 -64 0 -151 -85z"/>
<path d="M13416 11411 c-93 -94 -109 -121 -68 -121 23 1 216 195 208 209 -16
25 -46 6 -140 -88z"/>
<path d="M1924 11318 c-4 -7 -7 -65 -5 -130 2 -118 2 -118 -31 -148 -61 -56
-41 -200 22 -160 11 7 14 25 13 69 -2 60 -2 60 57 119 68 67 78 104 38 144
-12 12 -27 43 -34 68 -11 46 -43 66 -60 38z"/>
<path d="M3364 11319 c-8 -14 125 -148 148 -149 38 0 28 25 -38 91 -67 66 -95
81 -110 58z"/>
<path d="M11957 11262 c-25 -27 -21 -66 11 -103 40 -48 40 -151 0 -180 -19
-14 -29 -32 -34 -64 -4 -30 -13 -49 -29 -59 -15 -10 -26 -30 -30 -56 -5 -32
-19 -53 -60 -94 -38 -38 -55 -63 -60 -90 -6 -27 -21 -50 -56 -83 -49 -46 -64
-83 -32 -83 30 0 151 133 159 175 5 27 22 52 60 90 42 41 55 61 60 93 4 27 14
46 29 56 15 10 25 30 30 58 5 29 16 50 34 65 26 21 26 22 23 140 -3 90 -7 122
-19 136 -21 22 -65 22 -86 -1z"/>
<path d="M4655 11228 c-39 -40 -39 -40 -39 -131 1 -84 2 -91 26 -111 16 -13
28 -36 33 -60 5 -30 20 -53 59 -92 39 -37 55 -62 60 -90 6 -27 22 -52 60 -90
38 -37 55 -62 60 -89 8 -42 129 -175 159 -175 32 0 17 37 -32 83 -35 33 -50
56 -56 83 -5 27 -21 52 -59 90 -39 37 -55 62 -60 90 -6 27 -22 52 -60 90 -39
38 -55 62 -60 90 -5 23 -19 50 -36 65 -27 25 -28 28 -27 125 2 127 12 131 101
38 45 -47 66 -78 71 -103 8 -40 725 -770 758 -771 44 0 -6 58 -332 383 -300
299 -350 353 -356 384 -7 40 -189 234 -217 232 -7 0 -31 -19 -53 -41z"/>
<path d="M13138 11190 c-59 -61 -87 -82 -115 -88 -45 -10 -251 -200 -239 -220
16 -26 44 -9 119 69 61 63 86 82 114 86 42 7 251 201 239 222 -15 24 -45 8
-118 -69z"/>
<path d="M2824 11138 c-12 -20 253 -269 297 -279 30 -7 65 -36 176 -149 131
-132 162 -155 179 -129 13 21 -312 330 -357 340 -30 7 -61 32 -146 119 -103
105 -133 125 -149 98z"/>
<path d="M3604 11139 c-8 -14 125 -148 148 -149 38 0 28 25 -38 91 -67 66 -95
81 -110 58z"/>
<path d="M11826 11142 c-2 -4 -7 -24 -11 -44 -6 -32 -42 -72 -242 -272 -221
-220 -250 -256 -205 -256 22 0 522 503 522 525 0 40 -47 75 -64 47z"/>
<path d="M3844 10959 c-8 -14 245 -268 268 -269 43 0 23 30 -98 151 -122 122
-154 144 -170 118z"/>
<path d="M13566 10901 c-65 -65 -76 -91 -39 -91 23 0 152 130 146 146 -10 27
-39 12 -107 -55z"/>
<path d="M2152 10882 c-23 -20 -42 -43 -42 -51 0 -8 137 -152 305 -319 260
-258 311 -306 344 -313 31 -7 66 -36 184 -154 121 -120 151 -145 175 -145 34
0 407 -363 418 -407 7 -28 0 -111 -11 -121 -4 -4 -50 -7 -104 -7 -96 0 -96 0
-176 83 -44 45 -87 82 -97 82 -43 0 -26 -28 76 -126 107 -104 107 -104 201
-104 94 0 95 0 109 29 9 16 24 31 35 34 30 8 39 43 34 127 -6 84 -21 110 -63
110 -22 0 -68 41 -238 210 -178 177 -215 210 -240 210 -24 0 -51 21 -147 116
-91 91 -126 119 -155 125 -31 7 -80 51 -289 261 -271 272 -277 280 -226 328
72 67 -17 98 -93 32z"/>
<path d="M14385 10875 c-48 -44 -49 -46 -31 -60 18 -14 22 -13 46 10 50 47
134 16 116 -43 -13 -40 -207 -222 -237 -222 -23 0 -64 -36 -240 -210 -177
-175 -217 -210 -241 -210 -24 0 -56 -27 -180 -150 -123 -123 -156 -150 -179
-150 -33 0 -289 -241 -289 -272 0 -37 37 -16 118 67 67 70 88 85 113 85 25 0
53 23 181 150 125 125 155 150 180 150 24 0 58 29 210 180 147 146 186 180
209 180 30 0 410 364 423 406 9 28 -9 115 -25 125 -8 5 -39 9 -69 9 -52 0 -59
-3 -105 -45z"/>
<path d="M2350 10845 c-14 -17 -8 -27 43 -74 23 -20 50 -46 61 -58 11 -13 28
-23 37 -23 39 0 30 25 -32 86 -79 79 -93 88 -109 69z"/>
<path d="M12598 10770 c-60 -62 -86 -82 -117 -89 -31 -7 -62 -31 -151 -120
-87 -86 -121 -113 -150 -120 -44 -10 -368 -319 -356 -340 17 -26 48 -3 179
129 112 114 146 142 177 149 29 6 62 33 151 121 88 87 121 113 147 117 41 7
250 202 238 222 -15 24 -45 8 -118 -69z"/>
<path d="M1870 10780 c-11 -6 -15 -27 -15 -68 0 -57 2 -61 43 -101 23 -22 48
-41 56 -41 26 0 26 29 -2 50 -23 19 -26 28 -27 86 -2 75 -18 98 -55 74z"/>
<path d="M13266 10661 c-121 -121 -141 -151 -98 -151 23 1 276 255 268 269
-16 26 -48 4 -170 -118z"/>
<path d="M14136 10691 c-93 -94 -109 -121 -68 -121 23 1 216 195 208 209 -16
25 -46 6 -140 -88z"/>
<path d="M2584 10658 c-5 -7 34 -51 101 -115 101 -97 111 -104 144 -101 58 5
52 49 -7 61 -37 7 -56 22 -120 88 -74 76 -103 92 -118 67z"/>
<path d="M4204 10659 c-8 -14 125 -148 148 -149 38 0 28 25 -38 91 -67 66 -95
81 -110 58z"/>
<path d="M13822 10435 c-94 -96 -118 -115 -143 -115 -25 0 -53 -23 -175 -145
-126 -125 -151 -145 -187 -152 -59 -12 -63 -56 -5 -61 34 -3 43 3 159 117 98
97 128 121 151 121 33 0 366 319 354 339 -16 26 -47 5 -154 -104z"/>
<path d="M4444 10478 c-12 -19 194 -210 238 -220 29 -6 61 -32 145 -118 103
-105 133 -125 149 -98 13 20 -253 269 -298 280 -29 6 -57 27 -116 88 -74 77
-102 93 -118 68z"/>
<path d="M11198 10453 c-36 -39 -40 -63 -9 -63 22 0 95 75 87 89 -13 21 -42
11 -78 -26z"/>
<path d="M12939 10392 c-91 -92 -109 -122 -71 -122 23 1 216 195 208 209 -16
25 -46 6 -137 -87z"/>
<path d="M2045 10420 c-3 -5 19 -34 50 -65 63 -64 63 -64 29 -104 -18 -22 -24
-40 -22 -63 9 -93 118 1 118 100 0 67 -13 85 -69 96 -19 3 -40 15 -48 26 -15
21 -48 27 -58 10z"/>
<path d="M2944 10359 c-8 -14 305 -328 328 -329 44 -1 21 32 -128 181 -150
149 -183 174 -200 148z"/>
<path d="M11558 10333 c-36 -39 -40 -63 -9 -63 22 0 81 61 81 83 0 29 -34 19
-72 -20z"/>
<path d="M12336 10331 c-38 -39 -41 -61 -7 -61 25 0 85 65 78 84 -10 25 -30
19 -71 -23z"/>
<path d="M5110 10291 c0 -11 10 -27 21 -35 23 -16 36 -85 25 -129 -3 -14 -31
-50 -62 -80 -30 -31 -53 -61 -49 -67 10 -17 44 -11 55 10 7 12 25 22 50 26 59
10 68 27 72 125 3 86 3 86 -40 128 -46 44 -72 52 -72 22z"/>
<path d="M11046 10302 c-3 -5 -8 -27 -12 -50 -4 -27 -14 -46 -30 -56 -16 -11
-25 -29 -29 -60 -5 -31 -14 -50 -30 -60 -15 -10 -25 -29 -30 -58 -5 -28 -16
-50 -32 -63 -46 -38 -41 -165 7 -165 27 0 41 39 34 95 -6 40 -4 46 24 72 21
19 33 41 38 70 4 28 14 47 29 57 15 10 26 30 30 58 5 27 18 52 36 69 31 29 35
48 19 80 -11 19 -44 26 -54 11z"/>
<path d="M5650 10171 c0 -11 8 -26 18 -33 11 -7 22 -31 26 -53 5 -25 19 -50
37 -67 26 -24 28 -32 26 -87 -2 -57 0 -62 32 -91 31 -29 33 -34 27 -75 -7 -56
7 -95 34 -95 51 0 52 124 1 170 -28 27 -30 33 -28 90 2 56 -1 64 -24 83 -17
14 -29 37 -34 61 -11 66 -115 152 -115 97z"/>
<path d="M6010 10170 c0 -13 7 -20 20 -20 13 0 20 7 20 20 0 13 -7 20 -20 20
-13 0 -20 -7 -20 -20z"/>
<path d="M11461 10171 c-6 -11 -11 -27 -11 -35 0 -20 84 -106 104 -106 27 0
30 23 4 45 -14 12 -28 39 -34 65 -10 51 -44 68 -63 31z"/>
<path d="M2418 10065 c-17 -21 -28 -31 -58 -54 -25 -20 -25 -20 262 -305 242
-241 291 -286 315 -286 24 0 73 -43 301 -270 227 -224 278 -270 301 -270 23 0
57 -29 181 -150 123 -121 158 -150 180 -150 23 0 52 -24 149 -120 107 -107
124 -120 155 -120 32 0 66 -20 66 -40 0 -10 16 -15 72 -24 24 -5 39 -13 43
-26 6 -20 16 -24 76 -34 25 -4 39 -14 47 -30 9 -20 19 -24 74 -28 49 -3 72
-10 98 -30 31 -23 46 -27 128 -30 87 -3 96 -5 115 -29 12 -14 37 -29 55 -32
18 -4 47 -18 65 -31 28 -21 45 -25 130 -28 95 -3 108 -7 120 -41 1 -4 21 -12
43 -17 33 -8 62 -30 154 -121 87 -86 121 -114 150 -120 30 -7 70 -42 213 -184
148 -147 181 -175 205 -175 25 0 55 -25 180 -150 151 -150 151 -150 241 -150
95 0 119 13 189 103 7 10 27 17 47 17 31 0 59 16 67 40 1 5 25 14 52 19 43 8
59 18 68 43 2 4 25 12 53 17 27 5 51 14 53 20 8 25 35 41 68 41 32 0 82 39
132 103 7 10 27 17 47 17 31 0 40 5 73 45 7 8 28 15 47 15 33 0 82 38 133 103
7 10 27 17 47 17 31 0 59 16 67 40 1 5 23 14 48 18 36 7 57 21 103 65 43 42
65 57 86 57 38 0 63 30 59 71 -5 59 -32 50 -118 -40 -63 -66 -84 -82 -120 -90
-38 -8 -54 -19 -62 -43 -2 -4 -25 -12 -53 -17 -27 -5 -51 -14 -53 -20 -8 -25
-35 -41 -68 -41 -32 0 -82 -39 -132 -103 -7 -10 -27 -17 -47 -17 -31 0 -40 -5
-73 -45 -7 -8 -28 -15 -47 -15 -33 0 -82 -38 -133 -103 -7 -10 -27 -17 -47
-17 -31 0 -59 -16 -67 -40 -1 -5 -25 -14 -52 -19 -43 -8 -59 -18 -68 -43 -2
-4 -25 -12 -53 -17 -27 -5 -51 -14 -53 -20 -8 -25 -35 -41 -67 -41 -22 0 -45
-9 -65 -27 -18 -15 -44 -26 -60 -26 -16 0 -42 11 -60 26 -18 15 -44 27 -60 27
-22 0 -56 28 -178 150 -125 124 -156 150 -180 150 -24 0 -55 26 -176 146 -118
117 -156 148 -185 155 -29 6 -64 34 -155 124 -77 76 -124 115 -139 115 -40 0
-64 11 -75 35 -9 19 -20 23 -74 27 -49 3 -72 10 -98 30 -27 20 -50 27 -99 30
-54 4 -67 9 -85 30 -17 21 -31 26 -82 30 -45 3 -69 10 -95 30 -30 23 -45 27
-132 30 -96 3 -108 7 -120 41 -1 5 -25 13 -52 18 -28 5 -52 14 -53 19 -8 24
-36 40 -67 40 -20 0 -40 7 -47 17 -46 58 -100 103 -127 103 -23 0 -56 28 -181
150 -121 119 -158 150 -180 150 -21 0 -58 31 -180 150 -120 118 -158 150 -179
150 -22 0 -74 47 -267 238 -198 196 -246 240 -275 245 -41 7 -472 428 -467
456 2 10 16 17 40 19 33 3 42 -3 95 -56 42 -42 68 -60 93 -64 29 -5 61 -32
175 -147 131 -133 164 -156 181 -130 4 7 -73 90 -190 205 -178 176 -199 194
-230 194 -32 0 -41 5 -74 45 -17 20 -68 19 -84 0z"/>
<path d="M11710 10064 c-11 -12 -10 -18 4 -32 16 -16 18 -16 31 2 24 33 -10
61 -35 30z"/>
<path d="M14243 10073 c-20 -7 -15 -34 9 -60 49 -52 -4 -157 -87 -170 -29 -5
-74 -45 -272 -240 -193 -190 -244 -235 -272 -240 -27 -5 -79 -51 -274 -245
-201 -199 -245 -238 -269 -238 -23 0 -47 -19 -119 -90 -73 -74 -95 -90 -119
-90 -26 0 -50 -20 -151 -120 -99 -98 -126 -120 -150 -120 -27 0 -81 -44 -127
-103 -7 -10 -27 -17 -47 -17 -32 0 -59 -16 -67 -42 -3 -7 -32 -13 -74 -16 -53
-3 -76 -10 -101 -28 -18 -13 -47 -27 -65 -31 -18 -3 -43 -18 -55 -32 -20 -24
-28 -26 -120 -29 -91 -4 -99 -6 -119 -30 -18 -21 -31 -26 -85 -30 -49 -3 -72
-10 -99 -30 -26 -20 -49 -27 -97 -30 -52 -4 -66 -8 -75 -26 -15 -29 -28 -36
-66 -36 -29 0 -53 -20 -214 -180 -128 -128 -187 -180 -204 -180 -12 0 -36 -11
-52 -25 -48 -40 -72 -34 -72 19 0 37 -5 48 -27 64 -26 19 -28 26 -28 87 -1 60
-3 70 -27 89 -17 14 -28 35 -33 64 -4 26 -15 48 -28 57 -14 9 -26 34 -32 63
-11 52 -39 68 -62 36 -20 -28 -16 -54 15 -83 18 -16 32 -42 36 -66 5 -25 19
-50 37 -67 26 -24 28 -32 26 -88 -2 -57 0 -64 26 -84 15 -12 27 -31 27 -43 0
-39 19 -72 45 -79 14 -3 25 -12 25 -19 0 -23 30 -45 61 -45 24 0 58 29 211
180 149 148 186 180 209 180 29 0 111 68 121 100 4 12 27 16 104 18 86 3 103
7 131 28 18 13 47 27 65 31 18 3 43 18 55 32 20 24 28 26 120 29 91 4 99 6
119 30 18 21 31 26 85 30 48 3 72 10 97 29 18 13 48 27 68 30 24 4 39 13 46
29 8 16 23 26 47 30 54 9 71 14 71 24 0 20 34 40 66 40 31 0 48 13 155 120
100 99 126 120 150 120 24 0 47 17 120 90 73 74 95 90 120 90 26 0 59 29 241
210 173 172 216 210 239 210 22 0 66 38 240 210 167 165 218 210 239 210 20 0
64 37 195 166 170 166 170 166 168 221 -3 78 -41 110 -100 86z"/>
<path d="M2039 10043 c-17 -44 -5 -114 24 -138 15 -12 27 -36 32 -59 7 -42 71
-116 100 -116 21 0 19 36 -3 52 -11 7 -22 31 -26 53 -5 25 -19 50 -38 68 -28
26 -30 32 -24 72 11 83 -39 135 -65 68z"/>
<path d="M6059 10043 c-19 -49 -5 -111 31 -145 30 -27 32 -33 26 -73 -7 -56 7
-95 34 -95 52 0 52 124 0 172 -30 27 -32 33 -26 73 11 83 -39 135 -65 68z"/>
<path d="M14074 9967 c-40 -40 -67 -59 -92 -63 -29 -6 -72 -43 -241 -211 -164
-163 -212 -205 -241 -212 -24 -5 -54 -26 -89 -61 -51 -51 -54 -52 -124 -59
-68 -6 -72 -7 -72 -31 0 -24 3 -25 67 -28 67 -3 67 -3 123 52 39 39 66 57 92
62 32 6 70 39 243 211 158 157 212 204 237 209 17 3 47 20 65 38 19 17 53 48
76 69 46 42 49 49 27 67 -13 11 -24 4 -71 -43z"/>
<path d="M3364 9998 c-12 -20 203 -218 237 -218 63 0 56 51 -10 65 -24 5 -55
30 -109 86 -74 76 -103 92 -118 67z"/>
<path d="M10500 9805 c-5 -14 -7 -45 -4 -70 6 -40 4 -46 -27 -74 -32 -30 -33
-31 -33 -126 -1 -92 -2 -96 -29 -118 -50 -39 -47 -167 3 -167 27 0 41 39 34
95 -6 40 -4 46 27 74 32 30 33 31 33 126 1 92 2 96 29 118 33 26 46 93 28 140
-14 35 -48 37 -61 2z"/>
<path d="M10806 9702 c-2 -4 -7 -25 -11 -47 -5 -25 -17 -48 -34 -62 -23 -19
-26 -27 -24 -83 2 -57 0 -63 -28 -90 -50 -45 -50 -230 0 -230 30 0 35 16 35
117 1 91 2 94 31 117 28 23 30 28 28 85 -2 57 -1 63 32 96 37 36 42 54 25 86
-11 19 -44 26 -54 11z"/>
<path d="M2242 9648 c-19 -19 -15 -32 22 -67 43 -41 70 -39 74 8 6 56 -59 96
-96 59z"/>
<path d="M6178 9625 c-15 -33 3 -75 32 -75 12 0 25 10 32 25 15 33 -3 75 -32
75 -12 0 -25 -10 -32 -25z"/>
<path d="M11656 9581 c-23 -26 -18 -84 8 -89 22 -5 86 54 86 79 0 33 -67 40
-94 10z"/>
<path d="M5878 9565 c-15 -33 3 -75 32 -75 29 0 47 42 32 75 -7 15 -20 25 -32
25 -12 0 -25 -10 -32 -25z"/>
<path d="M12130 9570 c0 -13 7 -20 20 -20 13 0 20 7 20 20 0 13 -7 20 -20 20
-13 0 -20 -7 -20 -20z"/>
<path d="M2404 9519 c-4 -7 58 -75 158 -174 146 -143 171 -163 207 -169 25 -4
44 -13 51 -26 12 -22 46 -27 53 -7 7 19 -74 89 -115 98 -29 7 -66 38 -175 149
-131 132 -162 155 -179 129z"/>
<path d="M13090 9450 c0 -13 7 -20 20 -20 13 0 20 7 20 20 0 13 -7 20 -20 20
-13 0 -20 -7 -20 -20z"/>
<path d="M5939 9383 c-19 -49 -5 -111 31 -145 30 -27 32 -33 26 -73 -7 -56 7
-95 34 -95 52 0 52 124 0 172 -30 27 -32 33 -26 73 11 83 -39 135 -65 68z"/>
<path d="M13866 9161 c-177 -177 -202 -212 -158 -211 23 1 396 375 388 389
-17 27 -52 -1 -230 -178z"/>
<path d="M4330 9210 c0 -13 7 -20 20 -20 13 0 20 7 20 20 0 13 -7 20 -20 20
-13 0 -20 -7 -20 -20z"/>
<path d="M10626 9102 c-2 -4 -7 -24 -11 -45 -6 -31 -28 -57 -116 -144 -104
-102 -130 -143 -92 -143 22 0 283 264 283 285 0 40 -47 75 -64 47z"/>
<path d="M12310 9090 c0 -13 7 -20 20 -20 13 0 20 7 20 20 0 13 -7 20 -20 20
-13 0 -20 -7 -20 -20z"/>
<path d="M2944 9039 c-8 -14 305 -328 327 -329 44 -1 18 36 -131 183 -149 149
-180 172 -196 146z"/>
<path d="M6070 8972 c0 -36 189 -204 240 -214 25 -4 47 -13 48 -18 8 -22 33
-38 71 -44 26 -4 44 -13 51 -26 11 -21 45 -27 55 -9 13 19 -76 91 -124 100
-41 8 -55 18 -64 42 -1 4 -22 12 -45 18 -34 7 -57 24 -120 89 -75 79 -112 99
-112 62z"/>
<path d="M13407 8760 c-137 -138 -176 -172 -206 -179 -44 -10 -309 -259 -297
-279 16 -27 46 -7 149 98 86 88 116 112 146 119 45 10 430 379 417 400 -17 27
-51 1 -209 -159z"/>
<path d="M10321 8671 c-18 -32 -13 -50 24 -86 33 -33 34 -39 32 -96 -2 -55 1
-63 24 -82 18 -15 29 -36 34 -65 4 -26 15 -48 28 -57 14 -9 26 -34 32 -63 11
-52 39 -68 62 -36 20 28 16 54 -15 83 -18 16 -32 42 -36 66 -5 25 -19 50 -37
67 -26 24 -28 32 -26 88 2 55 -1 64 -23 82 -16 13 -29 37 -35 67 -11 52 -45
69 -64 32z"/>
<path d="M9902 8610 c-28 -26 -40 -30 -92 -30 -59 0 -59 0 -120 -60 -46 -46
-68 -60 -90 -60 -19 0 -40 -10 -60 -30 -20 -20 -41 -30 -60 -30 -22 0 -44 -14
-90 -60 -46 -46 -68 -60 -90 -60 -22 0 -44 -14 -90 -60 -46 -46 -68 -60 -90
-60 -19 0 -40 -10 -60 -30 -20 -20 -41 -30 -60 -30 -19 0 -40 -10 -60 -30 -20
-20 -41 -30 -60 -30 -22 0 -44 -14 -90 -60 -46 -46 -68 -60 -90 -60 -19 0 -40
-10 -60 -30 -20 -20 -41 -30 -60 -30 -22 0 -44 -14 -90 -60 -46 -46 -68 -60
-90 -60 -19 0 -40 -10 -60 -30 -20 -20 -41 -30 -60 -30 -19 0 -40 -10 -60 -30
-20 -20 -41 -30 -60 -30 -22 0 -44 -14 -90 -60 -46 -46 -68 -60 -90 -60 -19 0
-40 -10 -60 -30 -20 -20 -41 -30 -60 -30 -19 0 -40 -10 -60 -30 -20 -20 -41
-30 -60 -30 -22 0 -44 -14 -90 -60 -46 -46 -68 -60 -90 -60 -19 0 -40 -10 -60
-30 -20 -20 -41 -30 -60 -30 -22 0 -44 -14 -90 -60 -46 -46 -68 -60 -90 -60
-22 0 -44 -14 -90 -60 -46 -46 -68 -60 -90 -60 -19 0 -40 -10 -60 -30 -20 -20
-41 -30 -60 -30 -19 0 -40 -10 -60 -30 -20 -20 -41 -30 -60 -30 -19 0 -40 -10
-60 -30 -20 -20 -41 -30 -60 -30 -19 0 -40 -10 -60 -30 -20 -20 -41 -30 -60
-30 -22 0 -44 -14 -90 -60 -46 -46 -68 -60 -90 -60 -19 0 -40 -10 -60 -30 -20
-20 -41 -30 -60 -30 -19 0 -40 -10 -60 -30 -20 -20 -41 -30 -60 -30 -19 0 -40
-10 -60 -30 -20 -20 -41 -30 -60 -30 -22 0 -44 -14 -90 -60 -46 -46 -68 -60
-90 -60 -19 0 -40 -10 -60 -30 -20 -20 -41 -30 -60 -30 -22 0 -44 -14 -90 -60
-46 -46 -68 -60 -90 -60 -19 0 -40 -10 -60 -30 -20 -20 -41 -30 -60 -30 -22 0
-44 -14 -90 -60 -46 -46 -68 -60 -90 -60 -22 0 -44 -14 -90 -60 -46 -46 -68
-60 -90 -60 -19 0 -40 -10 -60 -30 -20 -20 -41 -30 -60 -30 -19 0 -40 -10 -60
-30 -20 -20 -41 -30 -60 -30 -19 0 -40 -10 -60 -30 -20 -20 -41 -30 -60 -30
-19 0 -40 -10 -60 -30 -20 -20 -41 -30 -60 -30 -19 0 -40 -10 -60 -30 -20 -20
-41 -30 -60 -30 -22 0 -44 -14 -90 -60 -46 -46 -68 -60 -90 -60 -22 0 -44 -14
-90 -60 -46 -46 -68 -60 -90 -60 -22 0 -44 -14 -90 -60 -46 -46 -68 -60 -90
-60 -22 0 -42 -12 -75 -45 -55 -56 -59 -88 -15 -133 20 -21 30 -42 30 -62 0
-19 10 -40 30 -60 20 -20 30 -41 30 -60 0 -19 10 -40 30 -60 20 -20 30 -41 30
-60 0 -22 14 -44 60 -90 46 -46 60 -68 60 -90 0 -24 18 -47 90 -120 72 -73 90
-96 90 -120 0 -24 18 -47 90 -120 72 -73 90 -96 90 -120 0 -19 10 -40 30 -60
20 -20 30 -41 30 -60 0 -22 14 -44 60 -90 46 -46 60 -68 60 -90 0 -22 14 -44
60 -90 46 -46 60 -68 60 -90 0 -19 10 -40 30 -60 20 -20 30 -41 30 -60 0 -22
14 -44 60 -90 46 -46 60 -68 60 -90 0 -22 14 -44 60 -90 46 -46 60 -68 60 -90
0 -41 79 -120 120 -120 18 0 42 -11 63 -30 44 -38 70 -38 114 0 33 30 35 30
153 30 119 0 119 0 150 30 20 20 41 30 60 30 19 0 40 10 60 30 27 27 38 30 90
30 52 0 63 3 90 30 20 20 41 30 60 30 19 0 40 10 60 30 20 20 41 30 60 30 19
0 40 10 60 30 20 20 41 30 60 30 19 0 40 10 60 30 27 27 38 30 90 30 52 0 63
3 90 30 27 27 38 30 90 30 52 0 63 3 90 30 27 27 38 30 90 30 52 0 63 3 90 30
20 20 41 30 60 30 19 0 40 10 60 30 20 20 41 30 60 30 19 0 40 10 60 30 27 27
38 30 90 30 52 0 63 3 90 30 20 20 41 30 60 30 19 0 40 10 60 30 20 20 41 30
60 30 19 0 40 10 60 30 20 20 41 30 60 30 19 0 40 10 60 30 31 30 31 30 150
30 119 0 119 0 150 30 20 20 41 30 60 30 19 0 40 10 60 30 27 27 38 30 90 30
52 0 63 3 90 30 20 20 41 30 60 30 19 0 40 10 60 30 20 20 41 30 60 30 19 0
40 10 60 30 20 20 41 30 60 30 19 0 40 10 60 30 27 27 38 30 90 30 52 0 63 3
90 30 27 27 38 30 90 30 52 0 63 3 90 30 20 20 41 30 60 30 19 0 40 10 60 30
20 20 41 30 60 30 19 0 40 10 60 30 31 30 31 30 150 30 119 0 119 0 150 30 20
20 41 30 60 30 19 0 40 10 60 30 20 20 41 30 60 30 19 0 40 10 60 30 20 20 41
30 60 30 19 0 40 10 60 30 20 20 41 30 60 30 19 0 40 10 60 30 20 20 41 30 60
30 19 0 40 10 60 30 27 27 38 30 90 30 52 0 63 3 90 30 27 27 38 30 90 30 52
0 63 3 90 30 27 27 38 30 90 30 52 0 63 3 90 30 27 27 38 30 90 30 52 0 63 3
90 30 27 27 38 30 90 30 52 0 63 3 90 30 20 20 41 30 60 30 19 0 40 10 60 30
20 19 41 30 59 30 33 0 171 121 171 150 0 9 -11 27 -25 40 -15 14 -25 35 -25
51 0 18 -11 40 -30 59 -27 27 -30 38 -30 90 0 52 -3 63 -30 90 -27 27 -30 38
-30 90 0 52 -3 63 -30 90 -20 20 -30 41 -30 60 0 19 -10 40 -30 60 -20 20 -30
41 -30 60 0 19 -10 40 -30 60 -29 29 -30 34 -30 120 0 89 0 89 -60 150 -60 61
-60 61 -60 120 0 52 -3 63 -30 90 -20 20 -30 41 -30 60 0 19 -10 40 -30 60
-27 27 -30 38 -30 90 0 52 -3 63 -30 90 -20 20 -30 41 -30 60 0 19 -10 40 -30
60 -20 20 -30 41 -30 60 0 19 -10 40 -30 60 -20 20 -30 41 -30 60 0 19 -10 40
-30 60 -20 20 -30 41 -30 60 0 19 -10 40 -30 60 -27 27 -30 38 -30 90 0 52 -3
63 -30 90 -27 27 -30 38 -30 90 0 52 -3 63 -30 90 -27 27 -30 38 -30 90 0 52
-3 63 -30 90 -20 20 -30 41 -30 60 0 19 -10 40 -30 60 -20 20 -30 41 -30 60 0
19 -10 40 -30 60 -27 27 -30 38 -30 90 0 52 -3 63 -30 90 -20 20 -30 41 -30
60 0 19 -10 40 -30 60 -20 20 -30 41 -30 60 0 19 -10 40 -30 60 -19 19 -30 41
-30 59 0 62 -64 79 -118 31z"/>
<path d="M3427 8616 c-9 -24 249 -267 295 -278 29 -6 60 -31 145 -118 103
-105 133 -125 149 -98 12 20 -253 269 -298 279 -29 7 -60 32 -145 119 -104
106 -135 126 -146 96z"/>
<path d="M6605 8619 c-13 -19 76 -91 125 -101 25 -4 47 -13 48 -18 8 -22 33
-38 71 -44 26 -4 44 -13 51 -26 11 -21 45 -27 55 -9 13 19 -76 91 -125 101
-25 4 -47 13 -48 18 -8 22 -33 38 -71 44 -26 4 -44 13 -51 26 -11 21 -45 27
-55 9z"/>
<path d="M7030 8384 c-22 -25 13 -55 37 -32 16 17 5 48 -17 48 -4 0 -13 -7
-20 -16z"/>
<path d="M7145 8319 c-12 -18 83 -96 126 -103 24 -4 42 -14 49 -26 11 -21 45
-27 55 -9 12 18 -83 96 -126 103 -24 4 -42 14 -49 26 -11 21 -45 27 -55 9z"/>
<path d="M12718 8190 c-62 -64 -86 -82 -119 -89 -37 -8 -53 -19 -61 -43 -2 -4
-25 -12 -52 -17 -44 -8 -59 -18 -69 -45 -2 -5 -25 -12 -53 -15 -44 -5 -49 -8
-49 -31 0 -45 91 -37 107 10 1 5 25 14 52 19 43 8 59 18 68 43 2 4 23 11 48
16 51 10 260 197 246 220 -16 25 -44 9 -118 -68z"/>
<path d="M7445 8139 c-12 -18 83 -96 126 -103 24 -4 42 -14 49 -26 11 -21 45
-27 55 -9 12 18 -83 96 -126 103 -24 4 -42 14 -49 26 -11 21 -45 27 -55 9z"/>
<path d="M4090 8084 c-22 -25 13 -55 37 -32 16 17 5 48 -17 48 -4 0 -13 -7
-20 -16z"/>
<path d="M4210 8024 c-22 -25 13 -55 37 -32 16 17 5 48 -17 48 -4 0 -13 -7
-20 -16z"/>
<path d="M4334 7965 c-10 -26 4 -45 33 -45 47 0 70 -11 82 -36 17 -38 156 -33
156 6 0 24 -3 25 -79 31 -49 3 -81 10 -84 17 -13 40 -96 60 -108 27z"/>
<path d="M7750 7965 c-11 -13 -11 -19 3 -33 20 -19 41 -5 35 24 -4 24 -22 28
-38 9z"/>
<path d="M12068 7896 c-10 -24 -24 -30 -98 -39 -9 -1 -15 -13 -15 -27 0 -47
91 -37 107 12 3 7 35 14 84 17 76 6 79 7 79 31 0 39 -139 44 -157 6z"/>
<path d="M4694 7846 c-13 -33 4 -47 48 -44 38 3 43 6 43 28 0 31 -80 45 -91
16z"/>
<path d="M4874 7785 c-10 -26 4 -45 33 -45 46 0 70 -10 81 -34 9 -20 20 -24
82 -28 58 -4 74 -9 86 -27 16 -22 48 -28 59 -10 4 6 -13 30 -38 54 -43 41 -48
43 -118 47 -45 2 -74 8 -77 16 -13 40 -96 60 -108 27z"/>
<path d="M11714 7785 c-14 -37 3 -46 78 -43 70 3 73 4 73 28 0 24 -3 25 -73
28 -58 2 -73 0 -78 -13z"/>
<path d="M11506 7696 c-26 -25 -45 -49 -41 -55 10 -18 43 -13 54 8 7 12 28 22
58 27 42 8 48 12 48 34 0 47 -60 40 -119 -14z"/>
<path d="M5284 7599 c-8 -14 245 -268 268 -269 43 0 23 30 -98 151 -122 122
-154 144 -170 118z"/>
<path d="M11185 7439 c-134 -135 -176 -172 -202 -176 -61 -10 -87 -90 -38
-117 31 -17 35 -27 32 -94 -2 -58 0 -66 24 -85 18 -15 29 -36 34 -65 4 -26 15
-48 28 -57 14 -9 26 -34 32 -63 11 -52 39 -68 62 -36 20 28 16 54 -15 83 -18
16 -32 42 -36 66 -5 25 -19 50 -38 68 -28 26 -30 32 -24 72 7 54 -6 91 -33
100 -44 14 -20 46 185 249 195 192 222 226 176 226 -9 0 -93 -77 -187 -171z"/>
<path d="M5644 7299 c-8 -14 245 -268 268 -269 43 0 23 30 -98 151 -122 122
-154 144 -170 118z"/>
<path d="M6004 6998 c-5 -7 15 -32 51 -65 55 -50 58 -55 46 -77 -27 -49 -61
-76 -96 -76 -33 0 -82 -38 -133 -103 -7 -10 -27 -17 -47 -17 -19 0 -40 -7 -47
-15 -33 -40 -42 -45 -74 -45 -32 0 -82 -39 -132 -103 -7 -10 -27 -17 -47 -17
-31 0 -59 -16 -67 -40 -1 -5 -25 -14 -53 -19 -27 -5 -51 -14 -53 -20 -8 -25
-35 -41 -68 -41 -32 0 -82 -39 -132 -103 -7 -10 -27 -17 -47 -17 -31 0 -59
-16 -67 -40 -1 -5 -25 -14 -53 -19 -27 -5 -51 -14 -53 -20 -8 -25 -35 -41 -68
-41 -32 0 -82 -39 -132 -103 -7 -10 -27 -17 -44 -17 -18 0 -45 -11 -64 -25
-18 -14 -48 -28 -66 -32 -20 -4 -51 -25 -84 -59 -38 -40 -63 -56 -94 -63 -38
-8 -54 -19 -62 -43 -2 -4 -23 -12 -48 -16 -36 -7 -57 -20 -97 -60 -37 -37 -63
-54 -94 -61 -37 -8 -53 -19 -61 -43 -2 -4 -25 -12 -52 -17 -43 -8 -59 -18 -68
-43 -2 -4 -25 -12 -52 -17 -43 -8 -59 -18 -68 -43 -2 -4 -23 -12 -48 -16 -36
-7 -57 -20 -97 -60 -37 -37 -63 -54 -94 -61 -38 -9 -53 -19 -62 -44 -1 -4 -25
-11 -52 -15 -45 -6 -50 -10 -50 -32 0 -45 91 -37 107 10 1 5 23 14 48 18 36 7
57 20 97 60 37 37 63 54 94 61 37 8 53 19 61 43 2 4 25 12 52 17 43 8 59 18
68 43 2 4 25 12 52 17 43 8 59 18 68 43 2 4 23 12 48 16 36 7 57 20 97 60 37
37 63 54 94 61 37 8 53 19 61 43 2 4 23 12 48 16 36 7 57 20 99 62 51 51 55
53 118 58 67 5 100 27 161 105 7 10 27 17 47 17 33 0 82 38 133 103 7 10 27
17 47 17 31 0 59 16 67 40 1 5 25 14 53 19 27 5 51 14 53 20 8 25 35 41 68 41
32 0 82 39 132 103 7 10 27 17 47 17 31 0 59 16 67 40 1 5 25 14 53 19 27 5
51 14 53 20 8 25 35 41 68 41 32 0 82 39 132 103 7 10 27 17 47 17 19 0 40 7
47 15 33 40 42 45 74 45 33 0 115 63 125 98 2 7 22 15 44 19 98 15 101 67 8
163 -65 68 -94 83 -109 58z"/>
<path d="M11161 6631 c-17 -32 -13 -51 17 -80 17 -15 32 -42 36 -66 11 -57
144 -185 192 -185 19 0 39 -7 46 -17 61 -78 94 -100 161 -105 63 -5 67 -7 122
-62 47 -46 63 -56 91 -56 19 0 39 -7 46 -17 51 -65 100 -103 133 -103 19 0 40
-7 47 -15 33 -40 42 -45 73 -45 20 0 40 -7 47 -16 47 -60 98 -104 120 -104 13
0 42 -13 64 -30 24 -18 51 -30 71 -30 30 0 38 -5 71 -45 7 -8 28 -15 47 -15
20 0 40 -7 47 -17 50 -64 100 -103 132 -103 33 0 60 -16 68 -41 2 -6 26 -15
53 -20 28 -5 52 -14 53 -19 8 -24 36 -40 67 -40 20 0 40 -7 47 -17 49 -62 100
-103 131 -103 37 0 50 -7 65 -36 8 -15 25 -24 56 -28 78 -12 75 -67 -9 -150
-39 -38 -55 -63 -61 -90 -5 -28 -21 -53 -60 -90 -38 -38 -54 -63 -60 -90 -5
-28 -21 -53 -60 -90 -39 -39 -54 -63 -60 -92 -4 -21 -15 -45 -26 -52 -22 -16
-24 -52 -3 -52 28 0 93 74 100 114 6 28 22 53 61 90 38 38 54 63 60 90 5 28
21 53 60 90 37 37 54 63 59 90 6 27 24 53 66 96 64 65 71 89 37 120 -36 31
-52 47 -66 64 -7 9 -28 16 -47 16 -20 0 -40 7 -47 17 -50 64 -100 103 -132
103 -33 0 -60 16 -68 41 -2 6 -26 15 -53 20 -28 5 -52 14 -53 19 -8 24 -36 40
-67 40 -20 0 -40 7 -47 17 -50 64 -100 103 -132 103 -32 0 -41 5 -74 45 -7 8
-28 15 -47 15 -20 0 -40 7 -47 16 -47 60 -98 104 -120 104 -13 0 -42 13 -64
30 -24 18 -51 30 -71 30 -30 0 -38 5 -71 45 -7 8 -28 15 -47 15 -20 0 -40 7
-47 17 -50 64 -100 103 -132 103 -33 0 -60 16 -68 40 -2 6 -23 15 -47 21 -32
7 -56 23 -95 63 -33 34 -64 55 -84 59 -18 4 -48 18 -66 32 -19 14 -46 25 -64
25 -29 0 -56 17 -64 40 -2 6 -23 15 -47 21 -55 12 -107 65 -116 120 -4 23 -15
45 -28 54 -14 10 -26 34 -32 63 -11 53 -44 70 -64 33z"/>
<path d="M11467 5923 c-16 -16 -6 -73 18 -101 14 -17 28 -45 31 -64 3 -18 18
-43 32 -55 23 -20 26 -30 27 -89 1 -59 4 -70 27 -88 16 -13 28 -36 33 -61 4
-25 17 -50 36 -67 26 -24 28 -32 26 -88 -2 -55 1 -64 23 -82 16 -13 29 -38 35
-66 11 -52 39 -68 62 -36 21 29 15 52 -22 89 -33 33 -34 39 -32 96 2 55 -1 63
-24 82 -17 14 -29 37 -34 62 -4 25 -17 50 -36 67 -26 24 -28 32 -26 87 2 57 0
62 -30 90 -23 21 -33 39 -33 59 0 51 52 74 73 32 9 -17 25 -27 55 -33 25 -5
46 -16 52 -28 11 -20 45 -26 55 -8 14 21 -86 99 -127 99 -32 0 -40 5 -53 30
-12 23 -22 30 -44 30 -17 0 -42 11 -59 25 -30 25 -52 31 -65 18z"/>
<path d="M11884 5679 c-8 -14 65 -89 87 -89 34 0 31 22 -7 61 -38 39 -67 49
-80 28z"/>
<path d="M12070 5564 c-22 -25 13 -55 37 -32 16 17 5 48 -17 48 -4 0 -13 -7
-20 -16z"/>
<path d="M12185 5499 c-13 -19 76 -91 125 -101 25 -4 47 -13 48 -18 8 -22 33
-38 71 -44 26 -4 44 -13 51 -26 11 -21 45 -27 55 -9 13 19 -76 91 -125 101
-25 4 -47 13 -48 18 -8 22 -33 38 -71 44 -26 4 -44 13 -51 26 -11 21 -45 27
-55 9z"/>
<path d="M12610 5264 c-22 -25 13 -55 37 -32 16 17 5 48 -17 48 -4 0 -13 -7
-20 -16z"/>
<path d="M12725 5199 c-12 -19 76 -92 120 -98 60 -9 58 -33 -8 -95 -42 -38
-57 -60 -62 -90 -6 -28 -22 -52 -61 -90 -38 -38 -54 -63 -60 -90 -5 -28 -21
-53 -60 -90 -38 -38 -54 -63 -60 -90 -5 -28 -21 -53 -60 -91 -42 -41 -55 -61
-60 -93 -4 -27 -14 -46 -29 -56 -15 -10 -26 -30 -30 -57 -6 -35 -20 -54 -87
-118 -63 -62 -81 -86 -89 -119 -7 -30 -24 -56 -64 -95 -42 -42 -56 -63 -61
-95 -4 -27 -14 -46 -29 -56 -15 -10 -26 -30 -30 -56 -5 -32 -19 -53 -60 -94
-39 -38 -55 -63 -61 -90 -5 -28 -21 -53 -60 -90 -38 -38 -54 -63 -60 -90 -5
-28 -21 -53 -60 -90 -38 -39 -54 -63 -60 -91 -5 -30 -21 -53 -59 -90 -40 -38
-54 -60 -60 -90 -11 -65 -59 -75 -113 -25 -23 21 -43 30 -67 30 -20 0 -40 7
-47 17 -46 59 -100 103 -127 103 -23 0 -55 27 -179 150 -125 124 -156 150
-180 150 -24 0 -55 26 -176 146 -119 118 -155 148 -186 155 -30 7 -66 37 -183
154 -123 122 -151 145 -176 145 -25 0 -46 16 -113 84 -46 46 -93 89 -105 95
-26 13 -22 32 21 82 27 31 33 34 100 37 62 4 74 7 92 30 19 23 31 27 93 30 64
4 74 7 83 27 11 23 35 35 75 35 22 0 48 20 55 42 3 7 35 14 84 17 76 6 79 7
79 31 0 39 -139 44 -157 6 -8 -18 -22 -27 -47 -32 -60 -10 -70 -14 -76 -33 -7
-23 -33 -31 -105 -31 -47 0 -57 -4 -76 -27 -18 -23 -30 -27 -90 -31 -60 -4
-72 -8 -95 -33 -18 -19 -37 -29 -56 -29 -40 0 -115 -64 -111 -94 3 -18 11 -22
51 -24 38 -3 50 -7 57 -25 17 -45 268 -277 299 -277 22 0 52 -23 146 -116 91
-90 126 -119 155 -125 30 -7 71 -42 213 -184 148 -147 181 -175 205 -175 25 0
55 -25 180 -150 137 -136 154 -150 186 -150 21 0 41 -7 48 -16 48 -61 144
-154 158 -154 10 0 34 19 54 43 38 45 42 49 112 113 34 32 44 48 44 73 0 23 9
40 29 59 18 16 32 42 37 66 5 28 21 52 60 90 38 38 54 63 60 90 5 28 21 53 60
90 38 38 54 63 60 90 5 28 21 53 60 91 42 41 55 61 60 93 4 27 14 46 29 56 15
10 26 30 30 57 6 35 20 54 87 118 63 62 81 86 89 119 7 30 24 56 64 95 42 42
56 63 61 95 4 27 14 46 29 56 15 10 26 30 30 56 5 32 19 53 60 94 39 38 55 63
61 90 5 28 21 53 60 90 38 38 54 63 60 90 5 28 21 53 60 90 38 38 54 63 60 90
5 28 21 52 62 92 57 55 60 74 13 89 -10 3 -23 16 -29 29 -8 18 -22 25 -56 30
-30 5 -49 14 -56 27 -11 20 -45 26 -55 8z"/>
<path d="M3369 5084 c-11 -14 -6 -23 43 -70 41 -39 58 -63 63 -91 5 -26 22
-52 59 -89 39 -37 55 -62 61 -90 7 -40 72 -114 100 -114 21 0 19 36 -3 52 -11
7 -22 31 -26 52 -6 29 -21 53 -60 92 -39 37 -55 62 -60 90 -6 29 -25 54 -81
111 -82 82 -78 79 -96 57z"/>
<path d="M11654 5025 c-12 -30 4 -45 46 -45 44 0 61 19 40 45 -16 20 -79 20
-86 0z"/>
<path d="M11530 4964 c-22 -25 13 -55 37 -32 16 17 5 48 -17 48 -4 0 -13 -7
-20 -16z"/>
<path d="M11288 4896 c-10 -24 -24 -30 -98 -39 -9 -1 -15 -13 -15 -27 0 -47
91 -37 107 12 3 7 35 14 84 17 76 6 79 7 79 31 0 39 -139 44 -157 6z"/>
<path d="M11050 4784 c-22 -25 13 -55 37 -32 16 17 5 48 -17 48 -4 0 -13 -7
-20 -16z"/>
<path d="M10877 4726 c-8 -9 -17 -21 -19 -28 -2 -6 -26 -14 -54 -17 -44 -5
-49 -8 -49 -31 0 -47 91 -37 107 12 2 6 26 14 54 17 44 5 49 8 49 31 0 31 -62
42 -88 16z"/>
<path d="M10630 4604 c-22 -25 13 -55 37 -32 16 17 5 48 -17 48 -4 0 -13 -7
-20 -16z"/>
<path d="M3730 4532 c0 -23 60 -82 83 -82 28 0 20 33 -16 68 -37 36 -67 42
-67 14z"/>
<path d="M12822 4397 c-36 -37 -42 -67 -14 -67 23 0 82 60 82 83 0 28 -33 20
-68 -16z"/>
<path d="M3850 4351 c0 -10 22 -39 49 -64 35 -33 50 -56 56 -83 5 -27 21 -52
59 -90 39 -37 55 -62 61 -90 7 -40 72 -114 100 -114 21 0 19 36 -3 52 -11 7
-22 31 -26 52 -6 29 -21 53 -60 92 -38 37 -55 62 -60 89 -6 28 -25 55 -75 106
-68 69 -101 86 -101 50z"/>
<path d="M12668 4181 c-49 -51 -69 -79 -74 -106 -5 -27 -22 -52 -60 -89 -39
-39 -54 -63 -60 -92 -4 -21 -15 -45 -26 -52 -22 -16 -24 -52 -3 -52 28 0 93
74 100 114 6 28 22 53 61 90 38 38 54 63 59 90 6 27 21 50 56 83 50 47 64 83
32 83 -10 0 -48 -31 -85 -69z"/>
<path d="M9374 4125 c-11 -27 4 -42 45 -49 35 -5 54 -19 119 -86 74 -77 102
-93 118 -68 14 22 -203 218 -243 218 -21 0 -36 -6 -39 -15z"/>
<path d="M9140 4070 c-16 -10 -34 -2668 -18 -2717 8 -23 41 -32 53 -13 3 5 6
600 5 1322 0 819 4 1319 10 1328 5 8 29 20 52 25 36 9 43 15 43 35 0 24 -3 25
-65 28 -36 1 -72 -2 -80 -8z"/>
<path d="M9724 3879 c-8 -14 245 -268 268 -269 43 0 23 30 -98 151 -122 122
-154 144 -170 118z"/>
<path d="M4210 3812 c0 -23 60 -82 83 -82 28 0 20 33 -16 68 -37 36 -67 42
-67 14z"/>
<path d="M12342 3677 c-36 -37 -42 -67 -14 -67 23 0 82 60 82 83 0 28 -33 20
-68 -16z"/>
<path d="M4330 3631 c0 -11 8 -26 18 -33 11 -7 22 -31 26 -52 6 -31 24 -56 91
-123 64 -64 84 -92 90 -120 7 -39 73 -113 100 -113 21 0 19 36 -3 52 -11 7
-22 31 -26 52 -6 31 -24 56 -91 123 -64 64 -84 92 -90 120 -12 63 -115 147
-115 94z"/>
<path d="M10084 3579 c-8 -14 185 -208 208 -209 41 0 25 27 -68 121 -94 94
-124 113 -140 88z"/>
<path d="M12192 3466 c-48 -47 -65 -72 -73 -104 -7 -31 -23 -56 -64 -95 -42
-42 -56 -63 -61 -95 -4 -27 -14 -46 -29 -56 -15 -10 -26 -30 -30 -56 -5 -32
-19 -53 -60 -94 -39 -38 -55 -63 -61 -90 -5 -28 -21 -53 -60 -90 -38 -38 -54
-63 -60 -90 -5 -28 -21 -53 -60 -91 -42 -41 -55 -61 -60 -93 -6 -38 -10 -42
-41 -48 -80 -15 -99 -4 -252 147 -116 114 -151 143 -182 150 -30 7 -60 31
-146 119 -103 105 -133 125 -149 98 -12 -19 253 -269 296 -279 28 -6 68 -40
183 -154 147 -145 147 -145 212 -145 61 0 66 2 77 26 7 14 24 32 39 40 20 10
29 24 34 55 5 31 19 53 60 93 39 38 55 63 61 90 5 28 21 53 60 90 38 38 54 63
60 90 5 28 21 53 60 91 42 41 55 61 60 93 4 27 14 46 29 56 15 10 26 30 30 57
6 35 20 54 87 118 65 63 81 85 89 121 6 24 19 50 29 57 25 18 27 53 3 52 -10
0 -46 -29 -81 -63z"/>
<path d="M7516 3404 c-9 -8 -16 -22 -16 -29 0 -10 -16 -15 -52 -17 -49 -3 -53
-5 -53 -28 0 -39 74 -37 93 3 15 31 20 32 50 12 22 -16 22 -16 22 -1006 -1
-544 2 -994 5 -999 8 -13 42 -13 50 0 3 5 6 467 5 1027 0 926 -2 1019 -17
1035 -20 22 -66 23 -87 2z"/>
<path d="M7217 3286 c-8 -9 -17 -21 -19 -28 -2 -6 -26 -14 -54 -17 -44 -5 -49
-8 -49 -31 0 -47 91 -37 107 12 2 6 26 14 54 17 44 5 49 8 49 31 0 31 -62 42
-88 16z"/>
<path d="M10394 3285 c-11 -27 3 -42 45 -49 35 -5 55 -21 148 -116 60 -60 116
-110 125 -110 45 0 25 30 -106 157 -123 118 -141 133 -172 133 -22 0 -37 -6
-40 -15z"/>
<path d="M6970 3164 c-22 -25 13 -55 37 -32 16 17 5 48 -17 48 -4 0 -13 -7
-20 -16z"/>
<path d="M6794 3106 c-13 -33 4 -47 48 -44 38 3 43 6 43 28 0 31 -80 45 -91
16z"/>
<path d="M4690 3092 c0 -23 60 -82 83 -82 28 0 20 33 -16 68 -37 36 -67 42
-67 14z"/>
<path d="M6617 3046 c-8 -9 -17 -21 -19 -28 -2 -6 -26 -14 -54 -17 -44 -5 -49
-8 -49 -31 0 -47 91 -37 107 12 2 6 26 14 54 17 44 5 49 8 49 31 0 31 -62 42
-88 16z"/>
<path d="M6317 2926 c-8 -9 -17 -21 -19 -28 -2 -6 -26 -14 -54 -17 -44 -5 -49
-8 -49 -31 0 -47 91 -37 107 12 2 6 26 14 54 17 44 5 49 8 49 31 0 31 -62 42
-88 16z"/>
<path d="M4810 2911 c0 -11 8 -26 18 -33 11 -7 22 -31 26 -52 6 -31 24 -56 91
-123 64 -64 84 -92 90 -120 9 -50 144 -183 186 -183 26 0 53 18 61 40 2 6 26
14 53 18 45 6 50 10 50 32 0 41 -61 41 -104 0 -57 -55 -159 -4 -176 86 -5 29
-26 57 -90 121 -64 64 -84 92 -90 120 -12 63 -115 147 -115 94z"/>
<path d="M6017 2806 c-8 -9 -17 -21 -19 -28 -2 -6 -26 -14 -54 -17 -44 -5 -49
-8 -49 -31 0 -47 91 -37 107 12 2 6 26 14 54 17 44 5 49 8 49 31 0 31 -62 42
-88 16z"/>
<path d="M5770 2684 c-22 -25 13 -55 37 -32 16 17 5 48 -17 48 -4 0 -13 -7
-20 -16z"/>
<path d="M5594 2626 c-13 -33 4 -47 48 -44 38 3 43 6 43 28 0 31 -80 45 -91
16z"/>
<path d="M5470 2564 c-22 -25 13 -55 37 -32 16 17 5 48 -17 48 -4 0 -13 -7
-20 -16z"/>
<path d="M8234 1305 c-17 -45 -14 -45 339 -45 285 0 336 2 347 15 34 42 8 45
-347 45 -287 0 -334 -2 -339 -15z"/>
<path d="M9010 1290 c0 -16 5 -21 23 -18 12 2 22 10 22 18 0 8 -10 16 -22 18
-18 3 -23 -2 -23 -18z"/>
</g>
<g transform="translate(0.000000,2112.000000) scale(0.100000,-0.100000)" fill="#0b375a" stroke="none">
<path d="M7636 19844 c-14 -14 -16 -222 -16 -2144 0 -1922 -2 -2130 -16 -2144
-14 -14 -222 -16 -2144 -16 -1922 0 -2130 -2 -2144 -16 -24 -24 -24 -1444 0
-1468 14 -14 222 -16 2144 -16 1922 0 2130 -2 2144 -16 27 -26 24 -5584 -2
-5607 -28 -25 -60 -21 -99 13 -21 19 -45 30 -63 30 -22 0 -44 14 -90 60 -46
46 -68 60 -90 60 -19 0 -40 10 -60 30 -20 20 -41 30 -60 30 -22 0 -44 14 -90
60 -46 46 -68 60 -90 60 -19 0 -40 10 -60 30 -20 20 -41 30 -60 30 -19 0 -40
10 -60 30 -20 20 -41 30 -60 30 -19 0 -40 10 -60 30 -20 20 -41 30 -60 30 -24
0 -47 18 -120 90 -72 72 -96 90 -120 90 -37 0 -60 23 -60 60 0 19 -11 40 -30
60 -30 31 -30 31 -30 150 0 119 0 119 -30 150 -27 27 -30 38 -30 90 0 52 -3
63 -30 90 -27 27 -30 38 -30 90 0 52 -3 63 -30 90 -29 29 -30 34 -30 120 0 86
-1 91 -30 120 -20 20 -30 41 -30 60 0 22 -14 44 -60 90 -46 47 -60 68 -60 90
0 26 -42 72 -300 330 -257 257 -300 304 -300 330 0 25 -41 70 -279 309 -153
155 -285 281 -293 281 -7 0 -50 -38 -95 -85 -67 -70 -87 -85 -112 -85 -46 0
-61 -23 -61 -90 0 -52 -4 -63 -30 -90 -47 -48 -47 -253 0 -302 37 -38 40 -80
8 -102 -44 -31 -60 -21 -217 134 -126 124 -157 150 -181 150 -24 0 -51 22
-150 120 -99 99 -126 120 -150 120 -24 0 -51 21 -150 120 -99 99 -126 120
-150 120 -24 0 -47 18 -120 90 -73 72 -96 90 -120 90 -19 0 -40 10 -60 30 -31
30 -31 30 -179 30 -149 0 -149 0 -242 -90 -105 -101 -122 -107 -176 -60 -34
30 -34 30 -213 30 -180 0 -180 0 -255 -75 -75 -75 -75 -75 -75 -135 0 -53 -3
-64 -30 -92 -39 -40 -39 -76 0 -116 20 -21 30 -42 30 -62 0 -20 10 -41 30 -62
47 -48 41 -76 -30 -148 -59 -60 -60 -61 -60 -119 0 -48 -4 -61 -25 -81 -32
-30 -32 -50 0 -80 21 -20 25 -33 25 -81 0 -51 4 -62 30 -89 20 -20 30 -41 30
-60 0 -43 137 -180 179 -180 46 0 61 -23 61 -90 0 -59 0 -60 -60 -120 -60 -61
-60 -61 -60 -150 0 -86 1 -91 30 -120 20 -20 30 -41 30 -60 0 -19 10 -40 30
-60 19 -20 30 -41 30 -60 0 -36 23 -60 60 -60 36 0 60 -24 60 -60 0 -37 24
-60 61 -60 24 0 54 -26 179 -150 126 -126 155 -150 180 -150 41 0 120 -78 120
-120 0 -37 23 -60 61 -60 24 0 62 -33 239 -210 179 -179 215 -210 240 -210 24
0 50 -21 150 -120 99 -99 126 -120 150 -120 25 0 54 -24 180 -150 126 -125
155 -150 180 -150 19 0 40 -10 60 -30 20 -20 41 -30 60 -30 19 0 40 -10 60
-30 27 -27 38 -30 90 -30 52 0 63 -3 90 -30 27 -27 38 -30 90 -30 52 0 63 -3
90 -30 27 -27 38 -30 90 -30 52 0 63 -3 90 -30 27 -27 38 -30 90 -30 52 0 63
-3 90 -30 27 -27 38 -30 90 -30 59 0 59 0 120 -60 47 -46 68 -60 90 -60 25 0
54 -25 180 -150 126 -126 155 -150 180 -150 25 0 54 -24 180 -150 126 -126
155 -150 180 -150 43 0 180 -137 180 -179 0 -38 -23 -61 -60 -61 -22 0 -44
-15 -90 -60 -46 -46 -68 -60 -90 -60 -19 0 -40 -10 -60 -30 -20 -20 -41 -30
-60 -30 -22 0 -44 -14 -90 -60 -46 -46 -68 -60 -90 -60 -19 0 -40 -10 -60 -30
-20 -20 -41 -30 -60 -30 -19 0 -40 -10 -60 -30 -20 -20 -41 -30 -60 -30 -22 0
-44 -14 -90 -60 -46 -46 -68 -60 -90 -60 -19 0 -40 -10 -60 -30 -20 -20 -41
-30 -60 -30 -19 0 -40 -10 -60 -30 -20 -20 -41 -30 -60 -30 -22 0 -44 -14 -90
-60 -46 -46 -68 -60 -90 -60 -22 0 -44 -14 -90 -60 -60 -60 -61 -60 -120 -60
-59 0 -60 0 -120 -60 -46 -46 -68 -60 -90 -60 -19 0 -40 -10 -60 -30 -20 -20
-41 -30 -60 -30 -22 0 -44 -14 -90 -60 -46 -46 -68 -60 -90 -60 -19 0 -40 -10
-60 -30 -20 -20 -41 -30 -60 -30 -19 0 -40 -10 -60 -30 -20 -20 -41 -30 -60
-30 -19 0 -40 -10 -60 -30 -20 -20 -41 -30 -60 -30 -22 0 -44 -14 -90 -60 -46
-46 -68 -60 -90 -60 -19 0 -40 -10 -60 -30 -20 -19 -41 -30 -60 -30 -37 0 -60
-23 -60 -60 0 -24 18 -48 90 -120 72 -73 90 -96 90 -120 0 -22 14 -44 60 -90
46 -46 60 -68 60 -90 0 -19 10 -40 30 -60 20 -20 30 -41 30 -60 0 -22 14 -44
60 -90 46 -46 60 -68 60 -90 0 -24 18 -47 90 -120 72 -73 90 -96 90 -120 0
-22 14 -44 60 -90 46 -46 60 -68 60 -90 0 -19 10 -40 30 -60 20 -20 30 -41 30
-60 0 -22 14 -44 60 -90 46 -46 60 -68 60 -90 0 -22 14 -44 60 -90 46 -46 60
-68 60 -90 0 -24 18 -47 90 -120 72 -73 90 -96 90 -120 0 -19 10 -40 30 -60
20 -20 30 -41 30 -60 0 -22 14 -44 60 -90 46 -46 60 -68 60 -90 0 -22 14 -44
60 -90 46 -46 60 -68 60 -90 0 -24 18 -47 90 -120 73 -74 90 -96 90 -121 0
-22 11 -40 48 -74 56 -53 82 -56 129 -15 29 26 41 30 93 30 52 0 63 3 90 30
20 20 41 30 60 30 19 0 40 10 60 30 27 27 38 30 90 30 52 0 63 3 90 30 20 20
41 30 60 30 19 0 40 10 60 30 20 20 41 30 60 30 19 0 40 10 60 30 27 27 38 30
90 30 52 0 63 3 90 30 20 20 41 30 60 30 19 0 40 10 60 30 27 27 38 30 90 30
52 0 63 3 90 30 20 20 41 30 60 30 19 0 40 10 60 30 27 27 38 30 90 30 52 0
63 3 90 30 27 27 38 30 90 30 52 0 63 3 90 30 20 20 41 30 60 30 19 0 40 10
60 30 20 20 41 30 60 30 19 0 40 10 60 30 27 27 38 30 90 30 52 0 63 3 90 30
20 20 41 30 60 30 18 0 42 11 63 30 39 34 76 38 100 12 16 -17 17 -103 17
-1035 0 -910 2 -1017 16 -1031 14 -14 94 -16 734 -16 640 0 720 2 734 16 14
14 16 151 16 1364 0 1213 2 1350 16 1364 12 12 37 16 104 16 85 0 91 1 123 30
57 49 70 44 206 -90 100 -98 128 -120 152 -120 24 0 54 -26 179 -150 126 -126
155 -150 180 -150 25 0 54 -24 180 -150 126 -126 155 -150 180 -150 25 0 54
-24 180 -150 126 -126 155 -150 180 -150 24 0 51 -21 150 -120 99 -99 126
-120 150 -120 25 0 54 -24 180 -150 150 -150 150 -150 209 -150 68 0 91 15 91
60 0 22 15 44 60 90 46 46 60 68 60 90 0 22 14 44 60 90 46 46 60 68 60 90 0
22 14 44 60 90 46 46 60 68 60 90 0 19 10 40 30 60 20 20 30 41 30 60 0 22 14
44 60 90 46 46 60 68 60 90 0 24 18 47 90 120 72 73 90 96 90 120 0 22 14 44
60 90 46 46 60 68 60 90 0 19 10 40 30 60 20 20 30 41 30 60 0 22 14 44 60 90
46 46 60 68 60 90 0 24 18 47 90 120 72 73 90 96 90 120 0 22 14 44 60 90 46
46 60 68 60 90 0 19 10 40 30 60 20 20 30 41 30 60 0 22 14 44 60 90 46 46 60
68 60 90 0 22 14 44 60 90 46 46 60 68 60 90 0 22 14 44 60 90 81 82 81 150 0
150 -19 0 -40 11 -60 30 -20 20 -41 30 -60 30 -22 0 -44 14 -90 60 -46 46 -68
60 -90 60 -19 0 -40 10 -60 30 -20 20 -41 30 -60 30 -19 0 -40 10 -60 30 -20
20 -41 30 -60 30 -22 0 -44 14 -90 60 -46 46 -68 60 -90 60 -19 0 -40 10 -60
30 -20 20 -41 30 -60 30 -19 0 -40 10 -60 30 -20 20 -41 30 -60 30 -22 0 -44
14 -90 60 -46 46 -68 60 -90 60 -19 0 -40 10 -60 30 -20 20 -41 30 -60 30 -22
0 -44 14 -90 60 -46 46 -68 60 -90 60 -22 0 -44 14 -90 60 -60 60 -61 60 -120
60 -59 0 -60 0 -120 60 -47 46 -68 60 -90 60 -43 0 -180 137 -180 180 0 19
-10 40 -30 60 -27 27 -30 38 -30 90 0 52 -3 63 -30 90 -20 20 -30 41 -30 60 0
19 -10 40 -30 60 -20 20 -30 41 -30 60 0 19 -10 40 -30 60 -27 27 -30 38 -30
90 0 53 -4 64 -30 92 -51 52 -34 118 31 118 24 0 58 29 209 180 152 152 185
180 210 180 22 0 43 14 90 60 61 60 61 60 120 60 52 0 63 3 90 30 29 29 34 30
120 30 86 0 91 1 120 30 20 20 41 30 60 30 19 0 40 10 60 30 29 29 34 30 120
30 86 0 91 1 120 30 20 20 41 30 60 30 19 0 40 10 60 30 20 20 41 30 60 30 19
0 40 10 60 30 20 20 41 30 60 30 24 0 47 18 120 90 73 73 96 90 120 90 25 0
54 25 180 150 126 126 155 150 180 150 25 0 57 28 210 180 153 152 185 180
210 180 25 0 61 31 240 210 179 179 215 210 240 210 41 0 120 78 120 120 0 37
23 60 61 60 43 0 239 197 239 240 0 19 10 40 30 60 30 31 30 31 30 150 0 119
0 119 -30 150 -19 19 -30 41 -30 59 0 16 -10 37 -25 51 -39 37 -34 45 120 196
123 121 145 147 145 173 0 20 10 41 30 61 30 31 30 31 30 150 0 119 0 119 -60
180 -60 61 -60 61 -60 150 0 86 1 91 30 120 29 29 30 34 30 120 0 86 -1 91
-30 120 -20 20 -30 41 -30 60 0 24 -16 45 -75 105 -75 75 -75 75 -225 75 -149
0 -149 0 -180 -30 -60 -58 -180 -38 -180 30 0 37 -24 60 -60 60 -19 0 -40 11
-60 30 -31 30 -31 30 -180 30 -149 0 -149 0 -210 -60 -47 -46 -68 -60 -90 -60
-24 0 -51 -21 -150 -120 -99 -99 -126 -120 -150 -120 -24 0 -47 -18 -120 -90
-73 -72 -96 -90 -120 -90 -24 0 -47 -18 -120 -90 -72 -72 -96 -90 -119 -90
-24 0 -52 -23 -152 -120 -129 -127 -157 -141 -192 -102 -15 16 -17 47 -17 225
0 207 0 207 -75 282 -60 60 -81 75 -105 75 -24 0 -42 12 -82 55 -28 30 -58 55
-67 55 -30 0 -211 -198 -211 -231 0 -25 -57 -85 -390 -419 -338 -338 -390
-394 -390 -420 0 -24 -21 -50 -120 -150 -99 -99 -120 -126 -120 -150 0 -19
-10 -40 -30 -60 -27 -27 -30 -38 -30 -90 0 -52 -3 -63 -30 -90 -20 -20 -30
-41 -30 -60 0 -19 -10 -40 -30 -60 -29 -29 -30 -34 -30 -120 0 -86 -1 -91 -30
-120 -29 -29 -30 -34 -30 -120 0 -86 -1 -91 -30 -120 -27 -27 -30 -38 -30 -90
0 -52 -3 -63 -30 -90 -20 -20 -30 -41 -30 -60 0 -22 -12 -42 -45 -75 -46 -45
-46 -45 -165 -45 -119 0 -119 0 -150 -30 -20 -20 -41 -30 -60 -30 -19 0 -40
-10 -60 -30 -20 -20 -41 -30 -60 -30 -22 0 -44 -14 -90 -60 -46 -46 -68 -60
-90 -60 -19 0 -40 -10 -60 -30 -20 -20 -41 -30 -60 -30 -22 0 -44 -14 -90 -60
-46 -46 -68 -60 -90 -60 -19 0 -40 -10 -60 -30 -17 -17 -41 -30 -55 -30 -13 0
-37 -12 -54 -26 -17 -14 -39 -24 -48 -22 -26 5 -33 5466 -7 5492 14 14 221 16
2144 16 1922 0 2130 2 2144 16 24 24 24 1444 0 1468 -14 14 -222 16 -2144 16
-1922 0 -2130 2 -2144 16 -14 14 -16 222 -16 2144 0 1922 -2 2130 -16 2144
-14 14 -94 16 -734 16 -640 0 -720 -2 -734 -16z m-4607 -8264 c47 -45 71 -60
92 -60 22 0 47 -19 119 -90 73 -72 96 -90 120 -90 24 0 47 -18 120 -90 73 -72
96 -90 120 -90 24 0 47 -18 120 -90 73 -73 96 -90 120 -90 25 0 54 -25 180
-150 126 -125 155 -150 180 -150 24 0 47 -17 120 -90 73 -72 96 -90 120 -90
24 0 47 -18 120 -90 72 -72 96 -90 120 -90 24 0 55 -26 181 -150 175 -173 178
-174 252 -105 62 58 69 141 17 195 -20 20 -30 41 -30 60 0 24 -18 47 -90 120
-72 73 -90 96 -90 120 0 22 -14 44 -60 90 -46 46 -60 68 -60 90 0 22 -14 44
-60 90 -46 46 -60 68 -60 90 0 19 -10 40 -30 60 -49 50 -46 193 6 250 20 22
44 40 53 40 30 0 211 -198 211 -231 0 -25 53 -82 360 -389 311 -311 360 -364
360 -390 0 -22 14 -43 60 -90 46 -46 60 -68 60 -90 0 -19 10 -40 30 -60 27
-27 30 -38 30 -90 0 -52 3 -63 30 -90 29 -29 30 -34 30 -120 0 -86 1 -91 30
-120 27 -27 30 -38 30 -90 0 -52 3 -63 30 -90 27 -27 30 -38 30 -90 0 -52 3
-63 30 -90 29 -29 30 -34 30 -120 0 -90 0 -90 105 -195 86 -86 111 -105 135
-105 19 0 40 -10 60 -30 20 -20 41 -30 60 -30 22 0 44 -14 90 -60 46 -46 68
-60 90 -60 19 0 40 -10 60 -30 20 -20 41 -30 60 -30 19 0 40 -10 60 -30 20
-20 41 -30 60 -30 22 0 44 -14 90 -60 46 -46 68 -60 90 -60 19 0 40 -10 60
-30 20 -20 41 -30 60 -30 19 0 40 -10 60 -30 20 -20 41 -30 60 -30 22 0 44
-14 90 -60 46 -46 68 -60 90 -60 19 0 40 -10 60 -30 20 -20 41 -30 60 -30 22
0 44 -14 90 -60 46 -46 68 -60 90 -60 19 0 40 -10 60 -30 18 -18 41 -30 57
-30 55 0 83 -62 46 -102 -9 -10 -29 -18 -44 -18 -21 0 -44 -15 -89 -60 -46
-46 -68 -60 -90 -60 -19 0 -40 -10 -60 -30 -20 -20 -41 -30 -60 -30 -22 0 -44
-14 -90 -60 -46 -46 -68 -60 -90 -60 -19 0 -40 -10 -60 -30 -20 -20 -41 -30
-60 -30 -22 0 -44 -14 -90 -60 -46 -46 -68 -60 -90 -60 -19 0 -40 -10 -60 -30
-20 -20 -41 -30 -60 -30 -19 0 -40 -10 -60 -30 -20 -20 -41 -30 -60 -30 -19 0
-40 -10 -60 -30 -20 -20 -41 -30 -60 -30 -22 0 -44 -14 -90 -60 -61 -60 -61
-60 -150 -60 -90 0 -90 0 -240 150 -126 126 -155 150 -180 150 -25 0 -57 28
-210 180 -152 152 -185 180 -210 180 -24 0 -50 21 -150 120 -99 99 -126 120
-150 120 -19 0 -40 10 -60 30 -29 29 -34 30 -120 30 -86 0 -91 1 -120 30 -20
20 -41 30 -60 30 -19 0 -40 10 -60 30 -29 29 -34 30 -120 30 -86 0 -91 1 -120
30 -27 27 -38 30 -90 30 -52 0 -63 3 -90 30 -20 20 -41 30 -60 30 -19 0 -40
10 -60 30 -20 20 -41 30 -60 30 -19 0 -40 10 -60 30 -20 20 -41 30 -60 30 -24
0 -51 21 -150 120 -99 99 -126 120 -150 120 -25 0 -54 24 -180 150 -126 126
-155 150 -180 150 -26 0 -68 38 -300 270 -231 231 -275 270 -300 270 -25 0
-70 41 -309 279 -155 153 -281 286 -281 294 0 21 84 87 110 87 12 0 38 -13 57
-30 21 -19 45 -30 63 -30 25 0 65 -35 270 -240 205 -205 245 -240 270 -240 24
0 47 -17 120 -90 91 -90 91 -90 180 -90 110 0 120 7 120 91 0 59 0 59 -195
254 -166 166 -200 195 -225 195 -25 0 -54 24 -180 150 -125 125 -155 150 -180
150 -25 0 -74 45 -339 309 -171 170 -311 316 -311 324 0 21 84 87 110 87 12 0
38 -13 57 -30 21 -19 45 -30 63 -30 24 0 47 -18 120 -90 73 -72 96 -90 120
-90 24 0 47 -18 120 -90 72 -72 96 -90 120 -90 36 0 60 -23 60 -60 0 -37 24
-60 61 -60 24 0 58 -29 209 -180 152 -152 185 -180 210 -180 24 0 47 -17 120
-90 63 -63 98 -90 115 -90 13 0 37 -11 53 -25 40 -34 54 -32 96 15 33 37 36
45 36 100 0 60 0 60 -105 165 -86 86 -111 105 -135 105 -25 0 -61 31 -240 210
-179 179 -215 210 -240 210 -24 0 -50 21 -150 120 -100 99 -126 120 -150 120
-25 0 -58 28 -210 180 -151 151 -185 180 -209 180 -38 0 -61 23 -61 61 0 19
-11 40 -30 61 -45 46 -41 79 18 133 56 53 82 56 129 15 21 -19 45 -30 63 -30
25 0 54 -25 180 -150 126 -126 155 -150 180 -150 24 0 51 -21 150 -120 100
-99 126 -120 150 -120 25 0 58 -28 210 -180 152 -152 185 -180 210 -180 24 0
47 -17 120 -90 72 -71 97 -90 119 -90 23 0 49 -19 122 -90 111 -107 123 -110
192 -45 46 43 47 46 47 104 0 58 -2 62 -45 106 -34 33 -53 45 -75 45 -25 0
-54 24 -180 150 -126 125 -155 150 -180 150 -24 0 -47 17 -120 90 -73 73 -96
90 -120 90 -25 0 -61 32 -240 210 -179 179 -215 210 -240 210 -22 0 -41 12
-75 45 -62 62 -61 90 3 150 64 61 82 59 161 -15z m10815 44 c11 -10 16 -34 16
-75 0 -59 0 -59 -135 -194 -113 -113 -140 -135 -165 -135 -25 0 -54 -24 -180
-150 -126 -126 -155 -150 -180 -150 -24 0 -51 -21 -150 -120 -99 -99 -126
-120 -150 -120 -24 0 -47 -18 -120 -90 -73 -72 -96 -90 -120 -90 -22 0 -42
-12 -75 -45 -55 -56 -59 -88 -15 -133 19 -21 30 -42 30 -61 0 -46 23 -61 91
-61 59 0 59 0 209 150 126 126 155 150 180 150 25 0 54 24 180 150 126 125
155 150 180 150 24 0 47 17 120 90 73 73 96 90 120 90 25 0 58 28 210 180 152
152 185 180 210 180 24 0 47 17 120 90 91 90 91 90 150 90 57 0 61 -2 105 -45
72 -73 69 -81 -90 -240 -113 -113 -140 -135 -165 -135 -25 0 -54 -24 -180
-150 -126 -126 -155 -150 -180 -150 -25 0 -54 -24 -180 -150 -126 -126 -155
-150 -180 -150 -25 0 -54 -24 -180 -150 -126 -126 -155 -150 -180 -150 -24 0
-49 -19 -135 -105 -126 -126 -130 -140 -60 -210 60 -60 143 -66 195 -15 20 19
41 30 60 30 36 0 60 23 60 60 0 37 24 60 61 60 24 0 54 26 179 150 126 126
155 150 180 150 24 0 51 21 150 120 99 99 126 120 150 120 24 0 51 21 150 120
99 99 126 120 150 120 22 0 43 14 90 60 60 60 61 60 120 60 77 0 90 -13 90
-91 0 -59 0 -59 -195 -254 -166 -166 -200 -195 -225 -195 -25 0 -57 -27 -210
-180 -153 -152 -185 -180 -210 -180 -25 0 -54 -24 -180 -150 -126 -126 -155
-150 -180 -150 -24 0 -49 -19 -135 -105 -105 -105 -105 -105 -105 -164 0 -84
10 -91 120 -91 89 0 89 0 150 60 47 46 68 60 90 60 25 0 61 32 240 210 179
178 215 210 240 210 22 0 43 14 90 60 46 46 68 60 90 60 18 0 42 11 63 30 67
58 117 32 117 -61 0 -59 0 -59 -165 -224 -140 -139 -170 -165 -195 -165 -25 0
-61 -31 -240 -210 -179 -179 -215 -210 -240 -210 -25 0 -61 -31 -240 -210
-179 -178 -215 -210 -240 -210 -24 0 -47 -17 -120 -90 -73 -72 -96 -90 -120
-90 -24 0 -51 -21 -150 -120 -99 -99 -126 -120 -150 -120 -19 0 -40 -10 -60
-30 -20 -20 -41 -30 -60 -30 -19 0 -40 -10 -60 -30 -20 -20 -41 -30 -60 -30
-19 0 -40 -10 -60 -30 -27 -27 -38 -30 -90 -30 -52 0 -63 -3 -90 -30 -29 -29
-34 -30 -120 -30 -86 0 -91 -1 -120 -30 -20 -20 -41 -30 -60 -30 -19 0 -40
-10 -60 -30 -29 -29 -34 -30 -120 -30 -89 0 -89 0 -150 -60 -46 -46 -68 -60
-90 -60 -24 0 -59 -30 -211 -180 -143 -142 -187 -180 -208 -180 -39 0 -121 81
-121 119 0 20 -10 41 -30 61 -27 27 -30 38 -30 90 0 52 -3 63 -30 90 -20 20
-30 41 -30 60 0 19 -10 40 -30 60 -27 27 -30 38 -30 90 0 52 -3 63 -30 90 -20
20 -30 41 -30 60 0 19 -10 40 -30 60 -20 20 -30 41 -30 60 0 19 -10 40 -30 60
-27 27 -30 38 -30 90 0 52 -3 63 -30 90 -27 27 -30 38 -30 90 0 60 0 60 150
210 125 126 150 155 150 180 0 19 10 40 30 60 30 31 30 31 30 150 0 119 0 119
30 150 27 27 30 38 30 90 0 52 3 63 30 90 20 20 30 41 30 60 0 19 10 40 30 60
29 29 30 34 30 120 0 86 1 91 30 120 20 20 30 41 30 60 0 19 10 40 30 60 20
20 30 41 30 60 0 19 10 40 30 60 19 20 30 41 30 60 0 36 23 60 60 60 37 0 60
24 60 60 0 41 79 120 120 120 37 0 60 23 60 61 0 24 37 65 240 269 203 204
240 245 240 269 0 37 23 61 60 61 36 0 60 23 60 57 0 55 62 83 102 46 15 -14
18 -32 18 -134 0 -118 0 -118 -30 -149 -20 -20 -30 -41 -30 -60 0 -19 -10 -40
-30 -60 -20 -20 -30 -41 -30 -60 0 -22 -14 -44 -60 -90 -46 -46 -60 -68 -60
-90 0 -24 -18 -47 -90 -120 -72 -73 -90 -96 -90 -120 0 -22 -14 -44 -60 -90
-60 -61 -60 -61 -60 -121 0 -58 1 -61 48 -104 56 -53 82 -56 129 -15 21 19 45
30 63 30 25 0 58 28 210 180 152 152 185 180 210 180 24 0 50 21 150 120 99
99 126 120 150 120 24 0 47 18 120 90 73 72 96 90 120 90 24 0 51 21 150 120
99 99 126 120 150 120 24 0 47 18 120 90 73 72 96 90 120 90 24 0 51 21 150
120 99 99 126 120 150 120 22 0 43 14 90 60 60 60 61 60 120 60 40 0 64 -5 74
-16z m-3842 -3001 c10 -9 18 -29 18 -44 0 -18 11 -40 30 -59 20 -20 30 -41 30
-60 0 -19 10 -40 30 -60 20 -20 30 -41 30 -60 0 -19 10 -40 30 -60 27 -27 30
-38 30 -90 0 -52 3 -63 30 -90 20 -20 30 -41 30 -60 0 -19 10 -40 30 -60 20
-20 30 -41 30 -60 0 -19 10 -40 30 -60 27 -27 30 -38 30 -90 0 -52 3 -63 30
-90 27 -27 30 -38 30 -90 0 -52 3 -63 30 -90 27 -27 30 -38 30 -90 0 -52 3
-63 30 -90 20 -20 30 -41 30 -60 0 -19 10 -40 30 -60 20 -20 30 -41 30 -60 0
-19 10 -40 30 -60 20 -20 30 -41 30 -60 0 -19 10 -40 30 -60 20 -20 30 -41 30
-60 0 -19 10 -40 30 -60 27 -27 30 -38 30 -90 0 -52 3 -63 30 -90 20 -20 30
-41 30 -60 0 -19 10 -40 30 -60 27 -27 30 -38 30 -90 0 -59 0 -59 60 -120 60
-61 60 -61 60 -150 0 -86 1 -91 30 -120 20 -20 30 -41 30 -60 0 -19 10 -40 30
-60 20 -20 30 -41 30 -60 0 -19 10 -40 30 -60 27 -27 30 -38 30 -90 0 -52 3
-63 30 -90 27 -27 30 -38 30 -90 0 -52 3 -63 30 -90 19 -19 30 -41 30 -59 0
-16 10 -37 25 -51 14 -13 25 -31 25 -40 0 -29 -138 -150 -171 -150 -18 0 -39
-11 -59 -30 -20 -20 -41 -30 -60 -30 -19 0 -40 -10 -60 -30 -27 -27 -38 -30
-90 -30 -52 0 -63 -3 -90 -30 -27 -27 -38 -30 -90 -30 -52 0 -63 -3 -90 -30
-27 -27 -38 -30 -90 -30 -52 0 -63 -3 -90 -30 -27 -27 -38 -30 -90 -30 -52 0
-63 -3 -90 -30 -27 -27 -38 -30 -90 -30 -52 0 -63 -3 -90 -30 -20 -20 -41 -30
-60 -30 -19 0 -40 -10 -60 -30 -20 -20 -41 -30 -60 -30 -19 0 -40 -10 -60 -30
-20 -20 -41 -30 -60 -30 -19 0 -40 -10 -60 -30 -20 -20 -41 -30 -60 -30 -19 0
-40 -10 -60 -30 -20 -20 -41 -30 -60 -30 -19 0 -40 -10 -60 -30 -31 -30 -31
-30 -150 -30 -119 0 -119 0 -150 -30 -20 -20 -41 -30 -60 -30 -19 0 -40 -10
-60 -30 -20 -20 -41 -30 -60 -30 -19 0 -40 -10 -60 -30 -27 -27 -38 -30 -90
-30 -52 0 -63 -3 -90 -30 -27 -27 -38 -30 -90 -30 -52 0 -63 -3 -90 -30 -20
-20 -41 -30 -60 -30 -19 0 -40 -10 -60 -30 -20 -20 -41 -30 -60 -30 -19 0 -40
-10 -60 -30 -20 -20 -41 -30 -60 -30 -19 0 -40 -10 -60 -30 -27 -27 -38 -30
-90 -30 -52 0 -63 -3 -90 -30 -20 -20 -41 -30 -60 -30 -19 0 -40 -10 -60 -30
-31 -30 -31 -30 -150 -30 -119 0 -119 0 -150 -30 -20 -20 -41 -30 -60 -30 -19
0 -40 -10 -60 -30 -20 -20 -41 -30 -60 -30 -19 0 -40 -10 -60 -30 -20 -20 -41
-30 -60 -30 -19 0 -40 -10 -60 -30 -27 -27 -38 -30 -90 -30 -52 0 -63 -3 -90
-30 -20 -20 -41 -30 -60 -30 -19 0 -40 -10 -60 -30 -20 -20 -41 -30 -60 -30
-19 0 -40 -10 -60 -30 -27 -27 -38 -30 -90 -30 -52 0 -63 -3 -90 -30 -27 -27
-38 -30 -90 -30 -52 0 -63 -3 -90 -30 -27 -27 -38 -30 -90 -30 -52 0 -63 -3
-90 -30 -20 -20 -41 -30 -60 -30 -19 0 -40 -10 -60 -30 -20 -20 -41 -30 -60
-30 -19 0 -40 -10 -60 -30 -20 -20 -41 -30 -60 -30 -19 0 -40 -10 -60 -30 -27
-27 -38 -30 -90 -30 -52 0 -63 -3 -90 -30 -20 -20 -41 -30 -60 -30 -19 0 -40
-10 -60 -30 -31 -30 -31 -30 -150 -30 -118 0 -120 0 -153 -30 -44 -38 -70 -38
-114 0 -21 19 -45 30 -63 30 -41 0 -120 79 -120 120 0 22 -14 44 -60 90 -46
46 -60 68 -60 90 0 22 -14 44 -60 90 -46 46 -60 68 -60 90 0 19 -10 40 -30 60
-20 20 -30 41 -30 60 0 22 -14 44 -60 90 -46 46 -60 68 -60 90 0 22 -14 44
-60 90 -46 46 -60 68 -60 90 0 19 -10 40 -30 60 -20 20 -30 41 -30 60 0 24
-18 47 -90 120 -72 73 -90 96 -90 120 0 24 -18 47 -90 120 -72 73 -90 96 -90
120 0 22 -14 44 -60 90 -46 46 -60 68 -60 90 0 19 -10 40 -30 60 -20 20 -30
41 -30 60 0 19 -10 40 -30 60 -20 20 -30 41 -30 60 0 20 -10 41 -30 62 -44 45
-40 77 15 133 33 33 53 45 75 45 22 0 44 14 90 60 46 46 68 60 90 60 22 0 44
14 90 60 46 46 68 60 90 60 22 0 44 14 90 60 46 46 68 60 90 60 19 0 40 10 60
30 20 20 41 30 60 30 19 0 40 10 60 30 20 20 41 30 60 30 19 0 40 10 60 30 20
20 41 30 60 30 19 0 40 10 60 30 20 20 41 30 60 30 19 0 40 10 60 30 20 20 41
30 60 30 22 0 44 14 90 60 46 46 68 60 90 60 22 0 44 14 90 60 46 46 68 60 90
60 19 0 40 10 60 30 20 20 41 30 60 30 22 0 44 14 90 60 46 46 68 60 90 60 19
0 40 10 60 30 20 20 41 30 60 30 22 0 44 14 90 60 46 46 68 60 90 60 19 0 40
10 60 30 20 20 41 30 60 30 19 0 40 10 60 30 20 20 41 30 60 30 19 0 40 10 60
30 20 20 41 30 60 30 22 0 44 14 90 60 46 46 68 60 90 60 19 0 40 10 60 30 20
20 41 30 60 30 19 0 40 10 60 30 20 20 41 30 60 30 19 0 40 10 60 30 20 20 41
30 60 30 19 0 40 10 60 30 20 20 41 30 60 30 22 0 44 14 90 60 46 46 68 60 90
60 22 0 44 14 90 60 46 46 68 60 90 60 19 0 40 10 60 30 20 20 41 30 60 30 22
0 44 14 90 60 46 46 68 60 90 60 19 0 40 10 60 30 20 20 41 30 60 30 19 0 40
10 60 30 20 20 41 30 60 30 22 0 44 14 90 60 46 46 68 60 90 60 19 0 40 10 60
30 20 20 41 30 60 30 19 0 40 10 60 30 20 20 41 30 60 30 22 0 44 14 90 60 46
46 68 60 90 60 19 0 40 10 60 30 20 20 41 30 60 30 22 0 44 14 90 60 46 46 68
60 90 60 19 0 40 10 60 30 20 20 41 30 60 30 19 0 40 10 60 30 20 20 41 30 60
30 22 0 44 14 90 60 46 46 68 60 90 60 22 0 44 14 90 60 46 46 68 60 90 60 19
0 40 10 60 30 20 20 41 30 60 30 22 0 44 14 90 60 61 60 61 60 120 60 52 0 64
4 92 30 37 33 73 38 100 13z m1530 -2718 c16 -14 40 -25 53 -25 14 0 38 -13
55 -30 20 -20 41 -30 60 -30 22 0 44 -14 90 -60 46 -46 68 -60 90 -60 22 0 44
-14 90 -60 46 -46 68 -60 90 -60 19 0 40 -10 60 -30 20 -20 41 -30 60 -30 19
0 40 -10 60 -30 20 -20 41 -30 60 -30 19 0 40 -10 60 -30 20 -20 41 -30 60
-30 22 0 44 -14 90 -60 46 -46 68 -60 90 -60 19 0 40 -10 60 -30 20 -20 41
-30 60 -30 19 0 40 -10 60 -30 20 -20 41 -30 60 -30 35 0 110 -62 110 -90 0
-9 -25 -40 -55 -68 -43 -40 -55 -58 -55 -81 0 -23 -14 -44 -60 -91 -46 -46
-60 -68 -60 -90 0 -22 -14 -44 -60 -90 -46 -46 -60 -68 -60 -90 0 -22 -14 -44
-60 -90 -46 -46 -60 -68 -60 -90 0 -19 -10 -40 -30 -60 -20 -20 -30 -41 -30
-60 0 -22 -14 -44 -60 -90 -46 -46 -60 -68 -60 -90 0 -24 -18 -47 -90 -120
-72 -73 -90 -96 -90 -120 0 -19 -10 -40 -30 -60 -20 -20 -30 -41 -30 -60 0
-22 -14 -44 -60 -90 -46 -46 -60 -68 -60 -90 0 -22 -14 -44 -60 -90 -46 -46
-60 -68 -60 -90 0 -22 -14 -44 -60 -90 -46 -46 -60 -68 -60 -90 0 -19 -10 -40
-30 -60 -19 -20 -30 -41 -30 -59 0 -32 -181 -231 -210 -231 -9 0 -52 38 -97
85 -67 70 -87 85 -112 85 -26 0 -53 22 -181 150 -126 126 -155 150 -180 150
-25 0 -57 28 -210 180 -152 152 -185 180 -210 180 -24 0 -50 21 -150 120 -100
99 -126 120 -150 120 -25 0 -54 24 -177 147 -131 132 -151 148 -187 153 -32 4
-42 10 -44 26 -4 29 71 94 109 94 18 0 40 11 59 30 27 27 38 30 90 30 52 0 63
3 90 30 27 27 38 30 90 30 52 0 63 3 90 30 20 20 41 30 60 30 19 0 40 10 60
30 29 29 34 30 120 30 86 0 91 1 120 30 20 20 41 30 60 30 19 0 40 10 60 30
20 20 41 30 60 30 19 0 40 10 60 30 27 27 38 30 90 30 52 0 63 3 90 30 20 20
41 30 60 30 19 0 40 10 60 30 20 20 41 30 60 30 19 0 40 10 60 30 29 29 34 30
120 30 86 0 91 1 120 30 20 20 41 30 61 30 20 0 38 9 55 28 22 23 36 28 97 32
83 6 98 26 52 70 -15 14 -25 34 -25 51 0 18 -11 40 -30 59 -27 27 -30 38 -30
90 0 52 -3 63 -30 90 -20 20 -30 41 -30 60 0 19 -10 40 -30 60 -27 27 -30 38
-30 90 0 52 -3 63 -30 90 -20 20 -30 41 -30 60 0 19 -10 40 -30 60 -66 67 -28
144 42 85z"/>
</g>
<g transform="translate(0.000000,2112.000000) scale(0.100000,-0.100000)" fill="#ab4246" stroke="none">
<path d="M4560 9570 c-20 -19 -41 -30 -60 -30 -37 0 -60 -23 -60 -60 0 -19
-11 -40 -30 -60 -30 -31 -30 -31 -30 -180 0 -149 0 -149 30 -180 20 -20 30
-41 30 -60 0 -22 12 -42 45 -75 44 -43 48 -45 105 -45 52 0 64 -4 93 -30 19
-16 45 -30 57 -30 12 0 38 14 57 30 21 19 45 30 63 30 24 0 49 19 135 105 105
105 105 105 105 255 0 150 0 150 -105 255 -105 105 -105 105 -255 105 -149 0
-149 0 -180 -30z"/>
<path d="M11715 9525 c-59 -60 -75 -81 -75 -105 0 -19 -10 -40 -30 -60 -29
-29 -30 -34 -30 -120 0 -86 1 -91 30 -120 20 -20 30 -41 30 -60 0 -24 16 -45
75 -105 75 -75 75 -75 255 -75 180 0 180 0 255 75 59 60 75 81 75 105 0 19 10
40 30 60 29 29 30 34 30 120 0 86 -1 91 -30 120 -20 20 -30 41 -30 60 0 41
-79 120 -120 120 -19 0 -40 10 -60 30 -31 30 -31 30 -180 30 -150 0 -150 0
-225 -75z"/>
</g>
</svg>
