<svg width="160" height="160" viewBox="0 0 160 160" fill="none" xmlns="http://www.w3.org/2000/svg">
<rect x="2" y="2" width="156" height="156" rx="10" fill="#F2F2F7"/>
<rect x="2" y="2" width="156" height="156" rx="10" stroke="#727272" stroke-width="4"/>
<path d="M68.9709 119.226L63.9575 91.5927C63.5542 89.376 61.1075 88.1927 59.1275 89.2627C59.0875 89.286 59.0475 89.306 59.0042 89.3293C56.6442 90.6027 53.8275 88.696 54.1409 86.0327C54.6142 81.996 55.0609 77.4527 55.5642 74.056C56.0042 71.086 55.7875 68.0727 54.9042 65.2027L44.4975 31.3727C43.6375 28.576 41.0509 26.666 38.1242 26.666H33.0475C29.3642 26.666 26.3809 29.6493 26.3809 33.3327V126.666C26.3809 130.349 29.3642 133.333 33.0475 133.333H77.6442C82.0975 133.333 84.3309 127.946 81.1809 124.796C80.2442 123.859 78.9709 123.333 77.6442 123.333H73.8909C71.4742 123.333 69.4009 121.603 68.9709 119.226Z" fill="#727272"/>
<path d="M66.4004 86.5823L87.3737 92.3156C89.8704 92.999 92.3337 91.119 92.3337 88.529V88.5223C92.3337 86.2123 90.3504 84.4023 88.0504 84.6123L66.4004 86.5823Z" fill="#727272"/>
<path d="M83.1137 100.539L66.4004 86.582L77.1871 105.495C78.4704 107.745 81.5471 108.159 83.3771 106.325C85.0037 104.692 84.8837 102.015 83.1137 100.539Z" fill="#727272"/>
<path d="M131.098 94.7191L90.9142 54.4025L91.8908 53.4225C93.1942 52.1191 93.1942 50.0025 91.8908 48.6958L91.4542 48.2558L103.048 36.6658C104.888 34.8258 104.888 31.8391 103.048 29.9991C101.208 28.1591 98.2208 28.1591 96.3808 29.9991L84.7942 41.5858L83.9075 40.6991C82.6042 39.3958 80.4942 39.3958 79.1908 40.6991L70.5675 49.3391C69.2642 50.6425 69.2642 52.7591 70.5675 54.0658L70.8142 54.3125C64.1108 63.1991 62.5642 70.6458 59.6875 83.3358C66.2975 74.2958 70.0908 69.1091 77.5675 61.0791L78.5508 62.0658C79.8508 63.3691 81.9642 63.3691 83.2675 62.0658L84.2442 61.0858L124.421 101.396C126.261 103.242 129.254 103.242 131.094 101.399C132.938 99.5525 132.938 96.5658 131.098 94.7191Z" fill="#727272"/>
</svg>
