<svg xmlns="http://www.w3.org/2000/svg" viewBox="0 0 1776.000000 1680.000000" width="296" height="280">
<g transform="translate(0.000000,1680.000000) scale(0.100000,-0.100000)" fill="#cba548" stroke="none">
<path d="M8596 14273 c-15 -15 -4 -44 19 -53 14 -5 25 -15 25 -21 0 -6 -128
-139 -285 -295 -242 -240 -290 -284 -315 -284 -24 0 -60 -31 -218 -187 -204
-203 -216 -218 -177 -233 15 -6 25 -17 25 -30 0 -28 -28 -25 -42 5 -19 42 -70
21 -70 -29 0 -66 0 -66 361 -66 188 0 332 -4 341 -10 13 -8 16 -99 20 -682 6
-783 -4 -730 112 -608 51 55 68 80 68 101 0 23 23 52 120 149 99 99 120 126
120 150 0 19 10 40 30 60 30 31 30 31 30 990 0 1070 6 990 -71 990 -32 0 -41
4 -48 24 -10 24 -34 40 -45 29z"/>
<path d="M8897 14213 c-30 -29 53 -113 112 -113 24 0 1001 -970 1001 -993 0
-34 -59 -35 -98 -2 -17 14 -35 25 -42 25 -7 0 -25 -11 -42 -25 -16 -14 -38
-25 -48 -25 -10 0 -32 11 -48 25 -17 14 -35 25 -42 25 -7 0 -25 -11 -42 -25
-48 -40 -183 -37 -231 5 -39 34 -76 38 -100 12 -16 -17 -17 -83 -17 -738 0
-547 -3 -723 -12 -732 -19 -19 -37 -14 -50 13 -8 18 -18 25 -32 23 -30 -4 -26
-30 7 -46 23 -11 27 -19 27 -52 0 -35 7 -47 60 -100 60 -61 60 -61 60 -120 0
-52 3 -63 30 -90 30 -31 30 -31 30 -240 0 -209 0 -209 -31 -241 -61 -63 -24
-140 42 -85 25 21 41 26 84 26 47 0 59 4 85 30 27 26 38 30 90 30 67 0 90 15
90 60 0 37 24 60 61 60 44 0 2159 2115 2159 2159 0 38 23 61 61 61 45 0 899
855 899 901 0 25 11 41 55 82 39 35 55 57 53 71 -3 21 -3 21 -2084 24 -1144 1
-2084 -1 -2087 -5z"/>
<path d="M4384 14199 c-4 -6 7 -25 25 -41 31 -29 31 -29 31 -178 0 -149 0
-149 -30 -180 -30 -31 -30 -31 -30 -360 0 -329 0 -329 30 -360 30 -31 30 -31
30 -960 0 -929 0 -929 -30 -960 -43 -44 -46 -192 -5 -230 14 -13 25 -31 25
-40 0 -9 -11 -27 -25 -40 -39 -37 -36 -128 5 -170 30 -31 30 -31 30 -209 0
-176 0 -178 -25 -201 -32 -30 -32 -50 0 -80 22 -21 25 -32 27 -119 4 -137 6
-136 199 59 131 133 159 166 159 190 0 37 607 654 638 648 16 -3 17 -30 22
-346 4 -290 7 -344 20 -352 9 -6 320 -10 792 -10 855 0 808 -3 808 60 0 19 11
40 30 60 20 20 30 41 30 60 0 19 10 40 30 60 19 20 30 41 30 60 0 37 23 60 60
60 22 0 44 15 90 60 46 46 68 60 90 60 19 0 40 10 60 30 26 26 38 30 85 30 42
0 60 5 83 25 36 30 58 32 74 5 13 -21 43 -27 53 -10 7 12 -3370 3390 -3389
3390 -8 0 -18 -5 -22 -11z"/>
<path d="M8688 11895 c-37 -34 -48 -52 -48 -74 0 -25 -17 -47 -90 -121 -72
-73 -90 -96 -90 -120 0 -19 -10 -40 -30 -60 -29 -29 -30 -34 -30 -120 0 -86
-1 -91 -30 -120 -30 -31 -30 -31 -30 -270 0 -239 0 -239 30 -270 27 -27 30
-38 30 -90 0 -52 3 -63 30 -90 27 -27 30 -38 30 -90 0 -52 3 -63 30 -90 20
-20 30 -41 30 -60 0 -19 10 -40 30 -60 29 -30 30 -34 30 -121 0 -85 1 -91 28
-115 27 -26 27 -26 33 -197 5 -185 1 -217 -31 -217 -26 0 -40 36 -33 86 4 33
0 45 -26 78 -29 37 -31 43 -31 127 0 85 -1 90 -30 119 -20 20 -30 41 -30 60 0
19 -10 40 -30 60 -20 20 -30 41 -30 60 0 44 -316 360 -360 360 -19 0 -40 10
-60 30 -31 30 -31 30 -240 30 -210 0 -210 0 -315 -105 -105 -105 -105 -105
-105 -165 0 -52 -3 -63 -30 -90 -29 -29 -30 -34 -30 -120 0 -86 1 -91 30 -120
27 -27 30 -37 30 -91 0 -60 0 -60 107 -164 81 -81 113 -105 133 -105 42 0 60
28 60 93 0 57 0 57 105 162 105 105 105 105 255 105 150 0 150 0 255 -105 86
-86 105 -111 105 -135 0 -19 10 -40 30 -60 26 -27 30 -38 30 -90 0 -77 -13
-90 -90 -90 -77 0 -90 -13 -90 -90 0 -82 10 -90 120 -90 116 0 120 -4 120
-122 0 -90 0 -90 -115 -202 -113 -110 -131 -138 -99 -150 32 -12 57 -5 91 24
29 26 42 30 92 30 49 0 61 4 81 25 44 46 64 31 70 -52 4 -61 9 -75 33 -97 24
-22 27 -32 27 -85 0 -54 3 -64 30 -91 20 -20 30 -41 30 -60 0 -35 62 -110 90
-110 41 0 90 75 90 140 0 52 3 63 30 90 29 29 30 34 30 120 0 116 4 120 120
120 85 0 91 -1 123 -30 39 -34 62 -37 95 -14 47 33 32 63 -98 194 -120 120
-120 120 -120 180 0 86 7 90 150 90 143 0 150 4 150 90 0 77 -13 90 -90 90
-83 0 -90 10 -90 121 0 89 0 89 135 224 135 135 135 135 285 135 150 0 150 0
225 -75 75 -75 75 -75 75 -135 0 -55 3 -63 36 -100 42 -47 56 -49 96 -15 16
14 40 25 54 25 35 0 114 82 114 120 0 19 10 40 30 60 20 20 30 41 30 60 0 19
10 40 30 60 29 29 30 34 30 120 0 86 -1 91 -30 120 -27 27 -30 38 -30 90 0 60
0 60 -75 135 -60 59 -81 75 -105 75 -19 0 -40 10 -60 30 -31 30 -31 30 -240
30 -210 0 -210 0 -330 -120 -99 -98 -126 -120 -150 -120 -37 0 -60 -23 -60
-60 0 -22 -15 -44 -60 -90 -46 -46 -60 -68 -60 -90 0 -19 -10 -40 -30 -60 -27
-27 -30 -38 -30 -90 0 -52 -3 -63 -30 -90 -29 -29 -30 -34 -30 -120 0 -89 0
-90 -37 -130 -65 -73 -77 -59 -81 92 -3 127 -3 127 28 158 29 30 30 34 30 120
0 86 1 91 30 120 27 27 30 38 30 90 0 52 3 63 30 90 20 20 30 41 30 60 0 19
10 40 30 60 27 27 30 38 30 90 0 52 3 63 30 90 27 27 30 38 30 90 0 52 3 63
30 90 30 31 30 31 30 210 0 179 0 179 -30 210 -27 27 -30 38 -30 90 0 52 -3
63 -30 90 -27 27 -30 38 -30 90 0 59 0 59 -60 120 -47 47 -60 67 -60 91 0 25
-18 47 -107 134 -125 124 -135 126 -205 60z"/>
<path d="M9067 11856 c-3 -7 -1 -18 5 -24 15 -15 38 -3 38 19 0 22 -35 26 -43
5z"/>
<path d="M8170 11370 c0 -13 7 -20 20 -20 13 0 20 7 20 20 0 13 -7 20 -20 20
-13 0 -20 -7 -20 -20z"/>
<path d="M12130 10950 c0 -10 8 -24 19 -29 10 -6 22 -22 25 -36 5 -18 13 -25
31 -25 28 0 38 -12 29 -34 -9 -23 -41 -20 -49 5 -5 15 -14 19 -33 17 -27 -3
-27 -3 -32 -285 -3 -155 -9 -285 -13 -290 -5 -4 -378 -10 -830 -13 -820 -5
-822 -5 -825 -26 -2 -11 6 -28 18 -39 26 -24 25 -36 -5 -65 -24 -23 -25 -27
-25 -171 0 -163 5 -179 60 -179 19 0 40 -11 60 -30 27 -27 38 -30 90 -30 52 0
63 3 90 30 31 30 31 30 450 30 419 0 419 0 450 -30 31 -30 31 -30 360 -30 329
0 329 0 360 30 31 30 31 30 389 30 416 0 391 -7 391 101 0 61 2 65 31 82 33
18 34 40 3 45 -14 2 -24 -6 -32 -23 -6 -14 -17 -25 -23 -25 -6 0 -125 115
-265 255 -214 215 -254 260 -254 285 0 29 -283 331 -337 359 -13 6 -23 17 -23
24 0 18 -75 87 -94 87 -9 0 -16 -8 -16 -20z"/>
<path d="M8158 10765 c-15 -33 3 -75 32 -75 29 0 47 42 32 75 -7 15 -20 25
-32 25 -12 0 -25 -10 -32 -25z"/>
<path d="M7078 9985 c-15 -33 3 -75 32 -75 29 0 47 42 32 75 -7 15 -20 25 -32
25 -12 0 -25 -10 -32 -25z"/>
<path d="M4380 9864 c-23 -58 -5 -129 35 -144 36 -14 35 -73 -2 -112 -34 -35
-23 -60 29 -69 49 -8 178 -138 178 -180 0 -24 52 -80 344 -374 190 -190 349
-345 355 -345 7 0 17 11 23 25 12 27 48 35 48 10 0 -8 -11 -22 -24 -30 -30
-20 -25 -42 19 -85 69 -67 69 -67 75 317 3 188 9 345 13 350 5 4 581 10 1280
13 1272 5 1272 5 1275 26 2 11 -6 28 -18 39 -26 24 -25 36 5 65 24 22 25 29
25 141 0 130 8 149 59 149 73 0 81 72 14 135 -47 45 -47 45 -135 45 -87 0 -87
0 -133 -45 -45 -46 -45 -46 -45 -195 0 -177 -2 -180 -90 -180 -52 0 -63 4 -90
30 -20 20 -41 30 -60 30 -19 0 -40 10 -60 30 -20 20 -41 30 -61 30 -46 0 -222
182 -235 242 -13 61 -56 64 -64 4 -7 -56 -32 -68 -68 -33 -28 27 -28 27 -1255
27 -1226 0 -1226 0 -1260 -30 -35 -31 -89 -41 -102 -19 -4 6 -8 38 -9 72 -1
35 -5 68 -10 75 -13 21 -46 14 -56 -14z"/>
<path d="M9494 9825 c-9 -22 3 -45 23 -45 161 -2 183 -5 198 -28 9 -12 25 -22
35 -22 38 0 32 23 -16 66 -48 44 -48 44 -141 44 -74 0 -95 -3 -99 -15z"/>
<path d="M9371 9766 c-16 -19 -6 -36 20 -36 15 0 20 6 17 22 -4 27 -21 33 -37
14z"/>
<path d="M10333 9769 c-16 -16 -5 -39 19 -39 14 0 19 6 16 22 -4 25 -19 33
-35 17z"/>
<path d="M13152 9688 c2 -13 10 -23 18 -23 8 0 16 10 18 23 3 17 -2 22 -18 22
-16 0 -21 -5 -18 -22z"/>
<path d="M9490 9645 c-15 -18 -5 -35 20 -35 10 0 22 5 25 10 7 11 -12 40 -25
40 -4 0 -13 -7 -20 -15z"/>
<path d="M12698 9129 c-346 -348 -398 -404 -398 -430 0 -38 -82 -119 -121
-119 -57 0 -59 8 -59 333 0 255 -2 298 -16 311 -14 14 -143 16 -1269 16 -1253
0 -1253 0 -1283 25 -17 14 -36 25 -44 25 -8 0 -25 -11 -38 -25 -14 -15 -35
-25 -52 -25 -37 0 -110 -65 -106 -94 2 -16 12 -22 43 -26 35 -5 56 -22 168
-131 136 -134 138 -136 107 -164 -34 -30 -22 -59 26 -65 57 -8 724 -671 724
-720 0 -37 1867 -1914 1898 -1908 12 2 19 16 23 45 4 35 15 52 62 97 44 43 57
62 57 85 0 20 10 41 30 61 20 20 30 41 30 60 0 22 14 44 60 90 46 46 60 68 60
90 0 19 10 40 30 60 20 20 30 41 30 60 0 19 10 40 30 60 20 20 30 41 30 60 0
19 10 40 30 60 20 20 30 41 30 60 0 19 10 40 30 60 20 20 30 41 30 60 0 19 10
40 30 60 27 27 30 38 30 90 0 52 3 63 30 90 27 27 30 38 30 90 0 52 3 63 30
90 29 29 30 34 30 120 0 86 1 91 30 120 30 31 30 31 30 150 0 119 0 119 30
150 30 31 30 31 28 728 -3 689 -3 697 -23 699 -14 2 -132 -111 -417 -398z"/>
<path d="M4392 9461 c-14 -8 -20 -959 -7 -981 8 -13 42 -13 50 0 13 22 7 973
-7 981 -16 11 -20 11 -36 0z"/>
<path d="M9910 9450 c0 -13 7 -20 20 -20 13 0 20 7 20 20 0 13 -7 20 -20 20
-13 0 -20 -7 -20 -20z"/>
<path d="M8230 9225 c-15 -18 -5 -35 20 -35 10 0 22 5 25 10 7 11 -12 40 -25
40 -4 0 -13 -7 -20 -15z"/>
<path d="M7895 8888 c-38 -39 -40 -43 -37 -99 2 -59 2 -59 -1283 -1344 -707
-706 -1285 -1291 -1285 -1298 0 -8 25 -37 55 -65 43 -40 55 -58 55 -81 0 -25
20 -51 120 -151 99 -100 120 -126 120 -150 0 -45 675 -720 720 -720 24 0 50
-21 150 -120 99 -99 126 -120 150 -120 25 0 54 -24 180 -150 126 -126 155
-150 180 -150 24 0 51 -21 150 -120 99 -99 126 -120 150 -120 24 0 47 -18 120
-90 73 -72 96 -90 120 -90 22 0 44 -14 90 -60 46 -46 68 -60 90 -60 22 0 44
-14 90 -60 46 -46 68 -60 90 -60 22 0 44 -14 90 -60 46 -46 68 -60 90 -60 22
0 44 -14 90 -60 46 -45 68 -60 90 -60 21 0 44 -15 91 -60 63 -61 63 -61 128
-58 100 5 95 17 -56 166 -112 110 -133 127 -168 132 -47 6 -58 35 -25 65 31
28 30 29 -125 181 -124 122 -145 147 -145 173 0 26 -26 56 -180 211 -148 148
-180 185 -180 208 0 18 -10 38 -25 52 -15 14 -25 33 -23 45 3 20 11 20 348 25
190 3 346 7 346 8 1 1 5 9 8 18 3 9 6 909 6 2000 0 1983 0 1983 32 1989 18 3
56 6 83 7 46 3 50 5 50 28 0 24 -3 25 -72 28 -71 3 -72 3 -88 -28 -24 -46
-138 -46 -185 0 -27 26 -38 30 -85 30 -93 0 -121 50 -64 114 57 65 7 77 -56
14z m313 -4117 c-5 -24 -38 -27 -38 -3 0 10 3 21 6 25 11 11 35 -5 32 -22z"/>
<path d="M9443 8753 c-15 -5 -17 -39 -4 -48 17 -10 43 25 30 41 -6 8 -12 14
-13 13 0 0 -7 -3 -13 -6z"/>
<path d="M9105 8655 c-33 -33 -45 -53 -45 -75 0 -19 -10 -40 -30 -60 -20 -20
-30 -41 -30 -60 0 -22 -14 -44 -60 -90 -45 -46 -60 -68 -60 -90 0 -36 -23 -60
-60 -60 -65 0 -60 219 -60 -2489 0 -2368 1 -2459 18 -2474 42 -38 102 -7 102
53 0 50 53 70 64 25 6 -25 39 -35 51 -16 7 12 -22 41 -41 41 -32 0 -9 38 76
121 74 72 90 94 90 118 0 25 20 51 120 151 99 100 120 126 120 150 0 25 31 61
210 240 181 182 210 214 210 241 0 25 15 44 85 112 97 93 100 101 45 151 -40
36 -40 36 -309 36 -232 0 -272 2 -285 16 -14 14 -16 209 -16 1994 0 1785 -2
1980 -16 1994 -10 11 -34 16 -74 16 -57 0 -61 -2 -105 -45z"/>
<path d="M8590 8370 c0 -13 7 -20 20 -20 13 0 20 7 20 20 0 13 -7 20 -20 20
-13 0 -20 -7 -20 -20z"/>
<path d="M4450 7890 c0 -13 7 -20 20 -20 13 0 20 7 20 20 0 13 -7 20 -20 20
-13 0 -20 -7 -20 -20z"/>
<path d="M4630 7290 c0 -13 7 -20 20 -20 13 0 20 7 20 20 0 13 -7 20 -20 20
-13 0 -20 -7 -20 -20z"/>
<path d="M4690 7171 c0 -26 17 -36 35 -21 18 15 8 40 -16 40 -12 0 -19 -7 -19
-19z"/>
<path d="M4753 7009 c-16 -16 -5 -39 19 -39 14 0 19 6 16 22 -4 25 -19 33 -35
17z"/>
<path d="M4810 6870 c0 -13 7 -20 20 -20 13 0 20 7 20 20 0 13 -7 20 -20 20
-13 0 -20 -7 -20 -20z"/>
<path d="M4930 6630 c0 -13 7 -20 20 -20 13 0 20 7 20 20 0 13 -7 20 -20 20
-13 0 -20 -7 -20 -20z"/>
<path d="M5050 6450 c0 -13 7 -20 20 -20 13 0 20 7 20 20 0 13 -7 20 -20 20
-13 0 -20 -7 -20 -20z"/>
<path d="M5170 6271 c0 -22 23 -34 38 -19 15 15 3 38 -19 38 -12 0 -19 -7 -19
-19z"/>
<path d="M12130 5970 c0 -13 7 -20 20 -20 13 0 20 7 20 20 0 13 -7 20 -20 20
-13 0 -20 -7 -20 -20z"/>
<path d="M11646 5441 c-121 -121 -141 -151 -98 -151 23 1 276 255 268 269 -16
26 -48 4 -170 -118z"/>
<path d="M11410 5190 c0 -13 7 -20 20 -20 13 0 20 7 20 20 0 13 -7 20 -20 20
-13 0 -20 -7 -20 -20z"/>
<path d="M10870 4710 c0 -13 7 -20 20 -20 13 0 20 7 20 20 0 13 -7 20 -20 20
-13 0 -20 -7 -20 -20z"/>
<path d="M10570 4470 c0 -13 7 -20 20 -20 13 0 20 7 20 20 0 13 -7 20 -20 20
-13 0 -20 -7 -20 -20z"/>
<path d="M10270 4230 c0 -13 7 -20 20 -20 13 0 20 7 20 20 0 13 -7 20 -20 20
-13 0 -20 -7 -20 -20z"/>
<path d="M10090 4110 c0 -13 7 -20 20 -20 13 0 20 7 20 20 0 13 -7 20 -20 20
-13 0 -20 -7 -20 -20z"/>
<path d="M9850 3930 c0 -13 7 -20 20 -20 13 0 20 7 20 20 0 13 -7 20 -20 20
-13 0 -20 -7 -20 -20z"/>
<path d="M9670 3810 c0 -13 7 -20 20 -20 13 0 20 7 20 20 0 13 -7 20 -20 20
-13 0 -20 -7 -20 -20z"/>
<path d="M9310 3570 c0 -13 7 -20 20 -20 13 0 20 7 20 20 0 13 -7 20 -20 20
-13 0 -20 -7 -20 -20z"/>
<path d="M9135 3466 c-19 -14 -19 -16 -2 -33 16 -16 18 -16 34 0 26 26 -3 55
-32 33z"/>
</g>
<g transform="translate(0.000000,1680.000000) scale(0.100000,-0.100000)" fill="#1a1914" stroke="none">
<path d="M13810 14910 c0 -13 7 -20 20 -20 13 0 20 7 20 20 0 13 -7 20 -20 20
-13 0 -20 -7 -20 -20z"/>
<path d="M4457 14213 c-4 -3 -7 -12 -7 -20 0 -7 761 -774 1690 -1703 1690
-1690 1690 -1690 1750 -1690 52 0 63 -3 90 -30 17 -16 41 -30 55 -30 13 0 37
-12 54 -26 66 -55 65 -58 71 323 5 341 5 341 33 367 18 17 27 35 27 55 0 20
10 41 30 61 30 31 30 31 30 778 0 453 -4 753 -10 762 -8 13 -65 16 -382 20
-346 5 -373 6 -376 23 -6 30 491 517 528 517 37 0 594 547 588 577 -3 17 -109
18 -2084 21 -1144 1 -2084 -1 -2087 -5z"/>
<path d="M8776 14204 c-14 -14 -16 -116 -16 -974 0 -960 0 -960 120 -1080 99
-99 120 -126 120 -150 0 -24 18 -47 90 -120 73 -73 90 -96 90 -120 0 -39 64
-112 94 -108 21 3 21 3 24 727 2 657 4 726 19 743 24 26 61 22 100 -12 48 -42
183 -45 231 -5 17 14 35 25 42 25 7 0 25 -11 42 -25 16 -14 38 -25 48 -25 10
0 32 11 48 25 17 14 35 25 42 25 7 0 25 -11 42 -25 39 -33 98 -32 98 2 0 7
-221 234 -490 503 -419 418 -495 490 -519 490 -21 0 -45 15 -92 60 -68 63
-103 75 -133 44z"/>
<path d="M13027 14139 c-50 -54 -67 -79 -67 -101 0 -43 -856 -898 -899 -898
-38 0 -61 -23 -61 -61 0 -43 -2115 -2159 -2158 -2159 -55 0 -83 -68 -44 -103
15 -14 41 -17 135 -17 116 0 116 0 147 -30 20 -20 41 -30 60 -30 19 0 40 -10
60 -30 20 -19 41 -30 60 -30 16 0 36 -7 44 -16 9 -8 16 -28 16 -44 0 -19 11
-40 30 -60 20 -20 30 -41 30 -60 0 -19 10 -40 30 -60 26 -27 30 -38 30 -90 0
-99 -81 -90 838 -90 491 0 813 4 822 10 13 8 16 62 20 352 5 318 6 343 23 346
30 6 457 -431 457 -468 0 -37 487 -534 517 -528 30 6 28 4232 -2 4236 -14 2
-41 -19 -88 -69z"/>
<path d="M5108 10659 c-264 -265 -308 -314 -308 -339 0 -25 -28 -58 -180 -210
-180 -180 -180 -180 -180 -269 0 -124 42 -157 117 -91 34 30 34 30 1262 30
1228 0 1228 0 1251 -25 43 -46 65 -31 68 47 3 62 1 68 -28 98 -30 31 -30 31
-30 180 0 122 -3 151 -16 164 -14 14 -100 16 -792 16 -472 0 -783 4 -792 10
-13 8 -16 62 -20 352 -5 334 -6 343 -25 345 -14 2 -107 -86 -327 -308z"/>
<path d="M9435 9761 c-92 -56 -87 -94 13 -101 50 -3 76 -10 82 -20 5 -8 10
-95 10 -192 0 -147 3 -179 16 -192 14 -14 143 -16 1274 -16 1131 0 1260 -2
1274 -16 14 -13 16 -56 16 -313 0 -326 1 -331 61 -331 38 0 119 82 119 120 0
26 52 82 420 450 420 420 420 420 420 509 0 131 34 121 -390 121 -359 0 -359
0 -390 -30 -31 -30 -31 -30 -360 -30 -329 0 -329 0 -360 30 -31 30 -31 30
-450 30 -419 0 -419 0 -450 -30 -27 -27 -38 -30 -90 -30 -52 0 -64 4 -93 30
-19 17 -45 30 -57 30 -12 0 -38 -13 -57 -30 -21 -19 -45 -30 -63 -30 -24 0
-51 -21 -150 -120 -99 -99 -126 -120 -150 -120 -19 0 -40 -10 -60 -30 -27 -26
-38 -30 -89 -30 -48 0 -61 -4 -81 -25 -32 -35 -52 -31 -94 15 -36 40 -36 41
-36 128 0 81 2 90 25 112 35 32 31 52 -15 94 -40 36 -40 36 -153 36 -92 0
-117 -3 -142 -19z"/>
<path d="M4447 9523 c-4 -3 -7 -345 -7 -759 0 -753 0 -753 30 -784 29 -29 30
-34 30 -120 0 -86 1 -91 30 -120 27 -27 30 -38 30 -90 0 -52 3 -63 30 -90 29
-29 30 -34 30 -120 0 -86 1 -91 30 -120 20 -20 30 -41 30 -60 0 -19 10 -40 30
-60 27 -27 30 -38 30 -90 0 -52 3 -63 30 -90 20 -20 30 -41 30 -60 0 -19 10
-40 30 -60 20 -20 30 -41 30 -60 0 -19 10 -40 30 -60 20 -20 30 -41 30 -60 0
-22 14 -44 60 -90 46 -46 60 -68 60 -90 0 -22 14 -44 60 -90 45 -46 60 -68 60
-89 0 -31 120 -171 147 -171 7 0 585 572 1283 1270 1270 1270 1270 1270 1270
1330 0 60 0 60 75 135 60 60 81 75 105 75 40 0 120 78 120 119 0 17 10 37 25
51 15 14 25 33 23 45 -3 20 -3 20 -1358 22 -842 2 -1361 -1 -1370 -7 -13 -8
-16 -62 -20 -352 -5 -315 -6 -343 -22 -346 -30 -6 -818 791 -818 827 0 52
-146 191 -173 164z"/>
<path d="M9540 8730 c-29 -29 -34 -30 -120 -30 -67 0 -92 -4 -104 -16 -19 -18
-25 -3955 -6 -3984 8 -13 62 -16 352 -20 322 -5 343 -6 346 -23 3 -13 -33 -54
-112 -132 -98 -96 -116 -119 -116 -144 0 -27 -29 -59 -210 -241 -179 -179
-210 -215 -210 -240 0 -24 -21 -50 -120 -150 -101 -101 -120 -125 -120 -151 0
-25 -19 -49 -122 -150 -109 -108 -120 -122 -106 -135 14 -14 19 -13 47 15 19
19 42 31 59 31 19 1 46 18 90 60 48 45 71 60 93 60 22 0 47 19 119 90 73 72
96 90 120 90 19 0 40 10 60 30 20 20 41 30 60 30 22 0 44 14 90 60 46 46 68
60 90 60 24 0 47 18 120 90 73 72 96 90 120 90 22 0 44 14 90 60 46 46 68 60
90 60 24 0 47 18 120 90 73 72 96 90 120 90 24 0 47 18 120 90 73 73 96 90
120 90 25 0 54 25 180 150 126 126 155 150 180 150 45 0 1080 1035 1080 1080
0 24 17 47 90 120 73 73 90 96 90 120 0 26 -115 145 -930 960 -819 819 -930
934 -930 960 0 26 -45 75 -345 375 -345 345 -345 345 -405 345 -52 0 -63 -3
-90 -30z"/>
<path d="M8296 8684 c-14 -14 -16 -209 -16 -1992 0 -1227 -4 -1983 -10 -1992
-8 -13 -62 -16 -352 -20 -336 -5 -343 -5 -346 -25 -2 -12 8 -31 23 -45 15 -14
25 -34 25 -52 0 -23 32 -60 180 -208 152 -153 180 -185 180 -210 0 -25 24 -54
150 -180 126 -126 150 -155 150 -180 0 -25 24 -54 150 -180 124 -125 150 -155
150 -179 0 -37 23 -61 59 -61 35 0 48 -15 59 -66 10 -47 47 -61 59 -22 5 13 6
1126 3 2473 -5 2450 -5 2450 -92 2538 -71 70 -88 93 -88 117 0 22 -14 43 -60
90 -60 60 -60 61 -60 120 0 77 -13 90 -90 90 -40 0 -64 -5 -74 -16z"/>
<path d="M4022 8308 c-10 -28 -8 -231 2 -246 12 -20 46 -13 54 11 10 27 8 230
-2 245 -12 20 -46 13 -54 -10z"/>
<path d="M13802 8128 c-10 -28 -8 -171 2 -187 12 -19 46 -12 54 12 10 27 8
170 -2 186 -12 19 -46 12 -54 -11z"/>
<path d="M4078 7825 c-15 -33 3 -75 32 -75 12 0 25 10 32 25 15 33 -3 75 -32
75 -12 0 -25 -10 -32 -25z"/>
<path d="M13738 7765 c-15 -33 3 -75 32 -75 12 0 25 10 32 25 15 33 -3 75 -32
75 -12 0 -25 -10 -32 -25z"/>
<path d="M13680 7525 c-23 -61 -4 -138 33 -133 29 4 45 62 31 116 -12 48 -48
58 -64 17z"/>
<path d="M4198 7405 c-15 -33 3 -75 32 -75 12 0 25 10 32 25 15 33 -3 75 -32
75 -12 0 -25 -10 -32 -25z"/>
<path d="M13618 7285 c-15 -33 3 -75 32 -75 12 0 25 10 32 25 15 33 -3 75 -32
75 -12 0 -25 -10 -32 -25z"/>
<path d="M4273 7189 c-16 -16 -5 -39 19 -39 14 0 19 6 16 22 -4 25 -19 33 -35
17z"/>
<path d="M13567 7116 c-7 -17 18 -40 33 -31 5 3 10 15 10 26 0 23 -35 27 -43
5z"/>
<path d="M4330 7050 c0 -13 7 -20 20 -20 13 0 20 7 20 20 0 13 -7 20 -20 20
-13 0 -20 -7 -20 -20z"/>
<path d="M4378 6925 c-15 -33 3 -75 32 -75 29 0 47 42 32 75 -7 15 -20 25 -32
25 -12 0 -25 -10 -32 -25z"/>
<path d="M13506 6942 c-3 -5 -8 -27 -12 -50 -4 -27 -14 -46 -29 -56 -15 -10
-26 -30 -30 -58 -4 -24 -16 -49 -26 -56 -23 -16 -25 -52 -4 -52 29 0 93 74
101 115 4 24 19 51 36 66 30 29 34 48 18 80 -11 19 -44 26 -54 11z"/>
<path d="M4450 6750 c0 -13 7 -20 20 -20 13 0 20 7 20 20 0 13 -7 20 -20 20
-13 0 -20 -7 -20 -20z"/>
<path d="M4510 6631 c0 -11 8 -26 18 -33 10 -7 23 -33 28 -58 10 -50 38 -66
61 -34 22 30 15 52 -31 99 -48 48 -76 57 -76 26z"/>
<path d="M13318 6565 c-15 -33 3 -75 32 -75 12 0 25 10 32 25 15 33 -3 75 -32
75 -12 0 -25 -10 -32 -25z"/>
<path d="M4627 6396 c-7 -17 62 -86 86 -86 28 0 20 33 -16 68 -35 34 -61 41
-70 18z"/>
<path d="M4750 6210 c0 -13 7 -20 20 -20 13 0 20 7 20 20 0 13 -7 20 -20 20
-13 0 -20 -7 -20 -20z"/>
<path d="M13150 6210 c0 -13 7 -20 20 -20 13 0 20 7 20 20 0 13 -7 20 -20 20
-13 0 -20 -7 -20 -20z"/>
<path d="M13053 6064 c-45 -46 -52 -68 -30 -98 23 -32 51 -16 61 34 5 25 18
51 28 58 23 17 24 52 1 51 -10 0 -37 -20 -60 -45z"/>
<path d="M4870 6030 c0 -13 7 -20 20 -20 13 0 20 7 20 20 0 13 -7 20 -20 20
-13 0 -20 -7 -20 -20z"/>
<path d="M12610 6030 c0 -13 7 -20 20 -20 13 0 20 7 20 20 0 13 -7 20 -20 20
-13 0 -20 -7 -20 -20z"/>
<path d="M12490 5850 c0 -13 7 -20 20 -20 13 0 20 7 20 20 0 13 -7 20 -20 20
-13 0 -20 -7 -20 -20z"/>
<path d="M12910 5850 c0 -13 7 -20 20 -20 13 0 20 7 20 20 0 13 -7 20 -20 20
-13 0 -20 -7 -20 -20z"/>
<path d="M5047 5796 c-6 -16 62 -86 85 -86 31 0 26 28 -11 64 -38 38 -65 46
-74 22z"/>
<path d="M12850 5730 c0 -13 7 -20 20 -20 13 0 20 7 20 20 0 13 -7 20 -20 20
-13 0 -20 -7 -20 -20z"/>
<path d="M12278 5593 c-36 -38 -40 -63 -10 -63 23 0 92 70 85 86 -9 24 -38 15
-75 -23z"/>
<path d="M12726 5622 c-2 -4 -7 -24 -11 -44 -5 -29 -27 -57 -96 -127 -89 -91
-100 -112 -76 -145 23 -31 51 -16 61 32 7 34 25 59 97 132 89 90 98 105 79
141 -11 19 -44 26 -54 11z"/>
<path d="M5344 5439 c-8 -14 185 -208 208 -209 41 0 25 27 -68 121 -94 94
-124 113 -140 88z"/>
<path d="M5104 5199 c-8 -14 185 -208 208 -209 41 0 25 27 -68 121 -94 94
-124 113 -140 88z"/>
<path d="M5644 5139 c-8 -14 65 -89 87 -89 34 0 31 22 -7 61 -38 39 -67 49
-80 28z"/>
<path d="M12370 5130 c0 -13 7 -20 20 -20 13 0 20 7 20 20 0 13 -7 20 -20 20
-13 0 -20 -7 -20 -20z"/>
<path d="M5824 4959 c-8 -14 185 -208 208 -209 41 0 25 27 -68 121 -94 94
-124 113 -140 88z"/>
<path d="M11710 4950 c0 -13 7 -20 20 -20 13 0 20 7 20 20 0 13 -7 20 -20 20
-13 0 -20 -7 -20 -20z"/>
<path d="M5404 4899 c-8 -14 305 -328 328 -329 44 -1 21 32 -128 181 -150 149
-183 174 -200 148z"/>
<path d="M11530 4770 c0 -13 7 -20 20 -20 13 0 20 7 20 20 0 13 -7 20 -20 20
-13 0 -20 -7 -20 -20z"/>
<path d="M11946 4721 c-66 -66 -76 -91 -38 -91 23 1 156 135 148 149 -15 23
-43 8 -110 -58z"/>
<path d="M11316 4631 c-38 -39 -41 -61 -8 -61 23 0 92 69 85 86 -9 24 -38 15
-77 -25z"/>
<path d="M11770 4530 c0 -13 7 -20 20 -20 13 0 20 7 20 20 0 13 -7 20 -20 20
-13 0 -20 -7 -20 -20z"/>
<path d="M6430 4410 c0 -13 7 -20 20 -20 13 0 20 7 20 20 0 13 -7 20 -20 20
-13 0 -20 -7 -20 -20z"/>
<path d="M11110 4410 c0 -13 7 -20 20 -20 13 0 20 7 20 20 0 13 -7 20 -20 20
-13 0 -20 -7 -20 -20z"/>
<path d="M11578 4405 c-15 -33 3 -75 32 -75 12 0 25 10 32 25 15 33 -3 75 -32
75 -12 0 -25 -10 -32 -25z"/>
<path d="M10858 4231 c-64 -66 -83 -81 -120 -88 -59 -12 -65 -56 -7 -61 32 -3
43 5 141 98 68 64 105 107 101 116 -11 29 -40 12 -115 -65z"/>
<path d="M11410 4230 c0 -13 7 -20 20 -20 13 0 20 7 20 20 0 13 -7 20 -20 20
-13 0 -20 -7 -20 -20z"/>
<path d="M11234 4126 c-13 -33 4 -47 48 -44 38 3 43 6 43 28 0 31 -80 45 -91
16z"/>
<path d="M6790 4110 c0 -13 7 -20 20 -20 13 0 20 7 20 20 0 13 -7 20 -20 20
-13 0 -20 -7 -20 -20z"/>
<path d="M6967 3996 c-6 -16 123 -146 146 -146 37 0 26 26 -39 91 -68 67 -97
82 -107 55z"/>
<path d="M6487 3936 c-6 -16 62 -86 85 -86 31 0 26 28 -11 64 -38 38 -65 46
-74 22z"/>
<path d="M10386 3881 c-66 -66 -76 -91 -38 -91 23 1 156 135 148 149 -15 23
-43 8 -110 -58z"/>
<path d="M7204 3819 c-8 -14 65 -89 87 -89 32 0 28 27 -10 64 -37 36 -64 45
-77 25z"/>
<path d="M6730 3750 c0 -13 7 -20 20 -20 13 0 20 7 20 20 0 13 -7 20 -20 20
-13 0 -20 -7 -20 -20z"/>
<path d="M7450 3630 c0 -13 7 -20 20 -20 13 0 20 7 20 20 0 13 -7 20 -20 20
-13 0 -20 -7 -20 -20z"/>
<path d="M10090 3630 c0 -13 7 -20 20 -20 13 0 20 7 20 20 0 13 -7 20 -20 20
-13 0 -20 -7 -20 -20z"/>
<path d="M9910 3511 c0 -26 17 -36 35 -21 18 15 8 40 -16 40 -12 0 -19 -7 -19
-19z"/>
<path d="M9793 3469 c-16 -16 -5 -39 19 -39 14 0 19 6 16 22 -4 25 -19 33 -35
17z"/>
<path d="M7690 3450 c0 -13 7 -20 20 -20 13 0 20 7 20 20 0 13 -7 20 -20 20
-13 0 -20 -7 -20 -20z"/>
<path d="M10330 3390 c0 -13 7 -20 20 -20 13 0 20 7 20 20 0 13 -7 20 -20 20
-13 0 -20 -7 -20 -20z"/>
<path d="M9610 3330 c0 -13 7 -20 20 -20 13 0 20 7 20 20 0 13 -7 20 -20 20
-13 0 -20 -7 -20 -20z"/>
<path d="M8047 3216 c-7 -17 18 -40 33 -31 5 3 10 15 10 26 0 23 -35 27 -43 5z"/>
<path d="M8164 3159 c-8 -14 65 -89 87 -89 34 0 31 22 -7 61 -38 39 -67 49
-80 28z"/>
<path d="M9370 3151 c0 -26 17 -36 35 -21 18 15 8 40 -16 40 -12 0 -19 -7 -19
-19z"/>
<path d="M9253 3109 c-16 -16 -5 -39 19 -39 14 0 19 6 16 22 -4 25 -19 33 -35
17z"/>
<path d="M8357 3053 c-15 -14 -7 -43 12 -43 23 0 34 23 18 39 -13 13 -21 14
-30 4z"/>
<path d="M9070 2970 c0 -13 7 -20 20 -20 13 0 20 7 20 20 0 13 -7 20 -20 20
-13 0 -20 -7 -20 -20z"/>
<path d="M9670 2970 c0 -13 7 -20 20 -20 13 0 20 7 20 20 0 13 -7 20 -20 20
-13 0 -20 -7 -20 -20z"/>
<path d="M8527 2916 c-7 -17 18 -40 33 -31 5 3 10 15 10 26 0 23 -35 27 -43 5z"/>
<path d="M8650 2864 c-22 -25 13 -55 37 -32 16 17 5 48 -17 48 -4 0 -13 -7
-20 -16z"/>
<path d="M8890 2851 c0 -26 17 -36 35 -21 18 15 8 40 -16 40 -12 0 -19 -7 -19
-19z"/>
<path d="M8770 2790 c0 -13 7 -20 20 -20 13 0 20 7 20 20 0 13 -7 20 -20 20
-13 0 -20 -7 -20 -20z"/>
<path d="M8290 2670 c0 -13 7 -20 20 -20 13 0 20 7 20 20 0 13 -7 20 -20 20
-13 0 -20 -7 -20 -20z"/>
<path d="M9190 2670 c0 -13 7 -20 20 -20 13 0 20 7 20 20 0 13 -7 20 -20 20
-13 0 -20 -7 -20 -20z"/>
</g>
<g transform="translate(0.000000,1680.000000) scale(0.100000,-0.100000)" fill="#d2d2c7" stroke="none">
<path d="M3620 15050 c-16 -10 -34 -6928 -18 -6977 8 -23 41 -32 53 -14 3 5 5
1559 5 3453 0 2967 2 3447 14 3463 23 31 10209 31 10232 1 12 -17 14 -494 12
-3438 -3 -3418 -3 -3418 -33 -3442 -30 -24 -30 -24 -27 -138 3 -113 3 -115
-25 -148 -27 -32 -28 -39 -33 -162 -5 -127 -5 -128 -34 -152 -29 -22 -30 -25
-30 -120 -1 -95 -1 -97 -31 -120 -28 -23 -30 -28 -28 -86 2 -56 0 -64 -26 -88
-16 -15 -31 -42 -35 -60 -3 -19 -17 -47 -31 -64 -21 -24 -25 -40 -25 -89 0
-54 -3 -63 -29 -87 -20 -18 -32 -41 -37 -69 -4 -28 -14 -47 -30 -57 -16 -11
-25 -29 -29 -60 -5 -31 -14 -50 -30 -60 -17 -11 -26 -29 -30 -60 -5 -31 -14
-50 -30 -60 -17 -11 -26 -29 -30 -60 -5 -31 -14 -50 -30 -60 -15 -10 -26 -30
-30 -56 -5 -32 -19 -53 -60 -94 -40 -39 -55 -62 -61 -92 -5 -29 -19 -50 -56
-84 -37 -34 -52 -56 -59 -87 -7 -32 -23 -56 -63 -96 -40 -39 -56 -64 -62 -92
-5 -30 -23 -54 -86 -115 -62 -59 -81 -85 -88 -116 -8 -34 -54 -84 -340 -371
-330 -331 -345 -349 -317 -387 22 -31 51 -16 61 31 8 39 43 76 358 392 307
307 351 355 359 390 6 29 24 56 63 94 39 39 56 64 61 91 6 30 25 55 91 120 71
70 84 88 84 115 0 23 9 40 29 59 18 16 32 42 37 66 5 28 21 52 60 91 42 41 55
61 60 93 4 27 14 46 30 56 16 11 25 29 29 60 5 31 14 50 30 60 17 11 26 29 30
60 5 31 14 50 30 60 17 11 26 29 30 60 5 31 14 50 30 60 17 11 26 29 30 60 5
31 14 50 30 60 14 9 24 29 28 52 3 20 16 48 29 61 17 18 24 41 29 94 5 62 10
74 35 94 27 22 29 28 27 85 -2 58 -1 63 29 90 31 29 32 31 32 125 1 94 2 96
31 119 30 24 30 25 27 109 -3 80 -1 86 25 118 27 32 28 36 33 191 5 158 5 158
33 181 19 15 29 32 30 52 0 17 0 1570 -1 3452 -2 3095 -3 3423 -18 3437 -18
19 -10315 25 -10344 6z"/>
<path d="M4096 14564 c-15 -14 -16 -320 -16 -3223 0 -3208 0 -3208 30 -3246
30 -38 30 -38 30 -180 0 -142 0 -142 30 -180 28 -35 30 -44 30 -120 0 -76 2
-85 30 -120 25 -31 30 -47 30 -90 0 -43 5 -59 30 -90 25 -31 30 -47 30 -91 0
-42 5 -59 26 -83 14 -17 28 -46 31 -66 4 -22 15 -42 28 -51 16 -10 25 -29 30
-60 4 -31 13 -49 30 -60 16 -10 25 -29 30 -60 4 -31 13 -49 30 -60 16 -10 25
-29 30 -60 4 -31 13 -49 30 -60 16 -10 25 -29 30 -60 4 -31 13 -49 30 -60 16
-10 25 -29 30 -60 4 -31 13 -49 29 -60 16 -10 26 -29 30 -56 5 -32 18 -52 60
-93 39 -38 55 -63 60 -91 6 -27 22 -52 62 -91 39 -39 57 -65 63 -94 8 -34 29
-61 120 -151 91 -89 113 -117 120 -150 14 -60 1152 -1198 1199 -1198 25 0 50
-20 151 -120 99 -98 126 -120 149 -120 24 0 48 -18 118 -86 67 -66 97 -89 126
-96 30 -6 58 -28 123 -93 67 -69 89 -85 113 -85 24 0 47 -17 118 -86 67 -66
97 -89 126 -96 30 -6 58 -28 123 -93 74 -75 88 -85 119 -85 21 0 40 -7 48 -17
47 -59 100 -103 128 -103 22 0 43 -14 87 -57 40 -38 70 -59 96 -65 26 -6 56
-26 93 -63 46 -45 63 -55 90 -55 19 0 39 -7 46 -17 50 -64 100 -103 132 -103
33 0 60 -16 68 -40 2 -6 23 -15 46 -21 31 -7 58 -24 98 -64 43 -42 63 -55 86
-55 18 0 38 -9 52 -25 29 -31 43 -31 72 0 14 16 34 25 52 25 22 0 44 15 91 60
47 45 69 60 91 60 28 0 82 44 128 103 7 10 27 17 46 17 27 0 44 10 90 55 40
40 67 57 98 64 23 6 44 15 46 21 8 24 35 40 68 40 32 0 82 39 132 103 7 10 27
17 47 17 29 0 46 12 121 85 63 63 96 88 123 94 25 5 54 25 88 59 36 36 64 54
91 60 29 7 59 29 121 91 61 60 93 84 120 90 28 6 59 29 120 90 62 61 93 83
121 90 29 6 62 33 150 120 88 87 121 113 151 120 30 7 66 37 180 150 115 114
150 143 181 150 43 10 1008 960 1008 994 0 45 -66 -15 -504 -454 -400 -400
-475 -471 -507 -478 -30 -7 -66 -37 -180 -150 -113 -112 -150 -143 -180 -150
-28 -6 -62 -34 -149 -120 -87 -86 -121 -113 -150 -120 -27 -6 -59 -30 -119
-90 -61 -60 -93 -84 -120 -90 -28 -6 -59 -29 -120 -90 -61 -60 -93 -84 -120
-90 -25 -5 -54 -25 -88 -59 -36 -36 -64 -54 -91 -60 -29 -7 -59 -29 -121 -91
-65 -64 -92 -83 -124 -91 -23 -5 -43 -14 -45 -20 -8 -24 -35 -40 -68 -40 -32
0 -82 -39 -132 -103 -7 -10 -27 -17 -46 -17 -27 0 -44 -10 -90 -55 -40 -40
-67 -57 -98 -64 -23 -6 -44 -15 -46 -21 -8 -24 -35 -40 -68 -40 -31 0 -46 -11
-120 -86 -66 -67 -92 -87 -120 -91 -22 -4 -41 -15 -51 -29 -21 -32 -65 -32
-86 0 -10 14 -29 25 -51 29 -25 4 -51 22 -92 61 -46 46 -62 56 -90 56 -19 0
-39 7 -46 17 -50 64 -100 103 -132 103 -33 0 -60 16 -68 40 -2 6 -23 15 -46
21 -32 7 -57 23 -95 61 -35 35 -63 54 -90 60 -29 6 -58 28 -122 93 -74 75 -88
85 -119 85 -21 0 -40 7 -48 17 -47 59 -100 103 -128 103 -22 0 -43 14 -87 57
-39 38 -70 59 -95 65 -28 6 -63 34 -152 123 -96 96 -120 115 -145 115 -23 0
-44 13 -88 57 -39 38 -70 59 -95 65 -28 6 -63 34 -152 123 -95 95 -120 115
-145 115 -24 0 -50 21 -150 120 -98 98 -126 120 -149 120 -45 0 -1009 966
-1022 1023 -7 32 -30 61 -119 149 -92 90 -113 117 -120 151 -8 32 -26 57 -89
117 -63 61 -81 85 -86 115 -6 28 -22 53 -61 91 -41 41 -55 62 -60 94 -4 26
-15 46 -30 56 -16 10 -25 29 -30 60 -4 31 -13 49 -30 60 -16 10 -25 29 -30 60
-4 31 -13 49 -30 60 -16 10 -25 29 -30 60 -4 31 -13 49 -30 60 -16 10 -25 29
-30 60 -4 31 -13 49 -29 60 -16 10 -26 29 -30 57 -5 28 -17 51 -37 69 -26 24
-29 33 -29 86 0 51 -4 65 -30 97 -25 31 -30 47 -30 90 0 43 -5 59 -30 90 -25
31 -30 47 -30 90 0 43 -5 59 -30 90 -28 35 -30 44 -30 120 0 76 -2 85 -30 120
-30 38 -30 38 -30 180 0 142 0 142 -30 180 -30 38 -30 38 -30 3174 0 2694 2
3140 14 3157 14 19 73 19 4639 19 2544 0 4629 -4 4634 -8 4 -5 9 -1384 10
-3065 1 -1682 4 -3065 7 -3074 4 -19 41 -25 50 -9 12 19 7 6133 -5 6147 -6 8
-18 14 -25 14 -7 0 -20 14 -29 30 -16 30 -16 30 -4670 30 -4217 0 -4655 -1
-4669 -16z"/>
<path d="M8944 14313 c-36 -25 -48 -28 -156 -31 -124 -4 -154 -15 -128 -47 11
-13 271 -15 2226 -15 2205 0 2214 0 2234 -20 20 -20 20 -29 20 -2087 0 -2077
0 -2083 30 -2083 17 0 32 21 33 46 0 16 0 961 -1 2101 -2 2259 2 2103 -55
2103 -12 0 -42 14 -67 30 -55 37 -65 37 -115 3 -56 -38 -134 -38 -189 0 -57
39 -175 40 -232 0 -35 -23 -48 -26 -124 -26 -76 0 -89 3 -124 26 -36 25 -46
27 -146 27 -100 0 -110 -2 -146 -27 -35 -23 -48 -26 -124 -26 -76 0 -89 3
-124 26 -62 43 -2032 42 -2092 0 -39 -28 -39 -28 -274 -28 -235 0 -235 0 -274
28 -53 37 -118 38 -172 0z"/>
<path d="M4394 14265 c-19 -47 -125 -45 2086 -45 2214 0 2119 -2 2080 45 -19
23 -4158 23 -4166 0z"/>
<path d="M14767 14263 c-4 -3 -7 -35 -7 -69 0 -57 3 -66 30 -94 30 -31 30 -31
30 -150 0 -119 0 -119 30 -150 29 -29 30 -34 30 -120 0 -86 1 -91 30 -120 20
-20 30 -41 30 -60 0 -19 10 -40 30 -60 19 -20 30 -41 30 -60 0 -37 607 -654
638 -648 15 3 17 19 20 130 3 127 3 127 -28 158 -30 31 -30 31 -30 180 0 149
0 149 -30 180 -29 29 -30 34 -30 120 0 86 -1 91 -30 120 -20 20 -30 41 -30 60
0 44 -376 420 -420 420 -22 0 -43 14 -90 60 -40 40 -69 60 -85 60 -13 0 -37
11 -53 25 -30 25 -52 31 -65 18z"/>
<path d="M2702 14190 c-20 -19 -43 -30 -62 -30 -22 0 -43 -14 -90 -60 -47 -46
-68 -60 -90 -60 -25 0 -59 -30 -225 -195 -195 -195 -195 -195 -195 -255 0 -52
-3 -63 -30 -90 -30 -31 -30 -31 -30 -210 0 -179 0 -179 -30 -210 -31 -31 -31
-31 -28 -188 3 -140 5 -157 20 -160 31 -6 638 611 638 648 0 19 11 40 30 60
27 27 30 38 30 90 0 52 3 63 30 90 29 29 30 34 30 120 0 86 1 91 30 120 30 31
30 31 30 149 0 112 1 119 25 141 42 39 29 70 -28 70 -12 0 -37 -14 -55 -30z"/>
<path d="M4343 14145 c-23 -16 -23 -16 -23 -2086 0 -2069 0 -2069 37 -2109 65
-72 77 -59 81 88 3 119 2 124 -23 153 -31 38 -31 40 0 77 25 29 25 33 25 205
0 174 0 174 -31 213 -38 48 -38 127 -1 167 28 30 28 42 -2 78 -39 46 -36 174
5 225 29 37 29 37 29 964 0 927 0 927 -30 965 -30 38 -30 38 -30 355 0 317 0
317 30 355 30 38 30 38 30 185 0 106 -4 150 -13 158 -24 20 -61 23 -84 7z"/>
<path d="M1397 13542 c-12 -13 -17 -37 -17 -75 0 -49 -4 -60 -30 -87 -20 -20
-30 -41 -30 -60 0 -19 -10 -40 -30 -60 -20 -20 -30 -41 -30 -60 0 -19 -10 -40
-30 -60 -27 -27 -30 -38 -30 -90 0 -52 -3 -63 -30 -90 -20 -20 -30 -41 -30
-60 0 -20 -10 -41 -30 -62 -18 -19 -30 -42 -30 -58 0 -16 12 -39 30 -58 26
-28 30 -39 30 -92 0 -52 3 -63 30 -90 27 -27 30 -38 30 -90 0 -52 3 -63 30
-90 27 -27 30 -38 30 -90 0 -52 3 -63 30 -90 27 -27 30 -38 30 -90 0 -52 3
-63 30 -90 19 -19 30 -41 30 -59 0 -15 8 -35 18 -44 40 -37 102 -9 102 46 0
16 12 39 30 57 27 27 30 38 30 90 0 52 3 63 30 90 27 27 30 38 30 90 0 52 3
63 30 90 30 31 30 31 30 270 0 239 0 239 -30 270 -29 29 -30 34 -30 120 0 86
-1 91 -30 120 -29 29 -30 34 -30 120 0 86 -1 91 -30 120 -26 27 -30 38 -30 89
0 83 -58 123 -103 73z"/>
<path d="M16087 13543 c-4 -3 -7 -21 -7 -39 0 -23 -9 -42 -30 -64 -27 -27 -30
-38 -30 -90 0 -52 -3 -63 -30 -90 -29 -29 -30 -34 -30 -120 0 -86 -1 -91 -30
-120 -29 -29 -30 -34 -30 -120 0 -86 -1 -91 -30 -120 -30 -31 -30 -31 -30
-150 0 -119 0 -119 30 -150 29 -29 30 -34 30 -120 0 -86 1 -91 30 -120 20 -20
30 -41 30 -60 0 -19 10 -40 30 -60 26 -27 30 -38 30 -90 0 -48 5 -64 25 -88
14 -16 28 -47 33 -68 7 -32 12 -39 32 -39 20 0 25 7 32 39 5 21 19 52 33 68
14 17 25 42 25 58 0 19 11 40 30 60 27 27 30 38 30 90 0 52 3 63 30 90 27 27
30 38 30 90 0 52 3 63 30 90 27 27 30 38 30 90 0 52 3 63 30 90 30 31 30 31
30 180 0 149 0 149 -30 180 -20 20 -30 41 -30 60 0 19 -10 40 -30 60 -20 20
-30 41 -30 60 0 19 -10 40 -30 60 -27 27 -30 38 -30 90 0 52 -3 63 -30 90 -20
20 -30 41 -30 60 0 52 -86 131 -113 103z"/>
<path d="M7630 13170 c0 -13 7 -20 20 -20 13 0 20 7 20 20 0 13 -7 20 -20 20
-13 0 -20 -7 -20 -20z"/>
<path d="M2702 12810 c-20 -19 -43 -30 -62 -30 -19 0 -40 -10 -60 -30 -27 -27
-38 -30 -90 -30 -52 0 -63 -3 -90 -30 -20 -20 -41 -30 -60 -30 -19 0 -40 -10
-60 -30 -27 -27 -38 -30 -90 -30 -52 0 -63 -3 -90 -30 -20 -20 -41 -30 -60
-30 -41 0 -120 -79 -120 -120 0 -19 -10 -40 -30 -60 -20 -20 -30 -41 -30 -60
0 -19 -10 -40 -30 -60 -27 -27 -30 -38 -30 -90 0 -52 -3 -63 -30 -90 -27 -27
-30 -38 -30 -90 0 -53 -3 -63 -31 -91 -61 -63 -24 -140 42 -85 17 14 41 26 54
26 14 0 38 14 55 30 20 20 41 30 60 30 19 0 40 10 60 30 20 20 41 30 60 30 19
0 40 10 60 30 20 20 41 30 60 30 19 0 40 10 60 30 20 20 41 30 60 30 19 0 40
10 60 30 20 20 41 30 60 30 43 0 180 137 180 180 0 19 10 40 30 60 20 20 30
41 30 60 0 19 10 40 30 60 20 20 30 41 30 60 0 19 10 40 30 60 20 20 30 41 30
60 0 20 10 41 30 62 75 78 -8 160 -88 88z"/>
<path d="M14723 12833 c-21 -8 -15 -38 12 -63 15 -14 25 -35 25 -51 0 -18 11
-40 30 -59 20 -20 30 -41 30 -60 0 -19 10 -40 30 -60 20 -20 30 -41 30 -60 0
-19 10 -40 30 -60 20 -20 30 -41 30 -60 0 -19 10 -40 30 -60 19 -20 30 -41 30
-60 0 -37 23 -60 60 -60 22 0 44 -15 90 -60 46 -46 68 -60 90 -60 19 0 40 -10
60 -30 20 -20 41 -30 60 -30 19 0 40 -10 60 -30 27 -27 38 -30 90 -30 52 0 63
-3 90 -30 20 -19 41 -30 59 -30 21 0 45 -16 92 -60 67 -62 90 -70 127 -44 32
22 29 64 -8 102 -20 21 -30 42 -30 62 0 19 -10 40 -30 60 -27 27 -30 38 -30
90 0 52 -3 63 -30 90 -27 27 -30 38 -30 90 0 52 -3 63 -30 90 -20 20 -30 41
-30 60 0 41 -79 120 -120 120 -19 0 -40 10 -60 30 -27 27 -38 30 -90 30 -52 0
-63 3 -90 30 -20 20 -41 30 -60 30 -19 0 -40 10 -60 30 -27 27 -38 30 -90 30
-52 0 -63 3 -90 30 -27 27 -38 30 -90 30 -52 0 -64 4 -93 30 -32 28 -64 36
-94 23z"/>
<path d="M877 12250 c-37 -40 -37 -41 -37 -130 0 -86 -1 -91 -30 -120 -27 -27
-30 -38 -30 -90 0 -52 -3 -63 -30 -90 -30 -31 -30 -31 -30 -150 0 -120 0 -120
-30 -152 -18 -19 -30 -42 -30 -58 0 -16 12 -39 30 -58 20 -21 30 -42 30 -62 0
-19 10 -40 30 -60 20 -20 30 -41 30 -60 0 -19 10 -40 30 -60 20 -20 30 -41 30
-60 0 -19 10 -40 30 -60 20 -20 30 -41 30 -60 0 -19 10 -40 30 -60 20 -20 30
-41 30 -60 0 -22 14 -44 60 -90 45 -46 60 -68 60 -90 0 -16 11 -41 25 -58 14
-16 28 -47 33 -68 18 -87 75 -44 65 48 -5 40 -2 48 26 77 31 32 31 32 31 151
0 119 0 119 30 150 30 31 30 31 30 240 0 209 0 209 -30 240 -27 27 -30 38 -30
90 0 52 -3 63 -30 90 -20 20 -30 41 -30 60 0 19 -10 40 -30 60 -20 20 -30 41
-30 60 0 19 -10 40 -30 60 -20 20 -30 41 -30 60 0 19 -10 40 -30 60 -27 27
-30 37 -30 91 0 52 -3 63 -27 85 -18 16 -29 39 -32 67 -8 59 -36 61 -84 7z"/>
<path d="M16597 12250 c-34 -37 -37 -45 -37 -100 0 -52 -3 -63 -30 -90 -20
-20 -30 -41 -30 -60 0 -19 -10 -40 -30 -60 -20 -20 -30 -41 -30 -60 0 -19 -10
-40 -30 -60 -20 -20 -30 -41 -30 -60 0 -19 -10 -40 -30 -60 -27 -27 -30 -38
-30 -90 0 -52 -3 -63 -30 -90 -30 -31 -30 -31 -30 -300 0 -269 0 -269 30 -300
30 -31 30 -31 30 -179 0 -161 7 -181 61 -181 37 0 119 82 119 119 0 20 10 41
30 61 20 20 30 41 30 60 0 19 10 40 30 60 20 20 30 41 30 60 0 19 10 40 30 60
20 20 30 41 30 60 0 19 10 40 30 60 20 20 30 41 30 60 0 19 10 40 30 60 20 20
30 41 30 60 0 19 10 40 30 60 30 31 30 31 30 180 0 149 0 149 -30 180 -29 29
-30 34 -30 120 0 86 -1 91 -30 120 -29 30 -30 34 -30 121 0 85 -2 91 -27 115
-18 16 -29 39 -32 67 -8 59 -36 61 -84 7z"/>
<path d="M8717 12222 c-10 -10 -17 -28 -17 -39 0 -27 -35 -70 -147 -181 -77
-76 -93 -97 -93 -122 0 -25 -15 -46 -86 -115 -90 -90 -104 -116 -104 -196 0
-39 -4 -47 -25 -57 -29 -13 -41 -52 -25 -81 23 -43 57 -19 62 44 3 35 6 40 31
43 43 5 41 -114 -3 -179 -30 -44 -30 -44 -30 -276 0 -197 -2 -234 -16 -247
-41 -42 -44 -29 -46 240 -3 235 -5 258 -21 268 -39 24 -44 -9 -45 -255 0 -245
4 -269 53 -269 29 0 19 -78 -15 -117 -16 -18 -30 -40 -30 -48 0 -19 -80 -21
-98 -3 -18 18 -14 46 7 53 25 8 33 31 16 45 -18 15 -33 5 -45 -26 -9 -23 -13
-24 -109 -24 -75 0 -101 4 -111 15 -16 20 3 45 34 45 32 0 61 24 53 44 -7 17
-26 20 -88 17 -26 -2 -44 5 -66 23 -38 32 -48 32 -85 1 -23 -20 -41 -25 -83
-25 -47 0 -59 -4 -85 -30 -20 -20 -41 -30 -60 -30 -22 0 -44 -14 -90 -60 -46
-45 -68 -60 -90 -60 -37 0 -60 -23 -60 -60 0 -19 -11 -40 -30 -60 -20 -20 -30
-41 -30 -60 0 -19 -10 -40 -30 -60 -26 -27 -30 -38 -32 -93 0 -34 -2 -99 -4
-144 -2 -93 11 -126 43 -107 15 9 18 26 21 90 3 103 8 124 31 124 28 0 31 -18
31 -161 0 -101 3 -129 13 -129 22 0 47 -34 47 -63 0 -28 -23 -57 -46 -57 -10
0 -14 -13 -14 -45 0 -44 3 -48 105 -150 86 -86 111 -105 135 -105 19 0 40 -10
60 -30 20 -20 41 -30 60 -30 19 0 40 -10 60 -30 27 -26 38 -30 90 -30 88 0 90
3 90 180 0 149 0 149 45 195 46 45 46 45 133 45 99 0 97 0 146 -58 54 -65 43
-122 -24 -122 -52 0 -60 -19 -60 -149 0 -112 -1 -119 -25 -141 -35 -32 -31
-52 15 -94 40 -36 40 -36 135 -36 120 0 135 -24 59 -92 -98 -87 -185 -178
-180 -187 9 -14 46 -14 46 -1 0 6 16 20 35 31 19 12 35 26 35 31 0 15 78 88
94 88 33 0 21 -30 -29 -79 -35 -32 -58 -64 -64 -88 -25 -90 -116 -138 -175
-92 -36 29 -60 22 -64 -20 -5 -49 18 -68 87 -73 45 -3 66 -10 91 -31 49 -41
137 -39 181 4 30 29 35 31 95 27 78 -5 75 -1 78 -83 2 -59 5 -70 28 -89 16
-13 27 -35 31 -59 8 -50 81 -126 106 -110 27 17 23 38 -9 50 -25 9 -30 17 -30
43 0 22 -10 44 -30 67 -26 29 -30 41 -30 93 0 54 -3 61 -30 82 -16 12 -30 28
-30 35 0 7 -11 20 -25 29 -30 19 -34 54 -6 54 10 0 25 -9 32 -20 9 -13 30 -23
54 -27 52 -7 65 -25 65 -92 0 -46 4 -60 26 -82 21 -22 28 -42 35 -106 5 -43
14 -80 20 -82 24 -8 87 -72 99 -100 22 -55 -32 -100 -62 -51 -14 21 -43 27
-53 10 -4 -6 14 -31 40 -55 74 -73 195 -63 195 15 0 22 15 44 60 90 46 46 60
68 60 90 0 19 10 40 30 60 20 20 30 41 30 60 0 22 12 42 45 75 46 45 46 45
171 45 102 0 126 3 130 15 9 22 -14 45 -46 45 -61 0 -65 53 -4 65 20 3 52 17
69 31 65 49 129 22 86 -37 -49 -66 21 -83 95 -23 24 20 44 43 44 52 0 8 -57
72 -127 141 -112 109 -133 126 -168 130 -79 11 -27 106 64 118 33 5 45 12 56
34 8 15 24 30 35 34 32 10 38 33 35 152 -2 112 -2 112 -49 158 -28 27 -61 48
-79 52 -81 15 -78 113 3 113 18 0 41 11 62 30 46 42 178 45 226 5 36 -30 68
-32 77 -5 8 25 45 27 45 3 0 -10 -12 -27 -27 -39 -27 -21 -27 -21 -25 -169 2
-160 10 -185 58 -185 57 0 70 27 32 68 -49 51 -34 232 18 232 14 0 23 96 12
137 -4 14 -39 57 -79 94 -71 69 -71 69 -220 69 -149 0 -149 0 -284 -135 -135
-135 -135 -135 -135 -224 0 -113 6 -121 99 -121 68 0 68 0 75 -61 11 -108 5
-113 -147 -119 -147 -6 -147 -6 -147 -93 0 -58 0 -58 120 -178 130 -130 145
-160 98 -193 -33 -23 -56 -20 -95 14 -32 29 -38 30 -123 30 -116 0 -120 -4
-120 -120 0 -86 -1 -91 -30 -120 -27 -27 -30 -38 -30 -90 0 -65 -49 -140 -90
-140 -27 0 -78 64 -85 107 -4 22 -17 47 -32 59 -21 18 -25 31 -27 85 -2 73 -8
86 -42 99 -21 8 -23 16 -26 87 -3 90 -17 102 -69 59 -25 -21 -41 -26 -84 -26
-46 0 -60 -5 -88 -30 -36 -31 -74 -39 -95 -18 -20 20 -16 27 103 144 115 114
115 114 115 203 0 117 -4 121 -120 121 -110 0 -120 8 -120 90 0 77 13 90 90
90 77 0 90 13 90 89 0 45 -5 65 -22 87 -13 15 -27 46 -33 69 -7 28 -18 44 -37
53 -16 7 -28 18 -28 24 0 7 -34 45 -75 85 -76 73 -76 73 -225 73 -150 0 -150
0 -255 -105 -105 -105 -105 -105 -105 -164 0 -43 -5 -62 -18 -74 -38 -35 -64
-22 -166 79 -105 103 -116 122 -116 189 0 33 -7 51 -27 76 -41 48 -41 190 0
238 23 27 27 42 27 92 0 59 0 59 106 165 106 106 106 106 313 102 207 -3 208
-3 239 -29 17 -15 47 -30 66 -33 54 -10 356 -312 356 -355 0 -20 10 -41 30
-61 20 -20 30 -41 30 -60 0 -19 10 -40 30 -60 29 -29 30 -34 30 -119 0 -84 2
-90 31 -127 26 -33 30 -45 26 -78 -7 -50 7 -86 33 -86 32 0 36 32 31 217 -6
171 -6 171 -33 197 -27 24 -28 30 -28 115 0 87 -1 91 -30 121 -20 20 -30 41
-30 60 0 19 -10 40 -30 60 -26 27 -30 38 -30 89 0 50 -4 64 -30 96 -25 31 -30
47 -30 92 0 46 -4 58 -27 79 -40 37 -40 496 0 544 21 25 25 43 32 132 6 94 9
105 28 113 15 7 25 24 31 53 8 34 27 60 93 128 66 68 83 92 83 115 0 33 67
104 108 115 48 13 252 -183 252 -242 0 -14 11 -35 24 -47 72 -67 96 -107 96
-163 0 -46 4 -58 30 -84 26 -27 30 -38 30 -90 0 -49 4 -64 27 -90 26 -32 27
-34 31 -210 4 -178 4 -178 -27 -209 -28 -28 -31 -38 -31 -91 0 -52 -3 -63 -30
-90 -26 -26 -30 -38 -30 -84 0 -44 -5 -60 -30 -91 -17 -22 -30 -50 -30 -66 0
-18 -11 -40 -30 -59 -27 -27 -30 -38 -30 -90 0 -52 -3 -63 -30 -90 -29 -29
-30 -34 -30 -120 0 -86 -1 -90 -30 -120 -31 -31 -31 -31 -28 -158 4 -151 16
-165 81 -92 37 40 37 41 37 130 0 86 1 91 30 120 27 27 30 38 30 90 0 52 3 63
30 90 20 20 30 41 30 60 0 22 14 44 60 90 46 46 60 68 60 90 0 32 31 60 66 60
15 0 62 40 143 121 121 120 121 120 329 117 208 -3 208 -3 241 -30 18 -16 43
-28 57 -28 16 0 49 -23 96 -66 76 -70 90 -91 87 -133 -4 -53 2 -71 31 -101 29
-29 30 -34 30 -120 0 -86 -1 -91 -30 -120 -20 -20 -30 -41 -30 -60 0 -19 -10
-40 -30 -60 -20 -21 -30 -41 -30 -62 0 -38 -67 -103 -117 -113 -19 -3 -40 -16
-49 -30 -20 -31 -34 -31 -80 0 -43 29 -54 25 -54 -21 0 -70 61 -95 108 -45 24
26 35 29 98 33 71 4 71 4 127 61 56 57 56 57 116 57 90 0 91 3 91 179 0 144 1
148 25 171 14 13 25 31 25 40 0 9 -11 27 -25 40 -22 20 -25 32 -25 87 0 75
-13 86 -59 52 -37 -28 -61 -14 -61 36 0 24 -7 38 -26 52 -15 11 -29 34 -34 60
-12 50 -79 123 -115 123 -13 0 -37 12 -54 26 -17 14 -46 28 -65 31 -53 8 -64
27 -37 64 46 62 -30 87 -89 29 -19 -19 -41 -30 -59 -30 -18 0 -40 11 -59 30
-28 26 -39 30 -90 30 -50 0 -62 -4 -90 -30 -28 -26 -41 -30 -87 -30 -42 0 -60
-5 -83 -25 -74 -62 -109 25 -37 91 27 25 25 8 30 334 1 79 -9 118 -39 145 -22
21 -26 32 -26 84 0 58 -2 62 -45 106 -32 32 -54 45 -73 45 -45 0 -55 18 -31
57 28 45 19 63 -30 63 -35 0 -43 4 -56 29 -8 16 -24 32 -35 36 -11 3 -23 18
-26 33 -3 15 -8 35 -11 45 -8 32 -202 217 -227 217 -46 0 -66 26 -66 89 0 31
5 62 12 69 15 15 48 16 48 2 0 -18 72 -90 90 -90 37 0 29 29 -20 72 -26 24
-54 48 -62 55 -7 7 -19 19 -26 28 -17 21 -65 19 -85 -3z m-321 -616 c12 -49 1
-81 -28 -84 -27 -3 -28 -1 -28 40 0 63 42 97 56 44z m952 -408 c18 -18 15
-123 -3 -138 -12 -10 -18 -10 -30 0 -29 24 -16 150 15 150 3 0 11 -5 18 -12z
m-1027 -595 c21 -24 -10 -43 -75 -46 -58 -2 -86 14 -86 49 0 26 140 23 161 -3z
m1017 1 c66 -46 -56 -193 -128 -154 -46 25 -36 71 30 138 36 35 64 40 98 16z
m-1060 -812 c6 -58 -26 -79 -54 -37 -22 34 -5 78 29 73 17 -2 23 -11 25 -36z
m-548 -162 c0 -13 -7 -20 -19 -20 -22 0 -35 15 -26 30 12 19 45 11 45 -10z
m1739 -46 c3 -3 7 -66 9 -140 3 -124 2 -134 -15 -134 -41 1 -47 14 -44 109 2
91 2 91 -28 109 -37 20 -38 25 -10 53 20 20 70 22 88 3z m-1321 -252 c3 -16
-2 -22 -16 -22 -24 0 -35 23 -19 39 16 16 31 8 35 -17z m1082 -108 c22 -25
-13 -55 -37 -32 -16 17 -5 48 17 48 4 0 13 -7 20 -16z"/>
<path d="M8954 11976 c-7 -17 58 -86 80 -86 29 0 23 28 -14 63 -40 40 -57 45
-66 23z"/>
<path d="M2273 11725 c-67 -70 -87 -85 -112 -85 -20 0 -40 -10 -61 -30 -20
-20 -41 -30 -60 -30 -22 0 -44 -14 -90 -60 -46 -46 -68 -60 -90 -60 -22 0 -44
-14 -90 -60 -46 -46 -68 -60 -90 -60 -41 0 -120 -79 -120 -120 0 -19 -10 -40
-30 -60 -30 -31 -30 -31 -30 -150 0 -119 0 -119 -30 -150 -29 -29 -30 -34 -30
-119 0 -81 -2 -89 -25 -111 -46 -43 -31 -65 47 -68 66 -3 66 -3 128 58 46 46
68 60 90 60 24 0 47 18 120 90 73 73 96 90 120 90 25 0 52 22 165 135 135 135
135 135 135 195 0 52 3 63 30 90 27 27 30 38 30 90 0 52 3 63 30 90 27 27 30
38 30 90 0 53 3 63 30 90 29 30 31 36 28 98 -4 97 -21 95 -125 -13z"/>
<path d="M15137 11753 c-14 -13 -6 -40 18 -63 15 -14 25 -35 25 -51 0 -18 11
-40 30 -59 29 -29 30 -34 30 -120 0 -86 1 -91 30 -120 29 -29 30 -34 30 -120
0 -90 0 -90 105 -195 86 -86 111 -105 135 -105 22 0 43 -14 90 -60 46 -46 68
-60 90 -60 22 0 44 -14 90 -60 47 -47 67 -60 91 -60 25 0 45 -15 114 -86 114
-118 119 -116 123 48 3 127 3 127 -28 158 -29 30 -30 34 -30 120 0 86 -1 91
-30 120 -27 27 -30 38 -30 90 0 52 -3 63 -30 90 -19 20 -30 41 -30 60 0 37
-23 60 -60 60 -22 0 -44 15 -90 60 -46 46 -68 60 -90 60 -22 0 -44 14 -90 60
-46 46 -68 60 -90 60 -19 0 -40 10 -60 30 -20 20 -41 30 -60 30 -22 0 -44 14
-90 60 -61 60 -61 60 -124 60 -34 0 -66 -3 -69 -7z"/>
<path d="M9130 11726 c0 -19 4 -23 20 -19 11 3 20 14 20 24 0 12 -7 19 -20 19
-14 0 -20 -7 -20 -24z"/>
<path d="M12127 10896 c-6 -16 62 -86 85 -86 31 0 26 28 -11 64 -38 38 -65 46
-74 22z"/>
<path d="M16908 10815 c-37 -34 -48 -52 -48 -74 0 -23 -14 -44 -60 -91 -46
-46 -60 -68 -60 -90 0 -22 -14 -44 -60 -90 -46 -46 -60 -68 -60 -90 0 -22 -14
-44 -60 -90 -46 -46 -60 -68 -60 -90 0 -19 -10 -40 -30 -60 -20 -20 -30 -41
-30 -60 0 -19 -10 -40 -30 -60 -30 -31 -30 -31 -28 -428 3 -468 -2 -450 110
-332 51 55 68 80 68 101 0 23 27 56 150 179 125 126 150 155 150 180 0 22 14
43 60 90 46 46 60 68 60 90 0 19 10 40 30 60 30 31 30 31 30 449 0 392 -1 419
-18 434 -31 28 -63 20 -114 -28z"/>
<path d="M547 10843 c-4 -3 -7 -210 -7 -459 0 -453 0 -453 30 -484 20 -20 30
-41 30 -60 0 -24 21 -51 120 -150 98 -98 120 -126 120 -150 0 -37 307 -354
337 -348 17 3 18 26 21 370 2 367 2 367 -28 398 -27 27 -30 38 -30 90 0 52 -3
63 -30 90 -20 20 -30 41 -30 60 0 24 -18 47 -90 120 -72 73 -90 96 -90 120 0
22 -14 44 -60 90 -45 46 -60 68 -60 89 0 53 -206 251 -233 224z"/>
<path d="M10157 10733 c-13 -12 -7 -44 9 -50 8 -3 20 -16 25 -30 5 -13 20 -28
35 -33 14 -6 28 -19 31 -30 3 -11 19 -28 37 -39 17 -11 39 -26 48 -33 14 -10
20 -10 29 -1 10 10 -11 36 -93 118 -110 109 -110 109 -121 98z"/>
<path d="M2047 10603 c-4 -3 -7 -21 -7 -39 0 -40 -22 -64 -61 -64 -25 0 -67
-38 -284 -255 -255 -255 -255 -255 -255 -315 0 -53 -3 -63 -30 -90 -30 -31
-30 -31 -28 -338 3 -284 4 -307 21 -310 30 -6 517 491 517 528 0 22 14 44 60
90 46 46 60 68 60 90 0 19 10 40 30 60 30 31 30 31 30 269 0 238 0 238 25 261
33 31 32 50 -8 88 -32 31 -56 40 -70 25z"/>
<path d="M15427 10603 c-4 -3 -7 -62 -7 -129 0 -123 0 -123 30 -154 30 -31 30
-31 30 -210 0 -179 0 -179 30 -210 20 -20 30 -41 30 -61 0 -43 556 -599 599
-599 48 0 61 26 61 123 0 82 -1 88 -30 117 -30 31 -30 31 -30 270 0 240 0 240
-165 405 -141 141 -170 165 -196 165 -25 0 -51 21 -173 145 -132 134 -161 156
-179 138z"/>
<path d="M7163 9949 c-40 -15 -42 -78 -2 -99 29 -16 39 -4 39 50 0 54 -5 61
-37 49z"/>
<path d="M13150 9940 c-34 -21 -16 -210 20 -210 27 0 34 24 34 110 0 86 -7
110 -34 110 -3 0 -12 -4 -20 -10z"/>
<path d="M4324 9757 c-3 -8 -3 -56 -2 -108 3 -87 5 -94 24 -97 30 -4 94 69 94
108 0 57 -99 140 -116 97z"/>
<path d="M10256 9685 c-9 -14 -23 -25 -31 -25 -8 0 -21 -13 -30 -30 -12 -23
-22 -30 -46 -30 -19 0 -39 -9 -56 -26 -16 -16 -42 -28 -64 -31 -22 -3 -44 -12
-50 -19 -36 -44 54 -63 92 -20 13 15 38 27 61 31 43 8 189 139 181 163 -8 21
-40 13 -57 -13z"/>
<path d="M13152 9641 c-10 -6 -13 -152 -12 -753 0 -745 0 -745 -30 -783 -29
-37 -30 -40 -30 -150 0 -110 -1 -113 -30 -150 -28 -35 -30 -44 -30 -120 0 -76
-2 -85 -30 -120 -26 -32 -30 -46 -30 -96 0 -51 -4 -62 -30 -89 -27 -27 -30
-38 -30 -90 0 -52 -3 -63 -30 -90 -20 -20 -30 -41 -30 -60 0 -19 -10 -40 -30
-60 -20 -20 -30 -41 -30 -60 0 -19 -10 -40 -30 -60 -16 -17 -30 -41 -30 -54 0
-13 -13 -40 -30 -61 -16 -21 -30 -48 -30 -60 0 -12 -13 -39 -30 -60 -16 -21
-30 -48 -30 -60 0 -23 -42 -82 -91 -127 -17 -15 -29 -37 -29 -51 0 -13 -13
-41 -30 -62 -16 -21 -30 -48 -30 -60 0 -24 -45 -87 -86 -121 -15 -12 -29 -38
-35 -61 -6 -30 -23 -55 -65 -95 -55 -53 -63 -78 -27 -78 27 0 273 256 273 284
0 13 14 40 30 61 17 21 30 48 30 60 0 23 42 82 91 127 17 15 29 37 29 51 0 13
14 41 30 62 17 21 30 48 30 60 0 12 14 39 30 60 17 21 30 48 30 60 0 23 42 82
91 127 20 18 29 36 29 57 0 20 10 41 30 61 20 21 30 41 30 61 0 24 13 44 60
91 60 59 60 59 60 202 0 143 0 143 30 181 30 38 30 38 30 210 0 172 0 172 30
210 30 38 30 38 30 180 0 142 0 142 30 180 30 38 30 38 30 305 0 267 0 267
-30 305 -24 30 -30 48 -30 85 0 37 6 55 30 85 42 53 47 313 6 362 -13 15 -27
44 -31 63 -10 45 -27 58 -53 41z"/>
<path d="M15437 9342 c-15 -16 -17 -45 -17 -195 0 -176 0 -176 -30 -207 -30
-31 -30 -31 -30 -180 0 -149 0 -149 30 -180 20 -20 30 -41 30 -60 0 -22 14
-44 60 -90 46 -46 60 -68 60 -90 0 -19 10 -40 30 -60 20 -20 30 -41 30 -60 0
-19 10 -40 30 -60 20 -20 30 -41 30 -60 0 -22 14 -44 60 -90 46 -47 60 -68 60
-90 0 -39 64 -112 94 -108 16 2 22 12 27 45 3 28 14 51 32 67 27 25 27 25 27
266 0 240 0 240 30 272 18 19 30 42 30 58 0 16 -12 39 -30 58 -20 21 -30 42
-30 62 0 19 -10 40 -30 60 -20 20 -30 41 -30 60 0 22 -14 44 -60 90 -46 46
-60 68 -60 90 0 22 -14 44 -60 90 -46 46 -60 68 -60 90 0 22 -14 44 -60 90
-45 45 -60 68 -60 89 0 54 -68 82 -103 43z"/>
<path d="M2017 9310 c-25 -27 -37 -50 -37 -70 0 -22 -14 -43 -60 -90 -46 -46
-60 -68 -60 -90 0 -22 -14 -44 -60 -90 -46 -46 -60 -68 -60 -90 0 -22 -14 -44
-60 -90 -46 -46 -60 -68 -60 -90 0 -19 -10 -40 -30 -60 -30 -31 -30 -31 -30
-180 0 -149 0 -149 30 -180 30 -31 30 -31 30 -209 0 -194 5 -211 61 -211 37 0
119 82 119 119 0 23 14 44 60 91 46 46 60 68 60 90 0 19 10 40 30 60 20 20 30
41 30 60 0 19 10 40 30 60 20 20 30 41 30 60 0 22 14 44 60 90 60 61 60 61 60
361 0 300 0 300 -27 325 -24 22 -29 36 -33 97 -6 91 -27 100 -83 37z"/>
<path d="M16628 8919 c-316 -317 -368 -374 -368 -399 0 -19 -10 -40 -30 -60
-29 -29 -30 -34 -30 -120 0 -86 -1 -91 -30 -120 -30 -31 -30 -31 -30 -150 0
-119 0 -119 -30 -150 -29 -30 -31 -36 -28 -98 4 -78 19 -89 69 -48 17 14 41
26 55 26 17 0 57 34 144 120 100 99 126 120 150 120 25 0 59 29 225 195 195
195 195 195 195 315 0 119 0 119 30 150 30 31 30 31 30 150 0 119 0 119 30
150 31 31 31 31 28 158 -3 119 -4 127 -23 129 -14 2 -124 -102 -387 -368z"/>
<path d="M503 9233 c-21 -8 -15 -38 12 -63 24 -22 25 -29 25 -141 0 -118 0
-118 30 -149 30 -31 30 -31 30 -180 0 -149 0 -149 30 -180 27 -27 30 -38 30
-90 0 -60 0 -60 105 -165 86 -86 111 -105 135 -105 24 0 47 -17 120 -90 72
-72 97 -90 119 -90 24 0 53 -23 153 -120 80 -78 131 -120 145 -120 57 0 70 31
28 70 -23 22 -25 31 -25 111 0 85 -1 90 -30 119 -30 31 -30 31 -30 150 0 119
0 119 -30 150 -27 27 -30 38 -30 90 0 52 -3 63 -30 90 -20 20 -30 41 -30 60 0
45 -555 600 -600 600 -18 0 -42 11 -63 30 -32 28 -64 36 -94 23z"/>
<path d="M5350 8670 c0 -13 7 -20 20 -20 13 0 20 7 20 20 0 13 -7 20 -20 20
-13 0 -20 -7 -20 -20z"/>
<path d="M4384 8439 c-9 -15 -9 -303 0 -318 4 -6 16 -11 26 -11 30 0 33 14 33
170 0 156 -3 170 -33 170 -10 0 -22 -5 -26 -11z"/>
<path d="M15197 8202 c-12 -13 -17 -37 -17 -75 0 -49 -4 -60 -30 -87 -29 -29
-30 -34 -30 -120 0 -86 -1 -91 -30 -120 -29 -29 -30 -34 -30 -120 0 -87 -1
-91 -30 -122 -18 -19 -30 -42 -30 -58 0 -16 12 -39 30 -58 26 -28 30 -39 30
-92 0 -52 3 -63 30 -90 27 -27 30 -38 30 -90 0 -52 3 -63 30 -90 20 -20 30
-41 30 -60 0 -19 10 -40 30 -60 27 -27 30 -37 30 -91 0 -53 3 -63 28 -85 23
-22 28 -36 32 -97 6 -91 27 -100 83 -37 34 37 37 45 37 100 0 52 3 63 30 90
20 20 30 41 30 60 0 19 10 40 30 60 27 27 30 38 30 90 0 52 3 63 30 90 30 31
30 31 30 180 0 149 0 149 -30 180 -27 27 -30 38 -30 90 0 52 -3 63 -30 90 -20
20 -30 41 -30 60 0 19 -10 40 -30 60 -20 20 -30 41 -30 60 0 19 -10 40 -30 60
-20 20 -30 41 -30 60 0 19 -10 40 -30 60 -26 27 -30 38 -30 89 0 83 -58 123
-103 73z"/>
<path d="M2287 8203 c-4 -3 -7 -21 -7 -39 0 -23 -9 -42 -30 -64 -20 -20 -30
-41 -30 -60 0 -19 -10 -40 -30 -60 -20 -20 -30 -41 -30 -60 0 -19 -10 -40 -30
-60 -27 -27 -30 -38 -30 -90 0 -52 -3 -63 -30 -90 -20 -20 -30 -41 -30 -60 0
-19 -10 -40 -30 -60 -27 -27 -30 -38 -30 -90 0 -53 -4 -64 -30 -92 -18 -19
-30 -42 -30 -58 0 -16 12 -39 30 -58 29 -31 30 -35 30 -122 0 -86 1 -91 30
-120 20 -20 30 -41 30 -60 0 -19 10 -40 30 -60 27 -27 30 -37 30 -91 0 -52 3
-63 27 -85 18 -16 29 -39 32 -67 5 -33 11 -43 27 -45 30 -4 94 69 94 108 0 19
10 40 30 60 29 29 30 34 30 120 0 86 1 91 30 120 20 20 30 41 30 60 0 19 10
40 30 60 27 27 30 38 30 90 0 52 3 63 30 90 30 31 30 31 30 180 0 149 0 149
-30 180 -29 29 -30 34 -30 120 0 86 -1 91 -30 120 -29 29 -30 34 -30 120 0 89
0 90 -36 130 -34 37 -61 49 -77 33z"/>
<path d="M13382 8128 c-10 -28 -8 -171 2 -187 12 -19 46 -12 54 12 10 27 8
170 -2 186 -12 19 -46 12 -54 -11z"/>
<path d="M3662 7888 c-4 -13 -7 -72 -6 -131 1 -108 1 -108 34 -138 30 -28 32
-34 26 -74 -7 -56 7 -95 34 -95 50 0 53 128 3 167 -28 23 -28 23 -29 146 0 68
-4 129 -8 135 -12 20 -46 13 -54 -10z"/>
<path d="M4450 7831 c0 -22 23 -34 38 -19 15 15 3 38 -19 38 -12 0 -19 -7 -19
-19z"/>
<path d="M802 7784 c-32 -22 -29 -64 8 -102 26 -28 30 -39 30 -92 0 -52 3 -63
30 -90 20 -20 30 -41 30 -60 0 -19 10 -40 30 -60 27 -27 30 -38 30 -90 0 -52
3 -63 30 -90 20 -20 30 -41 30 -60 0 -19 10 -40 30 -60 20 -20 30 -41 30 -60
0 -41 79 -120 120 -120 22 0 44 -14 90 -60 46 -46 68 -60 90 -60 19 0 40 -10
60 -30 20 -20 41 -30 60 -30 19 0 40 -10 60 -30 20 -20 41 -30 60 -30 19 0 40
-10 60 -30 20 -20 41 -30 60 -30 19 0 40 -10 60 -30 17 -16 41 -30 55 -30 13
0 37 -12 54 -26 50 -41 65 -30 69 48 3 62 1 68 -28 98 -27 27 -30 37 -30 90 0
52 -3 63 -30 90 -20 20 -30 41 -30 60 0 19 -10 40 -30 60 -20 20 -30 41 -30
60 0 19 -10 40 -30 60 -20 20 -30 41 -30 60 0 44 -196 240 -240 240 -22 0 -43
14 -90 60 -46 46 -68 60 -90 60 -22 0 -44 14 -90 60 -46 46 -68 60 -90 60 -19
0 -40 10 -60 30 -20 19 -41 30 -59 30 -21 0 -45 16 -92 60 -67 62 -90 70 -127
44z"/>
<path d="M16682 7770 c-20 -19 -43 -30 -62 -30 -19 0 -40 -10 -60 -30 -20 -20
-41 -30 -60 -30 -22 0 -44 -14 -90 -60 -46 -46 -68 -60 -90 -60 -22 0 -44 -14
-90 -60 -47 -46 -68 -60 -90 -60 -44 0 -360 -316 -360 -360 0 -19 -10 -40 -30
-60 -20 -20 -30 -41 -30 -60 0 -19 -10 -40 -30 -60 -27 -27 -30 -38 -30 -90 0
-52 -3 -63 -30 -90 -20 -20 -30 -41 -30 -60 0 -19 -11 -40 -31 -61 -61 -63
-24 -140 42 -85 17 14 41 26 54 26 14 0 38 14 55 30 20 20 41 30 60 30 19 0
40 10 60 30 20 20 41 30 60 30 19 0 40 10 60 30 20 20 41 30 60 30 19 0 40 10
60 30 20 20 41 30 60 30 19 0 40 10 60 30 20 20 41 30 60 30 25 0 52 23 165
135 135 135 135 135 135 195 0 52 3 63 30 90 20 20 30 41 30 60 0 19 10 40 30
60 27 27 30 38 30 90 0 52 3 63 30 90 26 27 30 38 30 89 0 48 4 61 25 81 42
39 29 70 -28 70 -12 0 -37 -14 -55 -30z"/>
<path d="M13320 7765 c-23 -61 -4 -138 33 -133 29 4 45 62 31 116 -12 48 -48
58 -64 17z"/>
<path d="M4498 7645 c-15 -33 3 -75 32 -75 12 0 25 10 32 25 15 33 -3 75 -32
75 -12 0 -25 -10 -32 -25z"/>
<path d="M13258 7525 c-15 -33 3 -75 32 -75 12 0 25 10 32 25 15 33 -3 75 -32
75 -12 0 -25 -10 -32 -25z"/>
<path d="M4558 7465 c-15 -33 3 -75 32 -75 12 0 25 10 32 25 15 33 -3 75 -32
75 -12 0 -25 -10 -32 -25z"/>
<path d="M3778 7345 c-15 -33 3 -75 32 -75 12 0 25 10 32 25 15 33 -3 75 -32
75 -12 0 -25 -10 -32 -25z"/>
<path d="M13198 7345 c-15 -33 3 -75 32 -75 29 0 47 42 32 75 -7 15 -20 25
-32 25 -12 0 -25 -10 -32 -25z"/>
<path d="M4633 7249 c-16 -16 -5 -39 19 -39 14 0 19 6 16 22 -4 25 -19 33 -35
17z"/>
<path d="M3841 7171 c-17 -31 -13 -50 17 -79 15 -16 31 -46 37 -72 11 -50 39
-65 62 -34 20 27 16 52 -14 82 -16 16 -32 46 -38 72 -11 51 -45 68 -64 31z"/>
<path d="M13138 7165 c-15 -33 3 -75 32 -75 12 0 25 10 32 25 15 33 -3 75 -32
75 -12 0 -25 -10 -32 -25z"/>
<path d="M2707 7123 c-4 -3 -7 -48 -7 -99 0 -90 -1 -94 -30 -124 -30 -31 -30
-31 -30 -150 0 -119 0 -119 -30 -150 -29 -29 -30 -34 -30 -120 0 -86 -1 -91
-30 -120 -27 -27 -30 -38 -30 -90 0 -52 3 -63 30 -90 20 -20 30 -41 30 -60 0
-19 10 -40 30 -60 27 -27 30 -38 30 -90 0 -59 0 -59 60 -120 46 -46 60 -68 60
-90 0 -19 10 -40 30 -60 20 -20 30 -41 30 -60 0 -39 64 -112 94 -108 19 3 22
12 26 75 4 61 9 75 33 97 27 25 27 27 27 145 0 120 0 120 30 151 30 31 30 31
30 300 0 269 0 269 -30 300 -20 20 -30 41 -30 60 0 19 -10 40 -30 60 -20 20
-30 41 -30 60 0 19 -10 40 -30 60 -20 20 -30 41 -30 60 0 19 -10 40 -30 60
-20 20 -30 41 -30 60 0 52 -86 131 -113 103z"/>
<path d="M4690 7111 c0 -26 17 -36 35 -21 18 15 8 40 -16 40 -12 0 -19 -7 -19
-19z"/>
<path d="M14766 7118 c-2 -7 -7 -26 -11 -42 -3 -16 -17 -43 -31 -59 -13 -16
-24 -41 -24 -57 0 -19 -11 -40 -30 -60 -20 -20 -30 -41 -30 -60 0 -19 -10 -40
-30 -60 -20 -20 -30 -41 -30 -60 0 -19 -10 -40 -30 -60 -20 -20 -30 -41 -30
-60 0 -19 -10 -40 -30 -60 -30 -31 -30 -31 -30 -180 0 -149 0 -149 30 -180 29
-29 30 -34 30 -120 0 -86 1 -91 30 -120 30 -31 30 -31 30 -150 0 -120 0 -120
36 -160 20 -22 44 -40 54 -40 28 0 90 75 90 110 0 22 14 43 60 90 46 46 60 68
60 90 0 19 10 40 30 60 20 20 30 41 30 60 0 19 10 40 30 60 30 31 30 31 30
270 0 239 0 239 -30 270 -27 27 -30 38 -30 90 0 52 -3 63 -30 90 -29 29 -30
34 -30 120 0 80 -2 91 -25 118 -14 16 -28 47 -33 68 -8 40 -47 62 -56 32z"/>
<path d="M13090 6990 c0 -13 7 -20 20 -20 13 0 20 7 20 20 0 13 -7 20 -20 20
-13 0 -20 -7 -20 -20z"/>
<path d="M4752 6948 c-15 -15 -3 -38 19 -38 12 0 19 7 19 19 0 22 -23 34 -38
19z"/>
<path d="M3961 6871 c-17 -31 -13 -50 17 -79 15 -16 31 -46 37 -72 11 -50 39
-65 62 -34 20 27 16 52 -14 82 -16 16 -32 46 -38 72 -11 51 -45 68 -64 31z"/>
<path d="M13026 6882 c-3 -5 -8 -27 -12 -50 -4 -27 -14 -46 -30 -56 -16 -11
-25 -29 -29 -60 -5 -31 -14 -50 -30 -60 -15 -10 -26 -30 -30 -58 -4 -24 -16
-49 -26 -56 -11 -7 -19 -22 -19 -33 0 -57 105 33 116 99 4 27 14 46 29 56 15
10 26 30 30 58 5 27 18 52 36 69 31 29 35 48 19 80 -11 19 -44 26 -54 11z"/>
<path d="M4870 6750 c0 -13 7 -20 20 -20 13 0 20 7 20 20 0 13 -7 20 -20 20
-13 0 -20 -7 -20 -20z"/>
<path d="M4090 6570 c0 -13 7 -20 20 -20 13 0 20 7 20 20 0 13 -7 20 -20 20
-13 0 -20 -7 -20 -20z"/>
<path d="M4990 6510 c0 -13 7 -20 20 -20 13 0 20 7 20 20 0 13 -7 20 -20 20
-13 0 -20 -7 -20 -20z"/>
<path d="M1342 6464 c-32 -22 -29 -64 8 -102 20 -21 30 -42 30 -62 0 -19 10
-40 30 -60 20 -20 30 -41 30 -60 0 -22 14 -44 60 -90 46 -46 60 -68 60 -90 0
-19 10 -40 30 -60 20 -20 30 -41 30 -60 0 -44 196 -240 240 -240 19 0 40 -10
60 -30 27 -27 38 -30 90 -30 52 0 63 -3 90 -30 27 -27 38 -30 90 -30 52 0 63
-3 90 -30 29 -29 34 -30 120 -30 86 0 90 -1 120 -30 31 -30 32 -31 128 -28
124 4 131 18 47 95 -44 41 -55 57 -55 82 0 20 -10 40 -30 61 -20 20 -30 41
-30 60 0 22 -14 44 -60 90 -46 46 -60 68 -60 90 0 41 -79 120 -120 120 -22 0
-44 14 -90 60 -46 46 -68 60 -90 60 -19 0 -40 10 -60 30 -20 20 -41 30 -60 30
-19 0 -40 10 -60 30 -20 20 -41 30 -60 30 -19 0 -40 10 -60 30 -27 27 -38 30
-90 30 -52 0 -63 3 -90 30 -20 20 -41 30 -60 30 -19 0 -40 10 -60 30 -20 20
-41 30 -60 30 -18 0 -42 11 -63 30 -39 34 -62 37 -95 14z"/>
<path d="M16142 6450 c-20 -19 -43 -30 -62 -30 -19 0 -40 -10 -60 -30 -27 -27
-38 -30 -90 -30 -52 0 -63 -3 -90 -30 -20 -20 -41 -30 -60 -30 -19 0 -40 -10
-60 -30 -20 -20 -41 -30 -60 -30 -19 0 -40 -10 -60 -30 -27 -27 -38 -30 -90
-30 -52 0 -63 -3 -90 -30 -20 -20 -41 -30 -60 -30 -44 0 -300 -256 -300 -300
0 -19 -10 -40 -30 -60 -20 -20 -30 -41 -30 -60 0 -22 -14 -44 -60 -90 -44 -45
-60 -68 -60 -89 0 -17 -10 -37 -25 -51 -51 -48 -33 -65 77 -68 96 -3 97 -2
128 28 27 27 37 30 90 30 52 0 63 3 90 30 29 29 34 30 120 30 86 0 91 1 120
30 27 27 38 30 90 30 52 0 63 3 90 30 20 20 41 30 60 30 43 0 180 137 180 180
0 22 14 43 60 90 46 46 60 68 60 90 0 19 10 40 30 60 20 20 30 41 30 60 0 22
14 44 60 90 46 47 60 68 60 90 0 20 10 41 30 62 75 78 -8 160 -88 88z"/>
<path d="M4150 6450 c0 -13 7 -20 20 -20 13 0 20 7 20 20 0 13 -7 20 -20 20
-13 0 -20 -7 -20 -20z"/>
<path d="M12790 6390 c0 -13 7 -20 20 -20 13 0 20 7 20 20 0 13 -7 20 -20 20
-13 0 -20 -7 -20 -20z"/>
<path d="M4210 6330 c0 -13 7 -20 20 -20 13 0 20 7 20 20 0 13 -7 20 -20 20
-13 0 -20 -7 -20 -20z"/>
<path d="M5110 6330 c0 -13 7 -20 20 -20 13 0 20 7 20 20 0 13 -7 20 -20 20
-13 0 -20 -7 -20 -20z"/>
<path d="M12668 6221 c-49 -51 -69 -79 -74 -106 -5 -27 -22 -52 -60 -89 -37
-37 -54 -63 -59 -90 -6 -29 -25 -54 -86 -113 -76 -74 -98 -113 -62 -113 31 0
211 193 219 235 5 27 22 52 60 89 38 38 54 63 59 90 6 27 21 50 56 83 50 47
64 83 32 83 -10 0 -48 -31 -85 -69z"/>
<path d="M4270 6211 c0 -11 8 -26 18 -33 11 -7 22 -31 26 -52 8 -42 72 -116
101 -116 21 0 19 36 -3 52 -11 7 -22 31 -26 52 -12 66 -116 152 -116 97z"/>
<path d="M5224 6158 c-4 -6 4 -21 19 -34 16 -13 31 -40 36 -65 8 -35 25 -58
90 -121 63 -60 83 -86 90 -117 7 -32 34 -65 150 -182 112 -112 143 -150 150
-179 6 -26 26 -54 65 -91 45 -44 56 -61 56 -87 0 -58 77 -122 148 -122 71 0
79 -5 90 -58 13 -56 82 -121 129 -122 18 0 38 -7 45 -16 29 -36 323 -326 339
-335 10 -5 27 -9 39 -9 13 0 56 -34 113 -90 77 -75 97 -90 124 -90 18 0 38 -7
45 -16 57 -71 285 -284 304 -284 20 0 132 -83 149 -110 3 -5 21 -10 40 -10 20
0 40 -7 47 -17 7 -9 60 -63 117 -120 104 -103 104 -103 167 -103 47 0 67 -4
76 -17 51 -65 100 -103 133 -103 20 0 40 -7 47 -17 51 -65 100 -103 133 -103
20 0 40 -7 47 -17 51 -65 100 -103 133 -103 19 0 39 -6 44 -12 6 -7 24 -29 41
-49 16 -20 30 -48 30 -62 0 -46 23 -57 121 -57 85 0 90 -1 121 -30 52 -50 128
-44 192 14 48 43 54 66 16 66 -10 0 -26 -10 -35 -22 -13 -20 -24 -23 -83 -23
-67 0 -67 0 -154 88 -88 87 -88 87 -153 87 -48 0 -67 4 -77 17 -51 65 -100
103 -133 103 -20 0 -40 7 -47 17 -51 65 -100 103 -133 103 -20 0 -40 7 -47 17
-51 65 -100 103 -133 103 -19 0 -39 6 -44 13 -6 6 -23 27 -37 45 -29 36 -72
62 -104 62 -12 0 -47 26 -83 60 -49 47 -69 60 -94 60 -18 0 -38 7 -45 17 -47
60 -162 163 -183 163 -27 0 -97 57 -205 165 -62 62 -80 75 -107 75 -18 0 -38
7 -45 16 -28 35 -262 266 -279 275 -10 5 -27 9 -39 9 -14 0 -64 42 -143 120
-105 103 -126 120 -154 120 -18 0 -38 7 -45 17 -11 14 -140 144 -176 176 -156
144 -484 495 -491 527 -7 30 -33 63 -120 150 -91 92 -113 120 -121 153 -7 32
-24 56 -75 104 -65 62 -87 74 -101 51z"/>
<path d="M3317 6102 c-15 -17 -17 -66 -17 -495 0 -476 0 -476 60 -537 46 -47
60 -68 60 -90 0 -24 21 -51 120 -150 99 -100 120 -126 120 -150 0 -39 64 -112
94 -108 21 3 21 5 24 490 2 487 2 487 -28 518 -20 20 -30 41 -30 60 0 19 -10
40 -30 60 -20 20 -30 41 -30 60 0 24 -18 47 -90 120 -73 74 -90 96 -90 121 0
22 -11 40 -47 74 -53 49 -89 57 -116 27z"/>
<path d="M14107 6039 c-50 -54 -67 -79 -67 -100 0 -22 -19 -48 -90 -119 -72
-73 -90 -96 -90 -120 0 -19 -10 -40 -30 -60 -20 -20 -30 -41 -30 -60 0 -19
-10 -40 -30 -60 -30 -31 -30 -31 -28 -488 3 -429 4 -457 21 -460 30 -6 397
371 397 408 0 19 11 40 30 60 20 20 30 41 30 60 0 19 10 40 30 60 45 46 47
315 3 356 -28 26 -28 26 -33 307 -6 337 -3 332 -113 216z"/>
<path d="M4450 5912 c0 -22 121 -142 144 -142 33 0 15 37 -48 98 -64 62 -96
77 -96 44z"/>
<path d="M11946 5741 c-121 -121 -141 -151 -98 -151 23 1 276 255 268 269 -16
26 -48 4 -170 -118z"/>
<path d="M4630 5672 c0 -22 121 -142 144 -142 33 0 15 37 -48 98 -64 62 -96
77 -96 44z"/>
<path d="M4810 5433 c0 -23 242 -263 264 -263 38 0 9 42 -108 158 -118 117
-156 142 -156 105z"/>
<path d="M11470 5250 c0 -13 7 -20 20 -20 13 0 20 7 20 20 0 13 -7 20 -20 20
-13 0 -20 -7 -20 -20z"/>
<path d="M2057 5213 c-17 -17 -3 -44 48 -90 44 -41 55 -57 55 -82 0 -26 21
-52 150 -181 126 -126 150 -155 150 -180 0 -41 78 -120 120 -120 19 0 40 -10
60 -30 27 -27 38 -30 90 -30 52 0 63 -3 90 -30 31 -30 31 -30 330 -30 299 0
299 0 333 -30 54 -47 117 -30 117 31 0 44 -495 539 -540 539 -19 0 -40 10 -60
30 -29 29 -34 30 -120 30 -86 0 -91 1 -120 30 -29 29 -34 30 -120 30 -86 0
-91 1 -120 30 -27 27 -38 30 -90 30 -52 0 -63 3 -90 30 -31 30 -31 30 -154 30
-67 0 -126 -3 -129 -7z"/>
<path d="M4103 5213 c-21 -8 -15 -38 12 -63 25 -23 25 -23 25 -261 0 -238 0
-238 30 -269 30 -31 30 -31 30 -150 0 -119 0 -119 30 -150 20 -20 30 -41 30
-60 0 -19 10 -40 30 -60 19 -20 30 -41 30 -60 0 -37 23 -60 60 -60 24 0 51
-22 150 -120 87 -86 127 -120 144 -120 14 0 38 -12 55 -26 63 -53 66 -44 69
198 2 217 2 217 -28 248 -30 31 -30 31 -30 180 0 149 0 149 -30 180 -20 20
-30 41 -30 61 0 26 -34 64 -256 284 -261 259 -273 268 -321 248z"/>
<path d="M13186 5055 c-141 -140 -166 -169 -166 -194 0 -25 -17 -47 -90 -121
-90 -91 -90 -91 -90 -210 0 -119 0 -119 -30 -150 -30 -31 -30 -31 -30 -240 0
-209 0 -209 -30 -240 -29 -30 -31 -36 -28 -98 4 -100 18 -96 153 42 96 98 119
116 144 116 45 0 241 196 241 240 0 19 10 40 30 60 29 29 30 34 30 120 0 86 1
91 30 120 30 31 30 31 30 210 0 179 0 179 30 210 30 31 30 31 30 149 0 102 -3
120 -18 134 -41 38 -62 25 -236 -148z"/>
<path d="M15300 5190 c-31 -30 -31 -30 -150 -30 -119 0 -119 0 -150 -30 -29
-29 -34 -30 -120 -30 -86 0 -91 -1 -120 -30 -29 -29 -34 -30 -120 -30 -86 0
-91 -1 -120 -30 -20 -20 -41 -30 -60 -30 -43 0 -480 -435 -480 -478 0 -18 -10
-38 -25 -52 -51 -48 -33 -65 77 -68 96 -3 97 -2 128 28 31 30 31 30 330 30
299 0 299 0 330 30 20 20 41 30 60 30 45 0 420 376 420 420 0 24 17 47 90 120
96 97 110 129 72 163 -34 31 -125 23 -162 -13z"/>
<path d="M11196 4991 c-149 -149 -172 -182 -128 -181 23 1 336 315 328 329
-17 26 -50 1 -200 -148z"/>
<path d="M5110 5073 c0 -22 601 -623 623 -623 44 0 8 43 -279 331 -289 289
-344 335 -344 292z"/>
<path d="M8170 4770 c0 -13 7 -20 20 -20 13 0 20 7 20 20 0 13 -7 20 -20 20
-13 0 -20 -7 -20 -20z"/>
<path d="M9914 4666 c-13 -33 4 -47 48 -44 38 3 43 6 43 28 0 31 -80 45 -91
16z"/>
<path d="M10749 4602 c-64 -64 -76 -92 -41 -92 23 1 156 135 148 149 -15 23
-43 8 -107 -57z"/>
<path d="M11676 4391 c-204 -204 -232 -241 -189 -241 23 0 452 430 446 447
-12 31 -50 1 -257 -206z"/>
<path d="M5062 4424 c-32 -22 -29 -64 8 -102 29 -31 30 -35 30 -122 0 -86 1
-91 30 -120 29 -29 30 -34 30 -120 0 -86 1 -91 30 -120 29 -29 30 -34 30 -120
0 -86 1 -91 30 -120 27 -27 30 -38 30 -90 0 -57 2 -61 45 -105 33 -33 53 -45
75 -45 22 0 44 -14 90 -60 46 -46 68 -60 90 -60 22 0 44 -14 90 -60 48 -47 67
-60 91 -60 25 0 42 -11 82 -55 77 -84 91 -77 95 47 3 96 2 97 -28 128 -29 30
-30 34 -30 120 0 86 -1 91 -30 120 -27 27 -30 38 -30 90 0 52 -3 63 -30 90
-27 27 -30 38 -30 90 0 52 -3 63 -30 90 -20 20 -30 41 -30 60 0 43 -137 180
-180 180 -24 0 -58 29 -211 180 -188 186 -202 196 -247 164z"/>
<path d="M5824 4419 c-8 -14 245 -268 268 -269 43 0 23 30 -98 151 -122 122
-154 144 -170 118z"/>
<path d="M10449 4362 c-64 -64 -76 -92 -42 -92 23 0 152 130 146 146 -10 27
-39 12 -104 -54z"/>
<path d="M12323 4315 c-94 -97 -116 -115 -142 -115 -45 0 -361 -315 -361 -360
0 -19 -10 -40 -30 -60 -29 -29 -30 -34 -30 -120 0 -86 -1 -91 -30 -120 -29
-29 -30 -34 -30 -120 0 -86 -1 -91 -30 -120 -29 -29 -30 -34 -30 -119 0 -142
44 -160 149 -61 47 44 71 60 92 60 21 0 43 15 89 60 47 46 68 60 90 60 24 0
49 19 135 105 105 105 105 105 105 165 0 52 3 63 30 90 27 27 30 38 30 90 0
52 3 63 30 90 30 31 30 31 30 180 0 149 0 149 30 180 30 31 31 32 28 128 -4
135 -12 134 -155 -13z"/>
<path d="M10210 4170 c0 -13 7 -20 20 -20 13 0 20 7 20 20 0 13 -7 20 -20 20
-13 0 -20 -7 -20 -20z"/>
<path d="M3077 4122 c-38 -41 -24 -64 118 -207 113 -113 140 -135 165 -135 24
0 47 -17 120 -90 73 -72 96 -90 120 -90 19 0 40 -10 60 -30 20 -20 41 -30 60
-30 19 0 40 -10 60 -30 27 -27 38 -30 90 -30 52 0 63 3 90 30 31 30 31 30 359
30 305 0 329 1 344 18 37 40 9 102 -46 102 -21 0 -59 32 -177 150 -126 125
-155 150 -180 150 -22 0 -43 14 -90 60 -61 60 -61 60 -270 60 -209 0 -209 0
-240 30 -31 30 -31 30 -299 30 -247 0 -269 -1 -284 -18z"/>
<path d="M14040 4110 c-31 -30 -31 -30 -270 -30 -239 0 -239 0 -270 -30 -20
-20 -41 -30 -60 -30 -22 0 -44 -14 -90 -60 -46 -46 -68 -60 -90 -60 -24 0 -47
-18 -120 -90 -73 -72 -96 -90 -120 -90 -41 0 -120 -79 -120 -119 0 -61 1 -61
393 -61 356 0 356 0 390 -30 19 -16 45 -30 57 -30 12 0 38 14 57 30 21 19 45
30 63 30 19 0 40 10 60 30 20 20 41 30 60 30 24 0 51 21 150 120 100 99 126
120 150 120 43 0 240 196 240 239 0 57 -15 61 -243 61 -206 0 -206 0 -237 -30z"/>
<path d="M11247 4020 c-85 -87 -116 -112 -146 -119 -28 -6 -59 -29 -120 -90
-60 -59 -93 -84 -119 -90 -44 -10 -190 -141 -178 -159 14 -24 43 -11 88 38 33
35 57 52 85 58 30 7 59 28 122 91 61 60 93 84 120 90 44 10 309 259 297 279
-16 27 -46 7 -149 -98z"/>
<path d="M9998 4033 c-36 -38 -40 -63 -10 -63 23 0 92 70 85 86 -9 24 -38 15
-75 -23z"/>
<path d="M6304 3999 c-8 -14 125 -148 148 -149 38 0 28 25 -38 91 -67 66 -95
81 -110 58z"/>
<path d="M9790 3870 c0 -13 7 -20 20 -20 13 0 20 7 20 20 0 13 -7 20 -20 20
-13 0 -20 -7 -20 -20z"/>
<path d="M6544 3819 c-8 -14 125 -148 148 -149 38 0 28 25 -38 91 -67 66 -95
81 -110 58z"/>
<path d="M8227 3756 c-7 -18 11 -36 29 -29 21 8 17 43 -5 43 -10 0 -21 -6 -24
-14z"/>
<path d="M9576 3731 c-38 -39 -41 -61 -8 -61 23 0 92 69 85 86 -9 24 -38 15
-77 -25z"/>
<path d="M6784 3639 c-8 -14 125 -148 147 -149 38 0 25 30 -40 94 -66 64 -93
78 -107 55z"/>
<path d="M9396 3611 c-38 -39 -41 -61 -7 -61 22 0 95 75 87 89 -13 21 -42 11
-80 -28z"/>
<path d="M9216 3491 c-38 -39 -41 -61 -7 -61 22 0 95 75 87 89 -13 21 -42 11
-80 -28z"/>
<path d="M10506 3461 c-66 -66 -76 -91 -38 -91 23 1 156 135 148 149 -15 23
-43 8 -110 -58z"/>
<path d="M7087 3396 c-7 -17 62 -86 85 -86 33 0 30 22 -8 61 -39 40 -68 49
-77 25z"/>
<path d="M9036 3371 c-38 -39 -41 -61 -7 -61 22 0 95 75 87 89 -13 21 -42 11
-80 -28z"/>
<path d="M10266 3281 c-66 -66 -76 -91 -38 -91 23 1 156 135 148 149 -15 23
-43 8 -110 -58z"/>
<path d="M7264 3279 c-8 -14 65 -89 87 -89 34 0 31 22 -7 61 -38 39 -67 49
-80 28z"/>
<path d="M4384 3213 c-25 -27 -30 -28 -157 -33 -125 -5 -132 -6 -135 -26 -4
-29 71 -94 109 -94 18 0 40 -11 59 -30 20 -20 41 -30 60 -30 22 0 44 -14 90
-60 46 -46 68 -60 90 -60 22 0 44 -14 90 -60 46 -46 68 -60 90 -60 19 0 40
-10 60 -30 20 -20 41 -30 60 -30 19 0 40 -10 60 -30 29 -29 34 -30 120 -30 86
0 91 1 120 30 31 30 31 30 180 30 149 0 149 0 180 30 31 30 31 30 150 30 120
0 120 0 160 36 22 20 40 44 40 54 0 28 -75 90 -110 90 -22 0 -43 14 -90 60
-46 46 -68 60 -90 60 -22 0 -44 14 -90 60 -61 60 -61 60 -120 60 -52 0 -63 3
-90 30 -31 30 -31 30 -421 30 -390 0 -390 0 -415 -27z"/>
<path d="M12360 3210 c-20 -20 -41 -30 -60 -30 -19 0 -40 -10 -60 -30 -20 -20
-41 -30 -60 -30 -19 0 -40 -10 -60 -30 -20 -20 -41 -30 -60 -30 -19 0 -40 -10
-60 -30 -20 -19 -41 -30 -59 -30 -33 0 -171 -121 -171 -151 0 -9 18 -33 40
-53 40 -36 40 -36 160 -36 119 0 119 0 150 -30 31 -30 31 -30 180 -30 149 0
149 0 180 -30 29 -29 34 -30 120 -30 86 0 91 1 120 30 20 20 41 30 60 30 19 0
40 10 60 30 20 20 41 30 60 30 22 0 44 14 90 60 46 46 68 60 90 60 22 0 44 14
90 60 46 45 68 60 89 60 21 0 45 15 87 55 42 39 70 57 99 63 58 11 59 52 1 64
-21 5 -52 19 -68 33 -30 25 -30 25 -508 25 -479 0 -479 0 -510 -30z"/>
<path d="M7444 3159 c-8 -14 65 -89 87 -89 34 0 31 22 -7 61 -38 39 -67 49
-80 28z"/>
<path d="M10056 3131 c-38 -39 -41 -61 -7 -61 22 0 95 75 87 89 -13 21 -42 11
-80 -28z"/>
<path d="M7624 3039 c-8 -14 65 -89 87 -89 34 0 31 22 -7 61 -38 39 -67 49
-80 28z"/>
<path d="M9900 3030 c-7 -12 -25 -22 -51 -26 -30 -5 -53 -20 -94 -60 -37 -37
-67 -56 -93 -62 -26 -6 -54 -25 -89 -60 -35 -35 -64 -54 -90 -60 -27 -6 -55
-25 -90 -60 -35 -35 -64 -55 -90 -60 -42 -10 -129 -84 -118 -101 10 -18 44
-12 55 9 7 12 25 22 51 26 30 5 53 20 94 60 37 37 67 56 93 62 26 6 54 25 89
60 35 35 64 54 90 60 27 6 55 25 90 60 35 35 64 55 90 60 42 10 129 84 118
101 -10 18 -44 12 -55 -9z"/>
<path d="M7804 2919 c-8 -14 65 -89 87 -89 34 0 31 22 -7 61 -38 39 -67 49
-80 28z"/>
<path d="M7984 2799 c-8 -14 65 -89 87 -89 34 0 31 22 -7 61 -38 39 -67 49
-80 28z"/>
<path d="M8164 2679 c-8 -14 65 -89 87 -89 34 0 31 22 -7 61 -38 39 -67 49
-80 28z"/>
<path d="M8345 2559 c-12 -18 83 -96 126 -103 24 -4 42 -14 49 -26 11 -21 45
-27 55 -9 12 18 -83 96 -126 103 -24 4 -42 14 -49 26 -11 21 -45 27 -55 9z"/>
<path d="M9060 2490 c-7 -12 -25 -22 -49 -26 -43 -7 -138 -85 -126 -103 10
-18 44 -12 55 9 7 12 25 22 49 26 43 7 138 85 126 103 -10 18 -44 12 -55 -9z"/>
<path d="M8645 2379 c-4 -6 15 -30 41 -55 59 -54 119 -61 119 -14 0 22 -6 26
-48 34 -30 5 -51 15 -58 27 -11 21 -44 26 -54 8z"/>
</g>
<g transform="translate(0.000000,1680.000000) scale(0.100000,-0.100000)" fill="#0c4885" stroke="none">
<path d="M3676 14984 c-15 -14 -16 -348 -16 -3524 0 -3509 0 -3509 30 -3540
30 -31 30 -31 30 -150 0 -119 0 -119 30 -150 29 -29 30 -34 30 -120 0 -86 1
-91 30 -120 27 -27 30 -38 30 -90 0 -52 3 -63 30 -90 20 -20 30 -41 30 -60 0
-19 10 -40 30 -60 27 -27 30 -38 30 -90 0 -52 3 -63 30 -90 20 -20 30 -41 30
-60 0 -19 10 -40 30 -60 27 -27 30 -38 30 -90 0 -52 3 -63 30 -90 20 -20 30
-41 30 -60 0 -19 10 -40 30 -60 20 -20 30 -41 30 -60 0 -19 10 -40 30 -60 20
-20 30 -41 30 -60 0 -22 14 -44 60 -90 46 -46 60 -68 60 -90 0 -19 10 -40 30
-60 20 -20 30 -41 30 -60 0 -24 18 -47 90 -120 72 -73 90 -96 90 -120 0 -24
18 -47 90 -120 72 -73 90 -96 90 -120 0 -48 246 -290 302 -297 29 -4 43 -12
50 -29 6 -13 18 -26 27 -29 9 -3 49 -38 89 -79 66 -67 72 -75 57 -89 -16 -17
-45 -13 -45 6 0 6 -27 36 -60 67 -33 31 -60 62 -60 68 0 17 -47 15 -53 -1 -3
-8 29 -46 76 -91 45 -43 85 -81 89 -84 4 -4 26 -28 49 -55 23 -26 47 -47 55
-47 7 0 15 -8 18 -17 4 -10 70 -80 149 -157 164 -159 143 -138 200 -198 34
-37 51 -48 76 -48 27 0 57 -27 241 -210 180 -180 215 -210 240 -210 24 0 42
-13 87 -60 31 -33 61 -60 68 -60 6 0 17 -11 23 -25 14 -31 52 -35 52 -5 0 10
-9 24 -20 30 -23 12 -27 50 -5 50 29 0 95 -75 95 -109 0 -35 58 -108 94 -117
12 -3 27 -18 33 -33 8 -23 18 -29 51 -33 35 -5 54 -20 156 -122 96 -96 121
-116 146 -116 22 0 43 -14 90 -60 46 -46 68 -60 90 -60 22 0 44 -14 90 -60 46
-46 68 -60 90 -60 22 0 44 -14 90 -60 46 -46 68 -60 90 -60 22 0 44 -14 90
-60 46 -46 68 -60 90 -60 22 0 44 -14 90 -60 46 -46 68 -60 90 -60 22 0 44
-14 90 -60 39 -39 69 -60 84 -60 13 0 40 -13 61 -30 21 -16 43 -30 49 -30 6 0
16 -13 22 -28 9 -24 19 -30 53 -35 27 -3 50 -14 66 -31 16 -17 35 -26 54 -26
24 0 44 -13 91 -60 46 -46 68 -60 90 -60 19 0 40 -10 60 -30 27 -27 38 -30 90
-30 59 0 59 0 120 60 46 46 68 60 90 60 19 0 40 10 60 30 20 20 41 30 60 30
64 0 144 109 90 123 -12 3 -20 14 -20 25 0 36 22 37 49 3 41 -49 73 -43 150
29 47 45 71 60 92 60 22 0 43 14 85 56 44 45 63 57 96 62 33 4 43 10 52 34 6
15 16 28 22 28 6 0 28 14 49 30 21 17 48 30 61 30 13 0 37 13 54 30 20 20 41
30 60 30 22 0 44 14 90 60 46 46 68 60 90 60 46 0 172 129 180 184 6 48 25 56
60 26 34 -30 38 -28 127 65 67 70 87 85 112 85 25 0 47 16 121 90 73 72 96 90
120 90 24 0 47 18 120 90 72 71 97 90 119 90 22 0 46 17 100 67 77 72 81 81
51 108 -12 11 -20 28 -18 39 3 19 11 21 107 24 103 3 103 3 114 32 6 16 20 31
32 34 52 13 90 72 95 149 6 80 19 93 60 57 12 -11 29 -20 35 -20 24 0 85 79
85 109 0 37 23 61 60 61 37 0 60 24 60 62 0 29 84 128 109 128 4 0 13 11 19
24 7 17 21 25 50 29 56 7 302 249 302 297 0 37 23 60 60 60 22 0 42 12 75 45
44 44 45 48 45 107 0 60 0 61 53 110 28 27 55 52 59 56 33 31 62 80 67 110 7
44 28 51 61 22 31 -27 41 -26 78 13 38 39 39 48 12 72 -35 32 -22 59 29 63 37
3 45 7 54 31 6 16 22 32 39 39 28 10 28 10 28 111 0 89 2 101 19 111 30 15 38
12 45 -15 8 -31 46 -35 46 -5 0 13 -9 22 -25 26 -50 13 -21 64 36 64 36 0 42
4 51 28 7 17 23 33 40 40 23 9 28 16 28 46 0 26 8 44 30 66 19 19 30 41 30 59
0 16 10 37 25 51 31 29 31 47 1 79 -13 15 -25 33 -26 41 -8 57 15 72 60 40 43
-31 60 -21 60 35 0 39 -4 47 -24 55 -32 12 -41 28 -26 45 22 27 50 18 50 -15
0 -33 28 -42 50 -15 15 17 6 33 -26 45 -20 8 -24 16 -24 54 0 62 28 79 64 40
15 -17 30 -25 40 -21 24 9 20 23 -14 47 -54 39 -34 120 30 120 64 0 84 81 30
120 -34 24 -38 38 -14 47 10 4 25 -4 40 -21 28 -29 57 -24 66 12 6 23 -17 82
-32 82 -19 0 -42 68 -30 90 13 25 28 25 60 0 68 -53 90 35 24 97 -23 21 -25
29 -22 90 3 76 17 89 58 53 41 -36 55 -23 58 52 3 62 1 68 -28 98 -50 51 -32
120 32 120 60 0 76 68 28 119 -30 31 -31 33 -28 129 3 107 13 121 58 82 13
-11 31 -19 39 -18 17 3 35 6783 19 6845 -4 14 -13 30 -20 34 -27 18 -10205 11
-10222 -7z m10171 -70 c6 -16 -15 -37 -29 -28 -4 3 -8 14 -8 25 0 23 28 26 37
3z m-392 -379 c45 -46 45 -46 45 -3105 0 -3059 0 -3059 -30 -3090 -30 -31 -30
-31 -30 -210 0 -179 0 -179 -30 -210 -30 -31 -30 -31 -30 -150 0 -119 0 -119
-30 -150 -27 -27 -30 -38 -30 -90 0 -52 -3 -63 -30 -90 -27 -27 -30 -38 -30
-90 0 -52 -3 -63 -30 -90 -27 -27 -30 -38 -30 -90 0 -52 -3 -63 -30 -90 -20
-20 -30 -41 -30 -60 0 -19 -10 -40 -30 -60 -27 -27 -30 -38 -30 -90 0 -52 -3
-63 -30 -90 -20 -20 -30 -41 -30 -60 0 -19 -10 -40 -30 -60 -20 -20 -30 -41
-30 -60 0 -22 -14 -44 -60 -90 -46 -46 -60 -68 -60 -90 0 -19 -10 -40 -30 -60
-20 -20 -30 -41 -30 -60 0 -22 -14 -44 -60 -90 -60 -60 -60 -61 -60 -120 0
-67 -15 -90 -60 -90 -45 0 -60 -23 -60 -90 0 -67 -15 -90 -60 -90 -20 0 -46
-17 -99 -67 -74 -69 -85 -95 -51 -113 31 -16 24 -44 -20 -84 -27 -24 -50 -36
-70 -36 -25 0 -66 -37 -285 -254 -236 -235 -279 -286 -241 -286 19 0 48 -29
41 -41 -12 -19 -45 -9 -51 16 -10 40 -33 30 -111 -48 -70 -70 -90 -107 -59
-107 19 0 48 -29 41 -41 -12 -19 -45 -9 -51 16 -9 36 -31 31 -80 -19 -33 -33
-44 -51 -44 -75 0 -22 -11 -43 -36 -71 -41 -46 -52 -48 -84 -20 -34 29 -40 27
-113 -49 -65 -67 -83 -101 -53 -101 19 0 48 -29 41 -41 -12 -19 -45 -9 -51 16
-9 36 -31 31 -80 -19 -34 -33 -44 -51 -44 -76 0 -31 -140 -190 -167 -190 -6 0
-15 -11 -21 -25 -11 -24 -15 -25 -107 -25 -94 0 -94 0 -140 -45 -33 -34 -45
-53 -45 -75 0 -32 -70 -120 -95 -120 -6 0 -17 -11 -23 -25 -14 -31 -52 -35
-52 -5 0 10 9 24 20 30 11 6 20 20 20 30 0 30 -38 26 -52 -5 -6 -14 -17 -25
-24 -25 -6 0 -35 -25 -63 -56 -40 -43 -59 -56 -88 -61 -60 -9 -86 -55 -38 -67
31 -8 35 -46 5 -46 -13 0 -22 9 -26 25 -8 33 -23 32 -69 -5 -22 -17 -50 -30
-66 -30 -18 0 -32 -7 -39 -19 -15 -30 -12 -38 15 -45 31 -8 35 -46 5 -46 -13
0 -22 9 -26 25 -12 46 -64 22 -64 -30 0 -50 -21 -65 -90 -65 -67 0 -90 -15
-90 -60 0 -45 -23 -60 -91 -60 -51 0 -63 -4 -84 -25 -14 -16 -39 -28 -62 -32
-59 -9 -86 -55 -38 -67 31 -8 35 -46 5 -46 -13 0 -22 9 -26 25 -13 53 -60 25
-66 -40 -4 -47 -23 -55 -58 -25 -31 27 -41 26 -80 -15 -24 -24 -35 -47 -39
-77 -7 -50 -26 -59 -61 -28 -32 28 -43 26 -84 -20 -27 -30 -36 -49 -36 -75 0
-45 -20 -53 -59 -24 -38 28 -58 15 -63 -39 -3 -32 -6 -37 -28 -37 -22 0 -25 5
-28 37 -5 54 -25 67 -63 39 -40 -30 -59 -21 -59 27 0 60 -51 90 -64 37 -4 -16
-13 -25 -26 -25 -30 0 -26 38 5 46 27 7 30 15 15 45 -7 12 -21 19 -40 19 -16
0 -41 11 -58 25 -36 30 -42 31 -72 5 -35 -30 -54 -22 -58 24 -5 63 -112 155
-112 96 0 -10 9 -24 20 -30 23 -12 27 -50 5 -50 -31 0 -95 75 -95 112 0 57
-51 83 -64 33 -4 -16 -13 -25 -26 -25 -30 0 -26 38 5 46 47 12 22 58 -37 67
-28 4 -51 19 -93 61 -36 37 -63 56 -79 56 -13 0 -40 14 -61 30 -46 37 -61 38
-69 5 -4 -16 -13 -25 -26 -25 -30 0 -26 38 5 46 47 12 22 58 -37 67 -27 4 -49
19 -90 61 -59 61 -83 69 -92 31 -4 -16 -13 -25 -26 -25 -30 0 -26 38 5 46 27
7 30 15 15 45 -7 12 -21 19 -40 19 -18 0 -42 11 -63 30 -19 17 -39 30 -44 30
-5 0 -15 11 -21 25 -7 14 -23 30 -36 36 -13 6 -29 22 -35 35 -14 32 -111 37
-111 5 0 -10 -7 -24 -15 -31 -17 -15 -167 124 -158 147 6 16 53 18 53 2 0 -17
87 -99 104 -99 31 0 16 36 -34 83 -27 26 -54 47 -58 47 -5 0 -14 11 -20 25 -8
18 -19 25 -40 25 -17 0 -45 12 -67 30 -46 37 -61 38 -69 5 -6 -25 -39 -35 -51
-16 -7 12 22 41 41 41 27 0 14 33 -30 76 -33 33 -51 44 -75 44 -26 0 -45 15
-119 90 -93 94 -116 106 -126 65 -4 -16 -13 -25 -26 -25 -30 0 -26 38 5 46 48
12 22 58 -38 67 -33 5 -57 26 -180 151 -79 80 -148 146 -154 146 -7 0 -14 8
-17 18 -3 9 -43 52 -88 95 -46 43 -86 82 -90 85 -4 4 -26 28 -49 55 -23 26
-47 47 -54 47 -6 0 -17 11 -23 25 -7 14 -23 30 -37 37 -14 6 -25 15 -25 20 0
14 -82 98 -96 98 -7 0 -15 8 -18 18 -3 9 -43 52 -88 95 -46 43 -87 83 -93 89
-5 6 -49 51 -97 99 -73 74 -88 94 -88 120 0 25 -11 42 -52 81 -29 27 -57 54
-63 60 -5 6 -36 37 -67 69 -48 49 -58 65 -58 94 0 52 -52 77 -64 30 -6 -25
-39 -35 -51 -16 -7 12 22 41 41 41 22 0 16 24 -16 65 -17 22 -30 50 -30 66 0
18 -7 32 -19 39 -30 15 -38 12 -45 -15 -4 -16 -13 -25 -26 -25 -30 0 -26 38 5
46 50 12 21 64 -35 64 -32 0 -42 5 -53 26 -7 14 -24 31 -38 37 -32 16 -31 39
4 55 23 11 27 19 27 58 0 55 -17 64 -60 34 -43 -31 -60 -21 -60 35 0 39 4 47
24 55 32 12 41 28 26 45 -22 27 -50 18 -50 -15 0 -33 -28 -42 -50 -15 -15 18
-6 33 27 46 22 8 24 14 21 56 -4 57 -35 72 -67 32 -11 -14 -24 -20 -34 -16
-25 9 -21 23 13 47 25 18 30 28 30 61 0 49 -19 58 -59 30 -68 -48 -94 15 -34
81 37 39 27 62 -27 68 -52 6 -61 24 -30 60 31 36 22 54 -30 60 -55 6 -65 33
-25 70 46 43 25 110 -35 110 -60 0 -81 67 -35 110 32 30 32 50 0 80 -23 22
-25 31 -25 111 0 97 -11 119 -57 119 -65 0 -83 66 -33 119 30 31 31 33 28 129
-3 107 -13 121 -58 82 -47 -41 -55 -27 -58 112 -3 127 -3 127 28 158 30 31 30
31 30 3120 0 2794 1 3090 16 3104 14 15 451 16 4664 16 4649 0 4649 0 4695
-45z m-260 -8326 c9 -26 2 -33 -24 -24 -27 8 -28 45 -2 45 11 0 23 -9 26 -21z
m-240 -360 c9 -26 2 -33 -24 -24 -12 3 -21 15 -21 26 0 26 37 25 45 -2z
m-7852 -60 c3 -11 15 -23 26 -26 14 -3 21 -13 21 -29 0 -36 -29 -30 -73 15
-35 35 -37 40 -22 54 19 20 41 13 48 -14z m297 -351 c0 -12 146 -158 160 -158
5 0 10 -11 10 -25 0 -45 -32 -27 -133 74 -89 90 -97 100 -82 114 16 16 45 13
45 -5z m303 -309 c3 -11 15 -23 26 -26 14 -3 21 -13 21 -29 0 -36 -29 -30 -73
15 -35 35 -37 40 -22 54 19 20 41 13 48 -14z m177 -171 c0 -12 146 -158 160
-158 5 0 10 -11 10 -25 0 -45 -32 -27 -133 74 -89 90 -97 100 -82 114 16 16
45 13 45 -5z m-277 -207 c144 -144 157 -160 142 -174 -16 -16 -45 -13 -45 4 0
13 -267 279 -280 279 -5 0 -10 11 -10 25 0 49 35 24 193 -134z m5852 -522 c9
-26 2 -33 -24 -24 -12 3 -21 15 -21 26 0 26 37 25 45 -2z m-4195 -415 c6 -14
19 -28 30 -31 13 -3 20 -14 20 -29 0 -35 -25 -30 -71 15 -37 35 -39 40 -24 55
23 22 34 20 45 -10z m-490 -63 c0 -11 -9 -23 -21 -26 -26 -9 -33 -2 -24 24 8
27 45 28 45 2z m2945 -782 c9 -26 2 -33 -24 -24 -27 8 -28 45 -2 45 11 0 23
-9 26 -21z m-1385 -298 c0 -11 -9 -23 -21 -26 -26 -9 -33 -2 -24 24 8 27 45
28 45 2z"/>
<path d="M7510 13110 c0 -13 7 -20 20 -20 13 0 20 7 20 20 0 13 -7 20 -20 20
-13 0 -20 -7 -20 -20z"/>
<path d="M8950 12030 c0 -13 7 -20 20 -20 13 0 20 7 20 20 0 13 -7 20 -20 20
-13 0 -20 -7 -20 -20z"/>
<path d="M9130 11790 c0 -13 7 -20 20 -20 13 0 20 7 20 20 0 13 -7 20 -20 20
-13 0 -20 -7 -20 -20z"/>
<path d="M7930 10770 c0 -13 7 -20 20 -20 13 0 20 7 20 20 0 13 -7 20 -20 20
-13 0 -20 -7 -20 -20z"/>
<path d="M10030 10770 c0 -13 7 -20 20 -20 13 0 20 7 20 20 0 13 -7 20 -20 20
-13 0 -20 -7 -20 -20z"/>
<path d="M10270 10650 c0 -13 7 -20 20 -20 13 0 20 7 20 20 0 13 -7 20 -20 20
-13 0 -20 -7 -20 -20z"/>
<path d="M10390 10410 c0 -13 7 -20 20 -20 13 0 20 7 20 20 0 13 -7 20 -20 20
-13 0 -20 -7 -20 -20z"/>
<path d="M10390 9750 c0 -13 7 -20 20 -20 13 0 20 7 20 20 0 13 -7 20 -20 20
-13 0 -20 -7 -20 -20z"/>
<path d="M9722 9628 c-5 -13 -7 -58 -6 -100 1 -77 1 -78 43 -118 22 -22 47
-40 55 -40 27 0 25 29 -2 51 -26 20 -27 25 -28 113 0 51 -4 98 -8 104 -12 20
-46 14 -54 -10z"/>
<path d="M4390 9510 c0 -13 7 -20 20 -20 13 0 20 7 20 20 0 13 -7 20 -20 20
-13 0 -20 -7 -20 -20z"/>
<path d="M10090 9511 c0 -26 17 -36 35 -21 18 15 8 40 -16 40 -12 0 -19 -7
-19 -19z"/>
<path d="M9970 9465 c-10 -12 -10 -18 0 -29 16 -20 42 -8 38 17 -4 26 -21 32
-38 12z"/>
<path d="M8170 9150 c0 -13 7 -20 20 -20 13 0 20 7 20 20 0 13 -7 20 -20 20
-13 0 -20 -7 -20 -20z"/>
<path d="M7990 8970 c0 -13 7 -20 20 -20 13 0 20 7 20 20 0 13 -7 20 -20 20
-13 0 -20 -7 -20 -20z"/>
<path d="M9490 8730 c0 -13 7 -20 20 -20 13 0 20 7 20 20 0 13 -7 20 -20 20
-13 0 -20 -7 -20 -20z"/>
<path d="M8470 8550 c0 -13 7 -20 20 -20 13 0 20 7 20 20 0 13 -7 20 -20 20
-13 0 -20 -7 -20 -20z"/>
<path d="M4450 7950 c0 -13 7 -20 20 -20 13 0 20 7 20 20 0 13 -7 20 -20 20
-13 0 -20 -7 -20 -20z"/>
<path d="M4510 7711 c0 -22 23 -34 38 -19 15 15 3 38 -19 38 -12 0 -19 -7 -19
-19z"/>
<path d="M4572 7548 c-15 -15 -3 -38 19 -38 12 0 19 7 19 19 0 22 -23 34 -38
19z"/>
<path d="M4990 6570 c0 -13 7 -20 20 -20 13 0 20 7 20 20 0 13 -7 20 -20 20
-13 0 -20 -7 -20 -20z"/>
<path d="M4680 6396 c0 -29 11 -39 35 -30 24 10 15 48 -12 52 -19 3 -23 -1
-23 -22z"/>
<path d="M5110 6390 c0 -13 7 -20 20 -20 13 0 20 7 20 20 0 13 -7 20 -20 20
-13 0 -20 -7 -20 -20z"/>
<path d="M5230 6210 c0 -13 7 -20 20 -20 13 0 20 7 20 20 0 13 -7 20 -20 20
-13 0 -20 -7 -20 -20z"/>
<path d="M12070 5910 c0 -13 7 -20 20 -20 13 0 20 7 20 20 0 13 -7 20 -20 20
-13 0 -20 -7 -20 -20z"/>
<path d="M10930 4770 c0 -13 7 -20 20 -20 13 0 20 7 20 20 0 13 -7 20 -20 20
-13 0 -20 -7 -20 -20z"/>
<path d="M10330 4290 c0 -13 7 -20 20 -20 13 0 20 7 20 20 0 13 -7 20 -20 20
-13 0 -20 -7 -20 -20z"/>
<path d="M10809 4242 c-37 -37 -64 -73 -62 -79 6 -16 53 -17 53 -2 0 14 85 99
99 99 6 0 11 11 11 25 0 42 -30 29 -101 -43z"/>
<path d="M9910 3990 c0 -13 7 -20 20 -20 13 0 20 7 20 20 0 13 -7 20 -20 20
-13 0 -20 -7 -20 -20z"/>
<path d="M9490 3691 c0 -26 17 -36 35 -21 18 15 8 40 -16 40 -12 0 -19 -7 -19
-19z"/>
<path d="M9373 3649 c-16 -16 -5 -39 19 -39 14 0 19 6 16 22 -4 25 -19 33 -35
17z"/>
<path d="M8650 3330 c0 -13 7 -20 20 -20 13 0 20 7 20 20 0 13 -7 20 -20 20
-13 0 -20 -7 -20 -20z"/>
<path d="M12674 5452 c-6 -4 -14 -15 -17 -25 -4 -11 -16 -21 -27 -24 -13 -3
-20 -14 -20 -29 0 -36 29 -30 73 15 35 36 37 40 22 55 -19 18 -17 18 -31 8z"/>
<path d="M11997 4709 c-3 -11 -15 -23 -26 -26 -26 -7 -30 -53 -5 -53 23 0 93
70 87 87 -8 21 -50 16 -56 -8z"/>
</g>
</svg>
